<svg width="99" height="100" viewBox="0 0 99 100" fill="none" xmlns="http://www.w3.org/2000/svg">
<g clip-path="url(#clip0_43_1015)">
<path d="M96.7343 36.3003L96.6463 36.2123C95.4666 35.0293 93.9392 34.2581 92.2881 34.0117L95.1526 31.1427C96.6382 29.6553 97.4724 27.6382 97.4724 25.5355C97.4724 23.4327 96.6381 21.4156 95.1526 19.9282L95.0622 19.8378C93.8543 18.6257 92.2849 17.84 90.591 17.5994L91.0792 17.1109C92.5768 15.609 93.4184 13.5742 93.4184 11.452C93.4184 9.32982 92.5768 7.29426 91.0792 5.79225L90.9912 5.70423H90.9904C89.492 4.20714 87.4601 3.36645 85.3419 3.36645C83.2245 3.36645 81.1927 4.20705 79.6934 5.70423L78.1618 7.23686V7.23767C77.9367 5.44019 77.1184 3.76873 75.837 2.48955L75.7442 2.39669C74.2127 0.861644 72.134 0 69.9666 0C67.8001 0 65.7213 0.861602 64.1898 2.39669L50.5407 16.0554C50.1356 16.4575 49.9783 17.0462 50.1292 17.5969L53.1317 28.6758H53.1325C53.8442 31.3236 55.3904 33.6709 57.5399 35.3708L61.6609 38.6427H61.6617C62.96 39.6706 64.0236 40.965 64.7813 42.4387L71.591 55.6203H71.5918C71.7007 55.8189 71.6895 56.0628 71.562 56.2509C71.4224 56.4673 71.1674 56.5796 70.914 56.536C68.5562 56.4035 66.3952 55.1786 65.0686 53.2237L61.126 47.3856C60.7475 46.7953 60.0253 46.5248 59.3524 46.7218C58.6794 46.918 58.2162 47.5342 58.2138 48.2359L57.6941 71.0431C57.6836 71.5543 57.4617 72.0387 57.0817 72.3811C56.6823 72.738 56.1497 72.9084 55.6179 72.8495C54.6278 72.7687 53.8758 71.9249 53.9097 70.9317L54.4568 54.664H54.456C54.4866 53.7862 53.7991 53.0498 52.9212 53.0191C52.0432 52.9892 51.3073 53.6772 51.2775 54.5558L50.5545 75.6845C50.494 76.7237 49.6096 77.5215 48.5702 77.4755C48.0715 77.4634 47.5979 77.251 47.2582 76.8852C46.9177 76.5194 46.7393 76.0317 46.7627 75.5327L46.8418 73.7852C46.8765 73.5793 46.8983 73.3718 46.908 73.1635L47.7101 54.7817C47.7488 53.9031 47.0693 53.1594 46.1914 53.1198C45.3135 53.0803 44.5703 53.761 44.5308 54.6395L43.677 73.3856V73.3848C43.598 73.7038 43.4277 73.992 43.1864 74.2149C42.8289 74.533 42.3537 74.6856 41.8784 74.6356C41.4273 74.6041 41.0069 74.3925 40.7132 74.0486C40.4187 73.7046 40.2742 73.2572 40.3122 72.8066L40.5494 70.0143V69.9893L41.5936 57.6692C41.6678 56.7947 41.0198 56.026 40.1467 55.9517C39.2728 55.8774 38.5047 56.5258 38.4304 57.3995L37.3846 69.7332C37.3499 70.1297 37.1579 70.4955 36.8513 70.749C36.5237 71.0163 36.1 71.1374 35.6804 71.0833C34.8743 71.0115 34.2731 70.3089 34.3248 69.5007L36.6343 43.3921C36.6569 43.2339 36.7311 42.9399 36.8328 42.5055C37.8382 38.2597 40.8998 25.3334 33.7689 18.2161L33.6809 18.1345L33.5655 18.0352H33.5663C32.0598 16.7247 30.0682 16.1142 28.0874 16.3556C24.1384 16.8191 23.1958 20.4255 22.4389 23.3107C22.3937 23.4915 17.7668 41.2879 16.2458 44.8652L9.10627 61.6489L0.464089 70.2988C-0.157241 70.9238 -0.154018 71.9331 0.469737 72.5541C1.09348 73.1758 2.10214 73.1734 2.72345 72.5484L11.585 63.6806L11.5842 63.6814C11.7286 63.5377 11.844 63.3673 11.9231 63.1792L19.1823 46.1088C20.7929 42.3167 25.3342 24.8561 25.5263 24.1139C26.3736 20.8759 26.9449 19.6937 28.4636 19.5153H28.4644C29.5602 19.3853 30.6592 19.7252 31.4897 20.4512L31.5599 20.5141C35.4209 24.4095 36.1528 31.5639 33.7336 41.7669C33.6142 42.1989 33.523 42.639 33.4625 43.0831L31.1466 69.2412C31.0514 70.7908 31.7195 72.2887 32.9347 73.2536C34.1508 74.2178 35.7607 74.5262 37.2469 74.0797C37.598 75.4734 38.5364 76.6459 39.8186 77.2935C41.1008 77.9411 42.6009 78.0001 43.9298 77.455C44.5059 78.9101 45.7187 80.0188 47.2197 80.4613C48.7197 80.903 50.3393 80.6293 51.6118 79.7184C52.8835 78.8076 53.6654 77.3614 53.7317 75.798V75.6083C54.2683 75.8432 54.8412 75.9862 55.4262 76.0306C56.8077 76.142 58.1738 75.6785 59.2034 74.7491C60.2322 73.8197 60.8334 72.5066 60.864 71.1202L61.2707 53.3101L62.4182 55.0083H62.419C64.3258 57.8087 67.434 59.5536 70.8166 59.7225C71.7147 59.7701 72.6007 59.4988 73.318 58.9562C74.0354 58.4136 74.538 57.6343 74.7366 56.7573C74.9359 55.8796 74.8181 54.9598 74.4049 54.1605L73.6141 52.6295C73.7239 52.5633 73.8255 52.4834 73.9167 52.3921L87.837 38.462V38.4628C88.7077 37.5964 89.885 37.1103 91.1131 37.1103C92.3404 37.1103 93.5186 37.5964 94.3891 38.4628L94.4771 38.5532C95.3429 39.4237 95.8287 40.6027 95.8287 41.8316C95.8287 43.0598 95.3429 44.2388 94.4771 45.1099L54.937 84.6779C51.7246 87.8862 47.4979 89.8789 42.9799 90.3143L34.2022 91.1509C33.8351 91.1848 33.4913 91.3447 33.2283 91.6031L27.5056 97.362C26.8818 97.9862 26.8818 98.998 27.5056 99.6231C28.1293 100.247 29.1412 100.247 29.7651 99.6231L35.0996 94.2848L43.3061 93.5023H43.3053C48.5601 92.9952 53.4749 90.6777 57.2102 86.9454L96.7503 47.3775C98.2164 45.907 99.0387 43.9133 99.0354 41.8356C99.0321 39.7587 98.2042 37.7673 96.7339 36.3011L96.7343 36.3003ZM56.5394 28.8706C56.4054 28.5355 56.2916 28.1923 56.198 27.8443L53.4368 17.6698L66.4331 4.66435C67.37 3.72928 68.6393 3.2044 69.9626 3.2044C71.2859 3.2044 72.5545 3.72928 73.4913 4.66435L73.5841 4.75963C74.5177 5.69551 75.0422 6.96408 75.0422 8.28666C75.0422 9.60933 74.5177 10.8779 73.5841 11.8137L56.5394 28.8706ZM63.6339 36.151L59.513 32.8791C59.053 32.5141 58.6278 32.1087 58.2405 31.6678L81.9323 7.95931C82.836 7.05492 84.061 6.54701 85.3382 6.54701C86.6156 6.54701 87.8413 7.05492 88.7442 7.95931L88.8322 8.04733C89.7335 8.95172 90.2395 10.1767 90.2395 11.4534C90.2395 12.7309 89.7335 13.9551 88.8322 14.8595L65.6341 38.074H65.6349C65.0281 37.3731 64.3583 36.7295 63.6329 36.1522L63.6339 36.151ZM85.605 36.2027L72.1075 49.7055L67.5887 40.9781L67.462 40.7359L86.1335 22.0512C87.0268 21.1783 88.2284 20.693 89.4767 20.7003C90.725 20.7067 91.9209 21.2065 92.8036 22.09L92.8939 22.1804C93.7832 23.0703 94.2827 24.2782 94.2827 25.5363C94.2827 26.7951 93.7832 28.0024 92.8939 28.893L85.605 36.2027Z" fill="#4169E1"/>
</g>
<defs>
<clipPath id="clip0_43_1015">
<rect width="99" height="100" fill="white"/>
</clipPath>
</defs>
</svg>
