<svg width="95" height="99" viewBox="0 0 95 99" fill="none" xmlns="http://www.w3.org/2000/svg">
<g clip-path="url(#clip0_43_770)">
<path d="M40.2936 10.3077C40.2936 12.0161 38.9064 13.4001 37.1954 13.4001C35.4838 13.4001 34.0972 12.0161 34.0972 10.3077C34.0972 8.59999 35.4838 7.21533 37.1954 7.21533C38.9064 7.21533 40.2936 8.59999 40.2936 10.3077" fill="#4169E1"/>
<path d="M49.2361 94.8333H5.38629C4.70163 94.8333 4.14699 94.279 4.14699 93.5963V17.729C4.14699 17.0463 4.70163 16.4921 5.38629 16.4921H18.6057V18.9253C18.6057 19.9131 18.9957 20.8615 19.6921 21.5636C20.3878 22.2662 21.3332 22.6666 22.3235 22.6769H52.0665C53.0562 22.6666 54.0016 22.2662 54.6979 21.5636C55.3936 20.8616 55.7844 19.9131 55.7844 18.9253V16.4921H69.0037H69.0031C69.6877 16.4921 70.2424 17.0463 70.2424 17.729V45.3554C70.2424 46.4936 71.1677 47.4165 72.3081 47.4165C73.4485 47.4165 74.3738 46.4936 74.3738 45.3554V17.729C74.3683 16.3091 73.8005 14.9494 72.7949 13.945C71.7887 12.9414 70.4256 12.3747 69.0031 12.3691H55.619C55.2968 10.7878 54.4392 9.36583 53.1902 8.34076C51.9419 7.3164 50.3775 6.75108 48.7613 6.74073H46.8401C45.8387 4.1267 43.8144 2.03185 41.2335 0.93697C38.6526 -0.157782 35.7362 -0.157782 33.1552 0.93697C30.5743 2.03172 28.5507 4.1267 27.5487 6.74073H25.6274C24.0112 6.75108 22.4476 7.3164 21.1985 8.34076C19.9502 9.3658 19.0926 10.7878 18.7704 12.3691H5.38566C3.9631 12.3747 2.60009 12.9414 1.59449 13.945C0.588251 14.9493 0.0211664 16.3092 0.015625 17.729V93.5963C0.0211576 95.0162 0.588251 96.3759 1.59449 97.3803C2.60003 98.384 3.96313 98.9507 5.38566 98.9562H49.2354C50.3758 98.9562 51.3012 98.0333 51.3012 96.8944C51.3012 95.7561 50.3758 94.8333 49.2354 94.8333H49.2361ZM22.7364 13.875C22.7198 13.093 23.0151 12.3371 23.5573 11.7726C24.0995 11.208 24.845 10.8814 25.6278 10.8656H30.7918L31.1223 9.19584C31.5048 7.31692 32.7378 5.72108 34.4612 4.87554C36.1853 4.02996 38.204 4.02996 39.928 4.87554C41.6514 5.72111 42.8852 7.31692 43.2669 9.19584L43.5975 10.8656H48.7614C49.545 10.8815 50.2898 11.208 50.8319 11.7726C51.3741 12.3372 51.6694 13.0931 51.6528 13.875V18.5549H22.7365L22.7364 13.875Z" fill="#4169E1"/>
<path d="M24.8022 35.0463H57.8507V39.1692H24.8022V35.0463Z" fill="#4169E1"/>
<path d="M15.5077 31.9539C14.1377 31.9539 12.8245 32.4972 11.8562 33.4635C10.888 34.4306 10.3438 35.7415 10.3438 37.1081C10.3438 38.4748 10.888 39.7856 11.8562 40.7527C12.8244 41.7191 14.1378 42.2623 15.5077 42.2623C16.877 42.2623 18.1903 41.7191 19.1585 40.7527C20.1274 39.7856 20.671 38.4748 20.671 37.1081C20.671 35.7415 20.1274 34.4306 19.1585 33.4635C18.1903 32.4972 16.877 31.9539 15.5077 31.9539ZM15.5077 40.2005C14.6854 40.2005 13.8977 39.8747 13.3168 39.2948C12.7359 38.715 12.4095 37.9281 12.4095 37.1081C12.4095 36.2881 12.7359 35.5012 13.3168 34.9214C13.8977 34.3415 14.6854 34.0157 15.5077 34.0157C16.3293 34.0157 17.117 34.3415 17.6986 34.9214C18.2795 35.5012 18.6059 36.2881 18.6059 37.1081C18.6059 37.9281 18.2795 38.715 17.6986 39.2948C17.117 39.8747 16.3293 40.2005 15.5077 40.2005Z" fill="#4169E1"/>
<path d="M24.8022 55.6627H45.4577V59.7856H24.8022V55.6627Z" fill="#4169E1"/>
<path d="M15.5077 52.5703C14.1377 52.5703 12.8245 53.1135 11.8562 54.0799C10.888 55.0463 10.3438 56.3571 10.3438 57.7245C10.3438 59.0912 10.888 60.402 11.8562 61.3684C12.8244 62.3354 14.1378 62.878 15.5077 62.878C16.877 62.878 18.1903 62.3354 19.1585 61.3684C20.1274 60.402 20.671 59.0911 20.671 57.7245C20.671 56.3571 20.1274 55.0463 19.1585 54.0799C18.1903 53.1135 16.877 52.5703 15.5077 52.5703ZM15.5077 60.8169C14.6854 60.8169 13.8977 60.4911 13.3168 59.9112C12.7359 59.3307 12.4095 58.5445 12.4095 57.7245C12.4095 56.9038 12.7359 56.1176 13.3168 55.5378C13.8977 54.9579 14.6854 54.6321 15.5077 54.6321C16.3293 54.6321 17.117 54.9579 17.6986 55.5378C18.2795 56.1176 18.6059 56.9038 18.6059 57.7245C18.6059 58.5445 18.2795 59.3307 17.6986 59.9112C17.117 60.4911 16.3293 60.8169 15.5077 60.8169Z" fill="#4169E1"/>
<path d="M24.8022 76.2791H41.3259V80.402H24.8022V76.2791Z" fill="#4169E1"/>
<path d="M15.5077 73.1867C14.1377 73.1867 12.8245 73.7292 11.8562 74.6963C10.888 75.6627 10.3438 76.9735 10.3438 78.3402C10.3438 79.7076 10.888 81.0184 11.8562 81.9848C12.8244 82.9512 14.1378 83.4944 15.5077 83.4944C16.877 83.4944 18.1903 82.9511 19.1585 81.9848C20.1274 81.0184 20.671 79.7075 20.671 78.3402C20.671 76.9735 20.1274 75.6627 19.1585 74.6963C18.1903 73.7292 16.877 73.1867 15.5077 73.1867ZM15.5077 81.4333V81.4326C14.6854 81.4326 13.8977 81.1068 13.3168 80.5269C12.7359 79.9471 12.4095 79.1609 12.4095 78.3402C12.4095 77.5202 12.7359 76.734 13.3168 76.1535C13.8977 75.5736 14.6854 75.2478 15.5077 75.2478C16.3293 75.2478 17.117 75.5736 17.6986 76.1535C18.2795 76.734 18.6059 77.5202 18.6059 78.3402C18.6059 79.1609 18.2795 79.9471 17.6986 80.5269C17.117 81.1068 16.3293 81.4326 15.5077 81.4326V81.4333Z" fill="#4169E1"/>
<path d="M72.308 53.6005C66.2824 53.6005 60.5029 55.9901 56.2422 60.2429C51.9815 64.4957 49.5879 70.2634 49.5879 76.2784C49.5879 82.2926 51.9815 88.0605 56.2422 92.3131C60.5029 96.5664 66.2824 98.9555 72.308 98.9555C78.3337 98.9555 84.1132 96.5664 88.3739 92.3131C92.6346 88.0605 95.0282 82.2926 95.0282 76.2784C95.0282 70.2634 92.6346 64.4956 88.3739 60.2429C84.1132 55.9903 78.3337 53.6005 72.308 53.6005V53.6005ZM72.308 94.8315V94.8322C67.3778 94.8322 62.6495 92.8775 59.1634 89.3978C55.6773 85.9182 53.7186 81.1989 53.7186 76.278C53.7186 71.3571 55.6771 66.6378 59.1634 63.1582C62.6497 59.6787 67.3778 57.7238 72.308 57.7238C77.2383 57.7238 81.9666 59.6785 85.4527 63.1582C88.9388 66.6379 90.8975 71.3571 90.8975 76.278C90.8975 81.1989 88.939 85.9182 85.4527 89.3978C81.9666 92.8773 77.2383 94.8322 72.308 94.8322V94.8315Z" fill="#4169E1"/>
<path d="M79.0837 68.6718L68.7564 79.4744L65.5138 76.0935C64.7094 75.3715 63.484 75.3908 62.7032 76.1377C61.9224 76.8846 61.8512 78.1057 62.5393 78.9381L67.249 83.8859C67.639 84.2959 68.1798 84.5279 68.7462 84.5279C69.3126 84.5279 69.8534 84.2959 70.2435 83.8859L82.0375 71.5164C82.7256 70.684 82.6544 69.4629 81.8736 68.716C81.0928 67.9691 79.8673 67.9498 79.063 68.6718H79.0837Z" fill="#4169E1"/>
</g>
<defs>
<clipPath id="clip0_43_770">
<rect width="95" height="99" fill="white"/>
</clipPath>
</defs>
</svg>
