<svg width="263" height="60" viewBox="0 0 263 60" fill="none" xmlns="http://www.w3.org/2000/svg">
<path d="M46.2498 37.921C54.9325 37.921 61.9713 30.8283 61.9713 22.079C61.9713 13.3297 54.9325 6.237 46.2498 6.237C37.5671 6.237 30.5283 13.3297 30.5283 22.079C30.5283 30.8283 37.5671 37.921 46.2498 37.921Z" fill="#FFD700"/>
<path d="M12.1554 36.5167C5.48401 29.7942 5.48401 18.8948 12.1554 12.1722C18.8268 5.4497 29.6433 5.4497 36.3147 12.1722L59.5054 35.5408L35.3462 59.8854L12.1554 36.5167Z" fill="#4169E1"/>
<path d="M12.7682 37.1217C9.6554 33.9849 9.65539 28.8994 12.7682 25.7627C15.881 22.626 20.928 22.626 24.0409 25.7627L39.4728 41.3129L28.2001 52.6719L12.7682 37.1217Z" fill="#FFD700"/>
<path d="M71.4603 11.8447C70.1168 10.4909 70.1168 8.29584 71.4603 6.94199C72.8039 5.58814 74.9821 5.58814 76.3258 6.94199L82.9863 13.6537L78.121 18.5565L71.4603 11.8447Z" fill="#FFD700"/>
<path d="M79.8989 6.98636C81.2425 5.63252 83.4207 5.63252 84.7643 6.98636C86.1079 8.3402 86.1079 10.5352 84.7643 11.8891L78.1036 18.6007L73.2383 13.6981L79.8989 6.98636Z" fill="#4169E1"/>
<path d="M22.7295 47.171L51.2739 18.4076C56.5771 13.0638 65.1752 13.0638 70.4783 18.4076C72.1657 20.108 72.1657 22.8647 70.4783 24.5651L35.387 59.9255L22.7295 47.171Z" fill="#4169E1"/>
<path d="M60.6714 22.2037C61.6628 22.2037 62.4664 21.3939 62.4664 20.395C62.4664 19.3961 61.6628 18.5863 60.6714 18.5863C59.6801 18.5863 58.8765 19.3961 58.8765 20.395C58.8765 21.3939 59.6801 22.2037 60.6714 22.2037Z" fill="#FFD700"/>
<path d="M75.3699 22.4984C74.6777 22.3917 73.1127 20.8316 70.2655 18.2744C68.8767 23.209 66.489 27.8248 69.2752 25.7588C72.5556 23.3264 74.109 22.7355 75.3699 22.4984Z" fill="#4169E1"/>
<path d="M101.673 27.2C101.086 27.2 100.5 27.1533 99.9129 27.06C99.3263 26.98 98.7729 26.8533 98.2529 26.68C97.7329 26.4933 97.2663 26.2667 96.8529 26C96.6129 25.84 96.4463 25.6467 96.3529 25.42C96.2596 25.1933 96.2263 24.9733 96.2529 24.76C96.2929 24.5333 96.3796 24.34 96.5129 24.18C96.6596 24.0067 96.8396 23.9 97.0529 23.86C97.2663 23.82 97.4996 23.88 97.7529 24.04C98.3396 24.3867 98.9596 24.64 99.6129 24.8C100.266 24.96 100.953 25.04 101.673 25.04C102.726 25.04 103.493 24.8667 103.973 24.52C104.453 24.16 104.693 23.7 104.693 23.14C104.693 22.6733 104.52 22.3067 104.173 22.04C103.84 21.7733 103.26 21.5533 102.433 21.38L100.233 20.92C98.9663 20.6533 98.0196 20.2067 97.3929 19.58C96.7796 18.94 96.4729 18.1 96.4729 17.06C96.4729 16.4067 96.6063 15.8133 96.8729 15.28C97.1396 14.7467 97.5129 14.2867 97.9929 13.9C98.4863 13.5133 99.0663 13.22 99.7329 13.02C100.413 12.8067 101.16 12.7 101.973 12.7C102.773 12.7 103.533 12.8 104.253 13C104.973 13.2 105.62 13.4933 106.193 13.88C106.406 14.0267 106.546 14.2067 106.613 14.42C106.693 14.6333 106.713 14.8467 106.673 15.06C106.633 15.26 106.54 15.4333 106.393 15.58C106.246 15.7267 106.06 15.8133 105.833 15.84C105.62 15.8667 105.373 15.8 105.093 15.64C104.6 15.36 104.1 15.16 103.593 15.04C103.086 14.92 102.54 14.86 101.953 14.86C101.34 14.86 100.813 14.9467 100.373 15.12C99.9329 15.2933 99.5929 15.54 99.3529 15.86C99.1263 16.1667 99.0129 16.5333 99.0129 16.96C99.0129 17.44 99.1729 17.8267 99.4929 18.12C99.8129 18.4 100.36 18.62 101.133 18.78L103.313 19.24C104.633 19.52 105.613 19.96 106.253 20.56C106.906 21.16 107.233 21.96 107.233 22.96C107.233 23.6 107.1 24.18 106.833 24.7C106.58 25.22 106.206 25.6667 105.713 26.04C105.233 26.4133 104.653 26.7 103.973 26.9C103.293 27.1 102.526 27.2 101.673 27.2ZM114.772 27.2C113.906 27.2 113.179 27.0533 112.592 26.76C112.019 26.4667 111.592 26.04 111.312 25.48C111.032 24.9067 110.892 24.2 110.892 23.36V19.1H109.852C109.532 19.1 109.286 19.02 109.112 18.86C108.939 18.6867 108.852 18.4533 108.852 18.16C108.852 17.8533 108.939 17.62 109.112 17.46C109.286 17.3 109.532 17.22 109.852 17.22H110.892V15.4C110.892 14.9867 110.999 14.6733 111.212 14.46C111.439 14.2467 111.752 14.14 112.152 14.14C112.552 14.14 112.859 14.2467 113.072 14.46C113.286 14.6733 113.392 14.9867 113.392 15.4V17.22H115.512C115.832 17.22 116.079 17.3 116.252 17.46C116.426 17.62 116.512 17.8533 116.512 18.16C116.512 18.4533 116.426 18.6867 116.252 18.86C116.079 19.02 115.832 19.1 115.512 19.1H113.392V23.22C113.392 23.86 113.532 24.34 113.812 24.66C114.092 24.98 114.546 25.14 115.172 25.14C115.399 25.14 115.599 25.12 115.772 25.08C115.946 25.04 116.099 25.0133 116.232 25C116.392 24.9867 116.526 25.04 116.632 25.16C116.739 25.2667 116.792 25.4933 116.792 25.84C116.792 26.1067 116.746 26.3467 116.652 26.56C116.572 26.76 116.419 26.9 116.192 26.98C116.019 27.0333 115.792 27.08 115.512 27.12C115.232 27.1733 114.986 27.2 114.772 27.2ZM120.448 27.16C120.035 27.16 119.715 27.0533 119.488 26.84C119.275 26.6133 119.168 26.2933 119.168 25.88V18.32C119.168 17.9067 119.275 17.5933 119.488 17.38C119.702 17.1667 120.002 17.06 120.388 17.06C120.775 17.06 121.075 17.1667 121.288 17.38C121.502 17.5933 121.608 17.9067 121.608 18.32V19.58H121.408C121.595 18.78 121.962 18.1733 122.508 17.76C123.055 17.3467 123.782 17.1 124.688 17.02C124.968 16.9933 125.188 17.0667 125.348 17.24C125.522 17.4 125.622 17.6533 125.648 18C125.675 18.3333 125.595 18.6067 125.408 18.82C125.235 19.02 124.968 19.14 124.608 19.18L124.168 19.22C123.355 19.3 122.742 19.5533 122.328 19.98C121.915 20.3933 121.708 20.98 121.708 21.74V25.88C121.708 26.2933 121.602 26.6133 121.388 26.84C121.175 27.0533 120.862 27.16 120.448 27.16ZM132.504 27.2C131.491 27.2 130.611 26.9933 129.864 26.58C129.117 26.1667 128.537 25.58 128.124 24.82C127.711 24.0467 127.504 23.14 127.504 22.1C127.504 21.3133 127.617 20.6133 127.844 20C128.084 19.3733 128.424 18.84 128.864 18.4C129.304 17.9467 129.831 17.6067 130.444 17.38C131.057 17.14 131.744 17.02 132.504 17.02C133.517 17.02 134.397 17.2267 135.144 17.64C135.891 18.0533 136.471 18.64 136.884 19.4C137.297 20.16 137.504 21.06 137.504 22.1C137.504 22.8867 137.384 23.5933 137.144 24.22C136.917 24.8467 136.584 25.3867 136.144 25.84C135.704 26.28 135.177 26.62 134.564 26.86C133.951 27.0867 133.264 27.2 132.504 27.2ZM132.504 25.3C132.997 25.3 133.431 25.18 133.804 24.94C134.177 24.7 134.464 24.3467 134.664 23.88C134.877 23.4 134.984 22.8067 134.984 22.1C134.984 21.0333 134.757 20.24 134.304 19.72C133.851 19.1867 133.251 18.92 132.504 18.92C132.011 18.92 131.577 19.04 131.204 19.28C130.831 19.5067 130.537 19.86 130.324 20.34C130.124 20.8067 130.024 21.3933 130.024 22.1C130.024 23.1533 130.251 23.9533 130.704 24.5C131.157 25.0333 131.757 25.3 132.504 25.3ZM142.007 27.16C141.607 27.16 141.301 27.0533 141.087 26.84C140.874 26.6133 140.767 26.2933 140.767 25.88V18.32C140.767 17.9067 140.874 17.5933 141.087 17.38C141.301 17.1667 141.601 17.06 141.987 17.06C142.374 17.06 142.674 17.1667 142.887 17.38C143.101 17.5933 143.207 17.9067 143.207 18.32V19.68L142.987 19.18C143.281 18.4733 143.734 17.94 144.347 17.58C144.974 17.2067 145.681 17.02 146.467 17.02C147.254 17.02 147.901 17.1667 148.407 17.46C148.914 17.7533 149.294 18.2 149.547 18.8C149.801 19.3867 149.927 20.1333 149.927 21.04V25.88C149.927 26.2933 149.821 26.6133 149.607 26.84C149.394 27.0533 149.087 27.16 148.687 27.16C148.287 27.16 147.974 27.0533 147.747 26.84C147.534 26.6133 147.427 26.2933 147.427 25.88V21.16C147.427 20.4 147.281 19.8467 146.987 19.5C146.707 19.1533 146.267 18.98 145.667 18.98C144.934 18.98 144.347 19.2133 143.907 19.68C143.481 20.1333 143.267 20.74 143.267 21.5V25.88C143.267 26.7333 142.847 27.16 142.007 27.16ZM158.227 30.8C157.507 30.8 156.807 30.7333 156.127 30.6C155.46 30.4667 154.853 30.26 154.307 29.98C154.053 29.8467 153.88 29.6867 153.787 29.5C153.707 29.3133 153.68 29.12 153.707 28.92C153.747 28.7333 153.827 28.5667 153.947 28.42C154.08 28.2733 154.24 28.1733 154.427 28.12C154.613 28.0667 154.807 28.0933 155.007 28.2C155.593 28.4933 156.147 28.68 156.667 28.76C157.2 28.8533 157.653 28.9 158.027 28.9C158.92 28.9 159.587 28.68 160.027 28.24C160.48 27.8133 160.707 27.1733 160.707 26.32V24.52H160.887C160.687 25.2 160.267 25.7467 159.627 26.16C159 26.56 158.287 26.76 157.487 26.76C156.607 26.76 155.84 26.56 155.187 26.16C154.533 25.7467 154.027 25.1733 153.667 24.44C153.307 23.7067 153.127 22.8533 153.127 21.88C153.127 21.1467 153.227 20.4867 153.427 19.9C153.64 19.3 153.933 18.7867 154.307 18.36C154.693 17.9333 155.153 17.6067 155.687 17.38C156.233 17.14 156.833 17.02 157.487 17.02C158.313 17.02 159.033 17.2267 159.647 17.64C160.273 18.04 160.68 18.5733 160.867 19.24L160.667 19.74V18.32C160.667 17.9067 160.773 17.5933 160.987 17.38C161.213 17.1667 161.52 17.06 161.907 17.06C162.307 17.06 162.613 17.1667 162.827 17.38C163.04 17.5933 163.147 17.9067 163.147 18.32V26.02C163.147 27.6067 162.727 28.8 161.887 29.6C161.047 30.4 159.827 30.8 158.227 30.8ZM158.167 24.86C158.687 24.86 159.133 24.74 159.507 24.5C159.88 24.26 160.167 23.92 160.367 23.48C160.58 23.0267 160.687 22.4933 160.687 21.88C160.687 20.96 160.46 20.24 160.007 19.72C159.553 19.1867 158.94 18.92 158.167 18.92C157.647 18.92 157.2 19.04 156.827 19.28C156.453 19.52 156.16 19.86 155.947 20.3C155.747 20.74 155.647 21.2667 155.647 21.88C155.647 22.8 155.873 23.5267 156.327 24.06C156.78 24.5933 157.393 24.86 158.167 24.86ZM173.037 27.2C172.064 27.2 171.204 27.0733 170.457 26.82C169.724 26.5667 169.104 26.1933 168.597 25.7C168.09 25.1933 167.71 24.5667 167.457 23.82C167.204 23.0733 167.077 22.2067 167.077 21.22V14.04C167.077 13.6 167.184 13.2733 167.397 13.06C167.624 12.8467 167.944 12.74 168.357 12.74C168.77 12.74 169.084 12.8467 169.297 13.06C169.524 13.2733 169.637 13.6 169.637 14.04V21.2C169.637 22.4667 169.924 23.42 170.497 24.06C171.084 24.6867 171.93 25 173.037 25C174.144 25 174.984 24.6867 175.557 24.06C176.13 23.42 176.417 22.4667 176.417 21.2V14.04C176.417 13.6 176.524 13.2733 176.737 13.06C176.964 12.8467 177.284 12.74 177.697 12.74C178.097 12.74 178.404 12.8467 178.617 13.06C178.844 13.2733 178.957 13.6 178.957 14.04V21.22C178.957 22.5267 178.73 23.6267 178.277 24.52C177.837 25.4133 177.177 26.0867 176.297 26.54C175.417 26.98 174.33 27.2 173.037 27.2ZM183.185 27.16C182.865 27.16 182.605 27.0867 182.405 26.94C182.218 26.7933 182.105 26.6 182.065 26.36C182.025 26.1067 182.072 25.8267 182.205 25.52L187.485 13.82C187.658 13.4333 187.865 13.16 188.105 13C188.358 12.8267 188.645 12.74 188.965 12.74C189.272 12.74 189.545 12.8267 189.785 13C190.038 13.16 190.252 13.4333 190.425 13.82L195.725 25.52C195.872 25.8267 195.925 26.1067 195.885 26.36C195.845 26.6133 195.732 26.8133 195.545 26.96C195.358 27.0933 195.112 27.16 194.805 27.16C194.432 27.16 194.138 27.0733 193.925 26.9C193.725 26.7133 193.545 26.4333 193.385 26.06L192.085 23.04L193.165 23.74H184.725L185.805 23.04L184.525 26.06C184.352 26.4467 184.172 26.7267 183.985 26.9C183.798 27.0733 183.532 27.16 183.185 27.16ZM188.925 15.68L186.125 22.34L185.605 21.7H192.285L191.785 22.34L188.965 15.68H188.925Z" fill="#393939"/>
<path d="M97.1209 48C96.9156 48 96.7569 47.9487 96.6449 47.846C96.5423 47.734 96.4909 47.5753 96.4909 47.37V38.76C96.4909 38.5547 96.5423 38.4007 96.6449 38.298C96.7569 38.186 96.9156 38.13 97.1209 38.13H100.439C101.12 38.13 101.694 38.2327 102.161 38.438C102.637 38.634 103.001 38.9233 103.253 39.306C103.505 39.6887 103.631 40.1553 103.631 40.706C103.631 41.322 103.449 41.8353 103.085 42.246C102.73 42.6567 102.245 42.9273 101.629 43.058V42.862C102.329 42.946 102.875 43.198 103.267 43.618C103.668 44.038 103.869 44.5933 103.869 45.284C103.869 46.1613 103.584 46.8333 103.015 47.3C102.446 47.7667 101.643 48 100.607 48H97.1209ZM97.6109 47.076H100.495C101.242 47.076 101.802 46.9267 102.175 46.628C102.548 46.3293 102.735 45.8767 102.735 45.27C102.735 44.654 102.548 44.2013 102.175 43.912C101.802 43.6133 101.242 43.464 100.495 43.464H97.6109V47.076ZM97.6109 42.54H100.271C100.999 42.54 101.55 42.3907 101.923 42.092C102.306 41.7933 102.497 41.364 102.497 40.804C102.497 40.2253 102.306 39.7913 101.923 39.502C101.55 39.2033 100.999 39.054 100.271 39.054H97.6109V42.54ZM107.828 48.07C107.641 48.07 107.501 48.0187 107.408 47.916C107.315 47.804 107.268 47.65 107.268 47.454V41.728C107.268 41.532 107.315 41.3827 107.408 41.28C107.501 41.1773 107.641 41.126 107.828 41.126C108.005 41.126 108.145 41.1773 108.248 41.28C108.351 41.3827 108.402 41.532 108.402 41.728V47.454C108.402 47.65 108.351 47.804 108.248 47.916C108.155 48.0187 108.015 48.07 107.828 48.07ZM107.828 39.558C107.595 39.558 107.413 39.4973 107.282 39.376C107.151 39.2453 107.086 39.0727 107.086 38.858C107.086 38.634 107.151 38.466 107.282 38.354C107.413 38.2327 107.595 38.172 107.828 38.172C108.071 38.172 108.253 38.2327 108.374 38.354C108.505 38.466 108.57 38.634 108.57 38.858C108.57 39.0727 108.505 39.2453 108.374 39.376C108.253 39.4973 108.071 39.558 107.828 39.558ZM111.793 49.918C111.634 49.918 111.513 49.8713 111.429 49.778C111.345 49.6847 111.303 49.554 111.303 49.386V47.65C111.303 47.2767 111.489 47.09 111.863 47.09H112.535L111.863 47.328C112.115 46.992 112.315 46.628 112.465 46.236C112.623 45.8347 112.74 45.3867 112.815 44.892C112.889 44.3973 112.927 43.8327 112.927 43.198V41.84C112.927 41.6253 112.983 41.4667 113.095 41.364C113.207 41.252 113.365 41.196 113.571 41.196H117.099C117.313 41.196 117.472 41.252 117.575 41.364C117.687 41.4667 117.743 41.6253 117.743 41.84V47.608L117.225 47.09H118.261C118.438 47.09 118.573 47.1367 118.667 47.23C118.769 47.3233 118.821 47.4633 118.821 47.65V49.386C118.821 49.7407 118.657 49.918 118.331 49.918C118.172 49.918 118.051 49.8713 117.967 49.778C117.883 49.6847 117.841 49.554 117.841 49.386V48H112.269V49.386C112.269 49.7407 112.11 49.918 111.793 49.918ZM113.109 47.09H116.665V42.092H113.935V43.394C113.935 44.094 113.865 44.7707 113.725 45.424C113.585 46.068 113.379 46.6233 113.109 47.09ZM131.961 48.098C131.784 48.098 131.644 48.0467 131.541 47.944C131.448 47.8413 131.401 47.6967 131.401 47.51V42.106H128.657V42.974C128.657 43.702 128.62 44.346 128.545 44.906C128.48 45.4567 128.372 45.9327 128.223 46.334C128.074 46.7353 127.873 47.0713 127.621 47.342C127.378 47.6127 127.075 47.8413 126.711 48.028C126.59 48.084 126.473 48.098 126.361 48.07C126.249 48.0513 126.156 48.0093 126.081 47.944C126.016 47.8693 125.969 47.7807 125.941 47.678C125.922 47.5753 125.936 47.4727 125.983 47.37C126.03 47.2673 126.114 47.1833 126.235 47.118C126.506 46.9687 126.725 46.782 126.893 46.558C127.07 46.334 127.21 46.054 127.313 45.718C127.416 45.382 127.486 44.99 127.523 44.542C127.57 44.0847 127.593 43.548 127.593 42.932V41.84C127.593 41.6253 127.649 41.4667 127.761 41.364C127.873 41.252 128.032 41.196 128.237 41.196H131.891C132.096 41.196 132.255 41.252 132.367 41.364C132.479 41.4667 132.535 41.6253 132.535 41.84V47.51C132.535 47.6967 132.484 47.8413 132.381 47.944C132.288 48.0467 132.148 48.098 131.961 48.098ZM141.862 48.126C141.246 48.126 140.705 48 140.238 47.748C139.771 47.4867 139.403 47.118 139.132 46.642C138.861 46.1567 138.698 45.592 138.642 44.948H137.298V47.51C137.298 47.6967 137.251 47.8413 137.158 47.944C137.074 48.0467 136.934 48.098 136.738 48.098C136.561 48.098 136.421 48.0467 136.318 47.944C136.225 47.8413 136.178 47.6967 136.178 47.51V41.672C136.178 41.4853 136.225 41.3453 136.318 41.252C136.421 41.1493 136.561 41.098 136.738 41.098C136.925 41.098 137.065 41.1493 137.158 41.252C137.251 41.3453 137.298 41.4853 137.298 41.672V44.024H138.656C138.731 43.408 138.908 42.8807 139.188 42.442C139.468 41.994 139.832 41.6533 140.28 41.42C140.737 41.1867 141.265 41.07 141.862 41.07C142.525 41.07 143.099 41.2147 143.584 41.504C144.069 41.7933 144.443 42.204 144.704 42.736C144.975 43.2587 145.11 43.8793 145.11 44.598C145.11 45.1393 145.035 45.6247 144.886 46.054C144.737 46.4833 144.517 46.8567 144.228 47.174C143.939 47.482 143.593 47.72 143.192 47.888C142.8 48.0467 142.357 48.126 141.862 48.126ZM141.862 47.216C142.291 47.216 142.66 47.1133 142.968 46.908C143.285 46.7027 143.528 46.404 143.696 46.012C143.873 45.62 143.962 45.1487 143.962 44.598C143.962 43.7487 143.771 43.1 143.388 42.652C143.015 42.204 142.506 41.98 141.862 41.98C141.442 41.98 141.073 42.0827 140.756 42.288C140.439 42.484 140.191 42.778 140.014 43.17C139.846 43.5527 139.762 44.0287 139.762 44.598C139.762 45.438 139.953 46.0867 140.336 46.544C140.719 46.992 141.227 47.216 141.862 47.216ZM148.086 49.918C147.927 49.918 147.806 49.8713 147.722 49.778C147.638 49.6847 147.596 49.554 147.596 49.386V47.65C147.596 47.2767 147.783 47.09 148.156 47.09H148.828L148.156 47.328C148.408 46.992 148.609 46.628 148.758 46.236C148.917 45.8347 149.033 45.3867 149.108 44.892C149.183 44.3973 149.22 43.8327 149.22 43.198V41.84C149.22 41.6253 149.276 41.4667 149.388 41.364C149.5 41.252 149.659 41.196 149.864 41.196H153.392C153.607 41.196 153.765 41.252 153.868 41.364C153.98 41.4667 154.036 41.6253 154.036 41.84V47.608L153.518 47.09H154.554C154.731 47.09 154.867 47.1367 154.96 47.23C155.063 47.3233 155.114 47.4633 155.114 47.65V49.386C155.114 49.7407 154.951 49.918 154.624 49.918C154.465 49.918 154.344 49.8713 154.26 49.778C154.176 49.6847 154.134 49.554 154.134 49.386V48H148.562V49.386C148.562 49.7407 148.403 49.918 148.086 49.918ZM149.402 47.09H152.958V42.092H150.228V43.394C150.228 44.094 150.158 44.7707 150.018 45.424C149.878 46.068 149.673 46.6233 149.402 47.09ZM161.103 48.126C160.384 48.126 159.764 47.986 159.241 47.706C158.728 47.4167 158.326 47.0107 158.037 46.488C157.757 45.9653 157.617 45.34 157.617 44.612C157.617 43.9027 157.757 43.2867 158.037 42.764C158.317 42.232 158.7 41.8167 159.185 41.518C159.68 41.2193 160.249 41.07 160.893 41.07C161.35 41.07 161.761 41.1493 162.125 41.308C162.489 41.4573 162.797 41.6767 163.049 41.966C163.31 42.2553 163.506 42.6053 163.637 43.016C163.777 43.4267 163.847 43.8887 163.847 44.402C163.847 44.5513 163.805 44.6633 163.721 44.738C163.637 44.8033 163.516 44.836 163.357 44.836H158.485V44.094H163.091L162.867 44.276C162.867 43.772 162.792 43.3473 162.643 43.002C162.494 42.6473 162.274 42.3767 161.985 42.19C161.705 42.0033 161.35 41.91 160.921 41.91C160.445 41.91 160.039 42.022 159.703 42.246C159.376 42.4607 159.129 42.764 158.961 43.156C158.793 43.5387 158.709 43.9867 158.709 44.5V44.584C158.709 45.4427 158.914 46.096 159.325 46.544C159.745 46.992 160.338 47.216 161.103 47.216C161.42 47.216 161.733 47.174 162.041 47.09C162.358 47.006 162.666 46.866 162.965 46.67C163.096 46.586 163.212 46.5487 163.315 46.558C163.427 46.558 163.516 46.5907 163.581 46.656C163.646 46.712 163.688 46.7867 163.707 46.88C163.735 46.964 163.726 47.0573 163.679 47.16C163.642 47.2627 163.562 47.3513 163.441 47.426C163.133 47.65 162.769 47.8227 162.349 47.944C161.929 48.0653 161.514 48.126 161.103 48.126ZM167.529 48.098C167.426 48.098 167.333 48.0747 167.249 48.028C167.174 47.9907 167.114 47.9253 167.067 47.832C167.03 47.7387 167.011 47.622 167.011 47.482V41.658C167.011 41.4713 167.058 41.3313 167.151 41.238C167.244 41.1447 167.37 41.098 167.529 41.098C167.697 41.098 167.823 41.1447 167.907 41.238C168 41.3313 168.047 41.4713 168.047 41.658V46.922H167.697L171.771 41.462C171.846 41.3593 171.934 41.2753 172.037 41.21C172.14 41.1353 172.27 41.098 172.429 41.098C172.541 41.098 172.634 41.1167 172.709 41.154C172.784 41.1913 172.84 41.2567 172.877 41.35C172.924 41.434 172.947 41.5507 172.947 41.7V47.538C172.947 47.7153 172.9 47.8553 172.807 47.958C172.723 48.0513 172.597 48.098 172.429 48.098C172.261 48.098 172.13 48.0513 172.037 47.958C171.953 47.8553 171.911 47.7153 171.911 47.538V42.26H172.261L168.173 47.734C168.108 47.8273 168.024 47.9113 167.921 47.986C167.828 48.0607 167.697 48.098 167.529 48.098ZM169.979 40.314C169.484 40.314 169.027 40.188 168.607 39.936C168.196 39.684 167.888 39.3013 167.683 38.788C167.636 38.648 167.632 38.536 167.669 38.452C167.706 38.3587 167.776 38.2933 167.879 38.256C167.982 38.2187 168.075 38.2233 168.159 38.27C168.243 38.3073 168.313 38.3913 168.369 38.522C168.537 38.8767 168.752 39.1473 169.013 39.334C169.284 39.5113 169.606 39.6 169.979 39.6C170.362 39.6 170.684 39.5113 170.945 39.334C171.206 39.1473 171.421 38.8767 171.589 38.522C171.654 38.3913 171.729 38.3073 171.813 38.27C171.897 38.2233 171.986 38.2187 172.079 38.256C172.191 38.2933 172.261 38.3587 172.289 38.452C172.326 38.536 172.317 38.648 172.261 38.788C172.046 39.3013 171.734 39.684 171.323 39.936C170.922 40.188 170.474 40.314 169.979 40.314ZM181.344 49.918C181.185 49.918 181.064 49.8713 180.98 49.778C180.896 49.6847 180.854 49.554 180.854 49.386V47.65C180.854 47.2767 181.041 47.09 181.414 47.09H182.086L181.414 47.328C181.666 46.992 181.867 46.628 182.016 46.236C182.175 45.8347 182.291 45.3867 182.366 44.892C182.441 44.3973 182.478 43.8327 182.478 43.198V41.84C182.478 41.6253 182.534 41.4667 182.646 41.364C182.758 41.252 182.917 41.196 183.122 41.196H186.65C186.865 41.196 187.023 41.252 187.126 41.364C187.238 41.4667 187.294 41.6253 187.294 41.84V47.608L186.776 47.09H187.812C187.989 47.09 188.125 47.1367 188.218 47.23C188.321 47.3233 188.372 47.4633 188.372 47.65V49.386C188.372 49.7407 188.209 49.918 187.882 49.918C187.723 49.918 187.602 49.8713 187.518 49.778C187.434 49.6847 187.392 49.554 187.392 49.386V48H181.82V49.386C181.82 49.7407 181.661 49.918 181.344 49.918ZM182.66 47.09H186.216V42.092H183.486V43.394C183.486 44.094 183.416 44.7707 183.276 45.424C183.136 46.068 182.931 46.6233 182.66 47.09ZM196.503 48.098C196.326 48.098 196.186 48.0467 196.083 47.944C195.99 47.8413 195.943 47.6967 195.943 47.51V42.106H193.199V42.974C193.199 43.702 193.162 44.346 193.087 44.906C193.022 45.4567 192.915 45.9327 192.765 46.334C192.616 46.7353 192.415 47.0713 192.163 47.342C191.921 47.6127 191.617 47.8413 191.253 48.028C191.132 48.084 191.015 48.098 190.903 48.07C190.791 48.0513 190.698 48.0093 190.623 47.944C190.558 47.8693 190.511 47.7807 190.483 47.678C190.465 47.5753 190.479 47.4727 190.525 47.37C190.572 47.2673 190.656 47.1833 190.777 47.118C191.048 46.9687 191.267 46.782 191.435 46.558C191.613 46.334 191.753 46.054 191.855 45.718C191.958 45.382 192.028 44.99 192.065 44.542C192.112 44.0847 192.135 43.548 192.135 42.932V41.84C192.135 41.6253 192.191 41.4667 192.303 41.364C192.415 41.252 192.574 41.196 192.779 41.196H196.433C196.639 41.196 196.797 41.252 196.909 41.364C197.021 41.4667 197.077 41.6253 197.077 41.84V47.51C197.077 47.6967 197.026 47.8413 196.923 47.944C196.83 48.0467 196.69 48.098 196.503 48.098ZM205.494 48.098C205.317 48.098 205.182 48.0513 205.088 47.958C204.995 47.8553 204.948 47.72 204.948 47.552V45.41H203.954C203.59 45.41 203.278 45.5033 203.016 45.69C202.755 45.8767 202.545 46.1053 202.386 46.376L201.588 47.776C201.504 47.916 201.406 48.0093 201.294 48.056C201.182 48.1027 201.07 48.112 200.958 48.084C200.846 48.056 200.748 48 200.664 47.916C200.58 47.832 200.529 47.734 200.51 47.622C200.492 47.5007 200.52 47.3747 200.594 47.244L201.266 46.11C201.425 45.83 201.635 45.5967 201.896 45.41C202.158 45.2233 202.424 45.13 202.694 45.13H202.876V45.256C202.111 45.256 201.518 45.0787 201.098 44.724C200.678 44.3693 200.468 43.8747 200.468 43.24C200.468 42.82 200.557 42.4607 200.734 42.162C200.921 41.854 201.201 41.616 201.574 41.448C201.948 41.28 202.41 41.196 202.96 41.196H205.424C205.62 41.196 205.77 41.2473 205.872 41.35C205.975 41.4527 206.026 41.5973 206.026 41.784V47.552C206.026 47.72 205.975 47.8553 205.872 47.958C205.779 48.0513 205.653 48.098 205.494 48.098ZM203.17 44.584H204.948V41.994H203.17C202.62 41.994 202.214 42.1107 201.952 42.344C201.691 42.568 201.56 42.8807 201.56 43.282C201.56 43.6927 201.691 44.0147 201.952 44.248C202.214 44.472 202.62 44.584 203.17 44.584ZM219.899 48.098C219.721 48.098 219.581 48.0467 219.479 47.944C219.385 47.8413 219.339 47.6967 219.339 47.51V42.106H216.595V42.974C216.595 43.702 216.557 44.346 216.483 44.906C216.417 45.4567 216.31 45.9327 216.161 46.334C216.011 46.7353 215.811 47.0713 215.559 47.342C215.316 47.6127 215.013 47.8413 214.649 48.028C214.527 48.084 214.411 48.098 214.299 48.07C214.187 48.0513 214.093 48.0093 214.019 47.944C213.953 47.8693 213.907 47.7807 213.879 47.678C213.86 47.5753 213.874 47.4727 213.921 47.37C213.967 47.2673 214.051 47.1833 214.173 47.118C214.443 46.9687 214.663 46.782 214.831 46.558C215.008 46.334 215.148 46.054 215.251 45.718C215.353 45.382 215.423 44.99 215.461 44.542C215.507 44.0847 215.531 43.548 215.531 42.932V41.84C215.531 41.6253 215.587 41.4667 215.699 41.364C215.811 41.252 215.969 41.196 216.175 41.196H219.829C220.034 41.196 220.193 41.252 220.305 41.364C220.417 41.4667 220.473 41.6253 220.473 41.84V47.51C220.473 47.6967 220.421 47.8413 220.319 47.944C220.225 48.0467 220.085 48.098 219.899 48.098ZM229.8 48.126C229.184 48.126 228.642 48 228.176 47.748C227.709 47.4867 227.34 47.118 227.07 46.642C226.799 46.1567 226.636 45.592 226.58 44.948H225.236V47.51C225.236 47.6967 225.189 47.8413 225.096 47.944C225.012 48.0467 224.872 48.098 224.676 48.098C224.498 48.098 224.358 48.0467 224.256 47.944C224.162 47.8413 224.116 47.6967 224.116 47.51V41.672C224.116 41.4853 224.162 41.3453 224.256 41.252C224.358 41.1493 224.498 41.098 224.676 41.098C224.862 41.098 225.002 41.1493 225.096 41.252C225.189 41.3453 225.236 41.4853 225.236 41.672V44.024H226.594C226.668 43.408 226.846 42.8807 227.126 42.442C227.406 41.994 227.77 41.6533 228.218 41.42C228.675 41.1867 229.202 41.07 229.8 41.07C230.462 41.07 231.036 41.2147 231.522 41.504C232.007 41.7933 232.38 42.204 232.642 42.736C232.912 43.2587 233.048 43.8793 233.048 44.598C233.048 45.1393 232.973 45.6247 232.824 46.054C232.674 46.4833 232.455 46.8567 232.166 47.174C231.876 47.482 231.531 47.72 231.13 47.888C230.738 48.0467 230.294 48.126 229.8 48.126ZM229.8 47.216C230.229 47.216 230.598 47.1133 230.906 46.908C231.223 46.7027 231.466 46.404 231.634 46.012C231.811 45.62 231.9 45.1487 231.9 44.598C231.9 43.7487 231.708 43.1 231.326 42.652C230.952 42.204 230.444 41.98 229.8 41.98C229.38 41.98 229.011 42.0827 228.694 42.288C228.376 42.484 228.129 42.778 227.952 43.17C227.784 43.5527 227.7 44.0287 227.7 44.598C227.7 45.438 227.891 46.0867 228.274 46.544C228.656 46.992 229.165 47.216 229.8 47.216ZM236.023 49.918C235.865 49.918 235.743 49.8713 235.659 49.778C235.575 49.6847 235.533 49.554 235.533 49.386V47.65C235.533 47.2767 235.72 47.09 236.093 47.09H236.765L236.093 47.328C236.345 46.992 236.546 46.628 236.695 46.236C236.854 45.8347 236.971 45.3867 237.045 44.892C237.12 44.3973 237.157 43.8327 237.157 43.198V41.84C237.157 41.6253 237.213 41.4667 237.325 41.364C237.437 41.252 237.596 41.196 237.801 41.196H241.329C241.544 41.196 241.703 41.252 241.805 41.364C241.917 41.4667 241.973 41.6253 241.973 41.84V47.608L241.455 47.09H242.491C242.669 47.09 242.804 47.1367 242.897 47.23C243 47.3233 243.051 47.4633 243.051 47.65V49.386C243.051 49.7407 242.888 49.918 242.561 49.918C242.403 49.918 242.281 49.8713 242.197 49.778C242.113 49.6847 242.071 49.554 242.071 49.386V48H236.499V49.386C236.499 49.7407 236.341 49.918 236.023 49.918ZM237.339 47.09H240.895V42.092H238.165V43.394C238.165 44.094 238.095 44.7707 237.955 45.424C237.815 46.068 237.61 46.6233 237.339 47.09ZM249.041 48.126C248.322 48.126 247.701 47.986 247.179 47.706C246.665 47.4167 246.264 47.0107 245.975 46.488C245.695 45.9653 245.555 45.34 245.555 44.612C245.555 43.9027 245.695 43.2867 245.975 42.764C246.255 42.232 246.637 41.8167 247.123 41.518C247.617 41.2193 248.187 41.07 248.831 41.07C249.288 41.07 249.699 41.1493 250.063 41.308C250.427 41.4573 250.735 41.6767 250.987 41.966C251.248 42.2553 251.444 42.6053 251.575 43.016C251.715 43.4267 251.785 43.8887 251.785 44.402C251.785 44.5513 251.743 44.6633 251.659 44.738C251.575 44.8033 251.453 44.836 251.295 44.836H246.423V44.094H251.029L250.805 44.276C250.805 43.772 250.73 43.3473 250.581 43.002C250.431 42.6473 250.212 42.3767 249.923 42.19C249.643 42.0033 249.288 41.91 248.859 41.91C248.383 41.91 247.977 42.022 247.641 42.246C247.314 42.4607 247.067 42.764 246.899 43.156C246.731 43.5387 246.647 43.9867 246.647 44.5V44.584C246.647 45.4427 246.852 46.096 247.263 46.544C247.683 46.992 248.275 47.216 249.041 47.216C249.358 47.216 249.671 47.174 249.979 47.09C250.296 47.006 250.604 46.866 250.903 46.67C251.033 46.586 251.15 46.5487 251.253 46.558C251.365 46.558 251.453 46.5907 251.519 46.656C251.584 46.712 251.626 46.7867 251.645 46.88C251.673 46.964 251.663 47.0573 251.617 47.16C251.579 47.2627 251.5 47.3513 251.379 47.426C251.071 47.65 250.707 47.8227 250.287 47.944C249.867 48.0653 249.451 48.126 249.041 48.126ZM255.466 48.098C255.364 48.098 255.27 48.0747 255.186 48.028C255.112 47.9907 255.051 47.9253 255.004 47.832C254.967 47.7387 254.948 47.622 254.948 47.482V41.658C254.948 41.4713 254.995 41.3313 255.088 41.238C255.182 41.1447 255.308 41.098 255.466 41.098C255.634 41.098 255.76 41.1447 255.844 41.238C255.938 41.3313 255.984 41.4713 255.984 41.658V46.922H255.634L259.708 41.462C259.783 41.3593 259.872 41.2753 259.974 41.21C260.077 41.1353 260.208 41.098 260.366 41.098C260.478 41.098 260.572 41.1167 260.646 41.154C260.721 41.1913 260.777 41.2567 260.814 41.35C260.861 41.434 260.884 41.5507 260.884 41.7V47.538C260.884 47.7153 260.838 47.8553 260.744 47.958C260.66 48.0513 260.534 48.098 260.366 48.098C260.198 48.098 260.068 48.0513 259.974 47.958C259.89 47.8553 259.848 47.7153 259.848 47.538V42.26H260.198L256.11 47.734C256.045 47.8273 255.961 47.9113 255.858 47.986C255.765 48.0607 255.634 48.098 255.466 48.098ZM257.916 40.314C257.422 40.314 256.964 40.188 256.544 39.936C256.134 39.684 255.826 39.3013 255.62 38.788C255.574 38.648 255.569 38.536 255.606 38.452C255.644 38.3587 255.714 38.2933 255.816 38.256C255.919 38.2187 256.012 38.2233 256.096 38.27C256.18 38.3073 256.25 38.3913 256.306 38.522C256.474 38.8767 256.689 39.1473 256.95 39.334C257.221 39.5113 257.543 39.6 257.916 39.6C258.299 39.6 258.621 39.5113 258.882 39.334C259.144 39.1473 259.358 38.8767 259.526 38.522C259.592 38.3913 259.666 38.3073 259.75 38.27C259.834 38.2233 259.923 38.2187 260.016 38.256C260.128 38.2933 260.198 38.3587 260.226 38.452C260.264 38.536 260.254 38.648 260.198 38.788C259.984 39.3013 259.671 39.684 259.26 39.936C258.859 40.188 258.411 40.314 257.916 40.314Z" fill="#393939"/>
</svg>
