<svg width="215" height="47" viewBox="0 0 215 47" fill="none" xmlns="http://www.w3.org/2000/svg">
<path d="M24.116 28.154C23.5093 28.154 22.9447 28.098 22.422 27.986C21.9087 27.874 21.4373 27.7107 21.008 27.496C20.7467 27.3747 20.56 27.2113 20.448 27.006C20.3453 26.8007 20.3033 26.5953 20.322 26.39C20.3407 26.1847 20.4153 26.0027 20.546 25.844C20.6767 25.6853 20.8493 25.578 21.064 25.522C21.2787 25.466 21.5213 25.4987 21.792 25.62C21.9973 25.7133 22.212 25.7927 22.436 25.858C22.66 25.9233 22.8933 25.97 23.136 25.998C23.388 26.026 23.6353 26.04 23.878 26.04C24.3073 26.04 24.6573 26.0027 24.928 25.928C25.1987 25.844 25.3993 25.718 25.53 25.55C25.6607 25.382 25.726 25.172 25.726 24.92C25.726 24.6027 25.614 24.3693 25.39 24.22C25.1753 24.0613 24.83 23.982 24.354 23.982H22.884C22.548 23.982 22.2913 23.898 22.114 23.73C21.9367 23.562 21.848 23.3147 21.848 22.988C21.848 22.6707 21.9367 22.428 22.114 22.26C22.2913 22.092 22.548 22.008 22.884 22.008H24.088C24.564 22.008 24.9093 21.9333 25.124 21.784C25.3387 21.6347 25.446 21.4013 25.446 21.084C25.446 20.888 25.3947 20.7153 25.292 20.566C25.1893 20.4073 25.026 20.2907 24.802 20.216C24.578 20.132 24.284 20.09 23.92 20.09C23.612 20.09 23.2947 20.1227 22.968 20.188C22.6413 20.244 22.338 20.3327 22.058 20.454C21.778 20.5753 21.5307 20.6127 21.316 20.566C21.1013 20.51 20.9287 20.4027 20.798 20.244C20.6673 20.076 20.588 19.8893 20.56 19.684C20.532 19.4693 20.5693 19.264 20.672 19.068C20.784 18.872 20.966 18.718 21.218 18.606C21.6567 18.3913 22.128 18.2327 22.632 18.13C23.1453 18.0273 23.682 17.976 24.242 17.976C25.0727 17.976 25.7633 18.0927 26.314 18.326C26.874 18.5593 27.2893 18.8813 27.56 19.292C27.8307 19.7027 27.966 20.1647 27.966 20.678C27.966 21.2567 27.798 21.7513 27.462 22.162C27.1353 22.5727 26.6873 22.8527 26.118 23.002V22.778C26.79 22.8993 27.308 23.17 27.672 23.59C28.036 24.01 28.218 24.5467 28.218 25.2C28.218 25.7693 28.0687 26.278 27.77 26.726C27.4807 27.174 27.0327 27.524 26.426 27.776C25.8193 28.028 25.0493 28.154 24.116 28.154ZM31.6923 28.126C31.403 28.126 31.1603 28.0607 30.9643 27.93C30.7683 27.79 30.647 27.6033 30.6003 27.37C30.5536 27.1273 30.5956 26.8567 30.7263 26.558L34.2123 19.054C34.3803 18.69 34.5856 18.424 34.8283 18.256C35.0803 18.088 35.365 18.004 35.6823 18.004C35.9996 18.004 36.275 18.088 36.5083 18.256C36.751 18.424 36.961 18.69 37.1383 19.054L40.6243 26.558C40.7736 26.8567 40.825 27.1273 40.7783 27.37C40.741 27.6127 40.6243 27.7993 40.4283 27.93C40.2416 28.0607 40.0083 28.126 39.7283 28.126C39.355 28.126 39.0656 28.042 38.8603 27.874C38.6643 27.706 38.487 27.4353 38.3283 27.062L37.5723 25.284L38.5523 25.998H32.7843L33.7783 25.284L33.0223 27.062C32.8543 27.4353 32.6816 27.706 32.5043 27.874C32.327 28.042 32.0563 28.126 31.6923 28.126ZM35.6543 20.818L34.0303 24.696L33.6383 24.024H37.7123L37.3203 24.696L35.6823 20.818H35.6543ZM44.876 28.126C44.4654 28.126 44.148 28.014 43.924 27.79C43.7 27.5567 43.588 27.23 43.588 26.81V19.46C43.588 19.0307 43.7 18.704 43.924 18.48C44.1574 18.2467 44.4934 18.13 44.932 18.13H51.358C51.7967 18.13 52.128 18.2467 52.352 18.48C52.5854 18.704 52.702 19.0307 52.702 19.46V26.81C52.702 27.23 52.59 27.5567 52.366 27.79C52.1514 28.014 51.834 28.126 51.414 28.126C51.0034 28.126 50.686 28.014 50.462 27.79C50.238 27.5567 50.126 27.23 50.126 26.81V20.23H46.164V26.81C46.164 27.23 46.0567 27.5567 45.842 27.79C45.6274 28.014 45.3054 28.126 44.876 28.126ZM60.9382 28.154C59.9395 28.154 59.0622 27.944 58.3062 27.524C57.5502 27.0947 56.9622 26.4973 56.5422 25.732C56.1315 24.9667 55.9262 24.0753 55.9262 23.058C55.9262 22.2927 56.0429 21.5973 56.2762 20.972C56.5189 20.3467 56.8595 19.81 57.2982 19.362C57.7462 18.914 58.2782 18.5733 58.8942 18.34C59.5102 18.0973 60.1915 17.976 60.9382 17.976C61.9369 17.976 62.8095 18.186 63.5562 18.606C64.3122 19.026 64.9002 19.6187 65.3202 20.384C65.7402 21.14 65.9502 22.0313 65.9502 23.058C65.9502 23.8233 65.8289 24.5187 65.5862 25.144C65.3529 25.7693 65.0122 26.3107 64.5642 26.768C64.1255 27.216 63.5982 27.5613 62.9822 27.804C62.3662 28.0373 61.6849 28.154 60.9382 28.154ZM60.9382 25.998C61.4329 25.998 61.8529 25.8813 62.1982 25.648C62.5435 25.4147 62.8095 25.0787 62.9962 24.64C63.1829 24.2013 63.2762 23.674 63.2762 23.058C63.2762 22.134 63.0709 21.4153 62.6602 20.902C62.2495 20.3887 61.6755 20.132 60.9382 20.132C60.4529 20.132 60.0329 20.2487 59.6782 20.482C59.3329 20.706 59.0669 21.0373 58.8802 21.476C58.6935 21.9053 58.6002 22.4327 58.6002 23.058C58.6002 23.982 58.8055 24.7053 59.2162 25.228C59.6269 25.7413 60.2009 25.998 60.9382 25.998ZM70.4952 28C70.0565 28 69.7205 27.888 69.4872 27.664C69.2632 27.4307 69.1512 27.0993 69.1512 26.67V19.46C69.1512 19.0307 69.2632 18.704 69.4872 18.48C69.7205 18.2467 70.0565 18.13 70.4952 18.13H73.9112C74.6205 18.13 75.2225 18.2373 75.7172 18.452C76.2212 18.6573 76.6038 18.9513 76.8652 19.334C77.1265 19.7167 77.2572 20.1647 77.2572 20.678C77.2572 21.2567 77.0892 21.7513 76.7532 22.162C76.4265 22.5727 75.9785 22.8527 75.4092 23.002V22.778C76.0812 22.8993 76.5992 23.17 76.9632 23.59C77.3365 24.01 77.5232 24.5467 77.5232 25.2C77.5232 26.068 77.2105 26.754 76.5852 27.258C75.9692 27.7527 75.1245 28 74.0512 28H70.4952ZM71.6152 26.11H73.7012C74.1772 26.11 74.5225 26.0213 74.7372 25.844C74.9612 25.6573 75.0732 25.382 75.0732 25.018C75.0732 24.654 74.9612 24.3833 74.7372 24.206C74.5225 24.0287 74.1772 23.94 73.7012 23.94H71.6152V26.11ZM71.6152 22.05H73.4492C73.9158 22.05 74.2565 21.966 74.4712 21.798C74.6952 21.63 74.8072 21.3733 74.8072 21.028C74.8072 20.6827 74.6952 20.4307 74.4712 20.272C74.2565 20.104 73.9158 20.02 73.4492 20.02H71.6152V22.05ZM81.9492 28.126C81.5386 28.126 81.2212 28.014 80.9972 27.79C80.7732 27.5567 80.6612 27.23 80.6612 26.81V19.32C80.6612 18.8907 80.7732 18.564 80.9972 18.34C81.2212 18.116 81.5386 18.004 81.9492 18.004C82.3692 18.004 82.6866 18.116 82.9012 18.34C83.1252 18.564 83.2372 18.8907 83.2372 19.32V21.938H87.3112V19.32C87.3112 18.8907 87.4186 18.564 87.6332 18.34C87.8572 18.116 88.1792 18.004 88.5992 18.004C89.0099 18.004 89.3226 18.116 89.5372 18.34C89.7612 18.564 89.8732 18.8907 89.8732 19.32V26.81C89.8732 27.23 89.7612 27.5567 89.5372 27.79C89.3226 28.014 89.0099 28.126 88.5992 28.126C88.1792 28.126 87.8572 28.014 87.6332 27.79C87.4186 27.5567 87.3112 27.23 87.3112 26.81V24.052H83.2372V26.81C83.2372 27.23 83.1299 27.5567 82.9152 27.79C82.7006 28.014 82.3786 28.126 81.9492 28.126ZM94.4671 28.126C94.2991 28.126 94.1451 28.098 94.0051 28.042C93.8651 27.986 93.7438 27.9067 93.6411 27.804C93.5478 27.692 93.4731 27.5567 93.4171 27.398C93.3704 27.2393 93.3471 27.0573 93.3471 26.852V19.208C93.3471 18.816 93.4498 18.5173 93.6551 18.312C93.8604 18.1067 94.1591 18.004 94.5511 18.004C94.9431 18.004 95.2371 18.1067 95.4331 18.312C95.6384 18.5173 95.7411 18.816 95.7411 19.208V24.276H95.3491L99.7871 18.732C99.9924 18.4707 100.184 18.284 100.361 18.172C100.548 18.06 100.8 18.004 101.117 18.004C101.332 18.004 101.514 18.0507 101.663 18.144C101.822 18.2373 101.943 18.3727 102.027 18.55C102.111 18.718 102.153 18.9187 102.153 19.152V26.908C102.153 27.3093 102.05 27.6127 101.845 27.818C101.649 28.0233 101.355 28.126 100.963 28.126C100.571 28.126 100.272 28.0233 100.067 27.818C99.8711 27.6127 99.7731 27.3093 99.7731 26.908V21.84H100.151L95.7271 27.398C95.5218 27.65 95.3304 27.8367 95.1531 27.958C94.9851 28.07 94.7564 28.126 94.4671 28.126ZM109.248 28.126C108.838 28.126 108.52 28.014 108.296 27.79C108.072 27.5567 107.96 27.2347 107.96 26.824V20.23H105.762C105.417 20.23 105.151 20.1413 104.964 19.964C104.787 19.7773 104.698 19.516 104.698 19.18C104.698 18.8347 104.787 18.5733 104.964 18.396C105.151 18.2187 105.417 18.13 105.762 18.13H112.734C113.08 18.13 113.341 18.2187 113.518 18.396C113.705 18.5733 113.798 18.8347 113.798 19.18C113.798 19.516 113.705 19.7773 113.518 19.964C113.341 20.1413 113.08 20.23 112.734 20.23H110.536V26.824C110.536 27.2347 110.429 27.5567 110.214 27.79C110 28.014 109.678 28.126 109.248 28.126ZM117.446 28.126C117.278 28.126 117.124 28.098 116.984 28.042C116.844 27.986 116.723 27.9067 116.62 27.804C116.527 27.692 116.452 27.5567 116.396 27.398C116.35 27.2393 116.326 27.0573 116.326 26.852V19.208C116.326 18.816 116.429 18.5173 116.634 18.312C116.84 18.1067 117.138 18.004 117.53 18.004C117.922 18.004 118.216 18.1067 118.412 18.312C118.618 18.5173 118.72 18.816 118.72 19.208V24.276H118.328L122.766 18.732C122.972 18.4707 123.163 18.284 123.34 18.172C123.527 18.06 123.779 18.004 124.096 18.004C124.311 18.004 124.493 18.0507 124.642 18.144C124.801 18.2373 124.922 18.3727 125.006 18.55C125.09 18.718 125.132 18.9187 125.132 19.152V26.908C125.132 27.3093 125.03 27.6127 124.824 27.818C124.628 28.0233 124.334 28.126 123.942 28.126C123.55 28.126 123.252 28.0233 123.046 27.818C122.85 27.6127 122.752 27.3093 122.752 26.908V21.84H123.13L118.706 27.398C118.501 27.65 118.31 27.8367 118.132 27.958C117.964 28.07 117.736 28.126 117.446 28.126ZM134.763 28.126C134.474 28.126 134.231 28.0607 134.035 27.93C133.839 27.79 133.718 27.6033 133.671 27.37C133.625 27.1273 133.667 26.8567 133.797 26.558L137.283 19.054C137.451 18.69 137.657 18.424 137.899 18.256C138.151 18.088 138.436 18.004 138.753 18.004C139.071 18.004 139.346 18.088 139.579 18.256C139.822 18.424 140.032 18.69 140.209 19.054L143.695 26.558C143.845 26.8567 143.896 27.1273 143.849 27.37C143.812 27.6127 143.695 27.7993 143.499 27.93C143.313 28.0607 143.079 28.126 142.799 28.126C142.426 28.126 142.137 28.042 141.931 27.874C141.735 27.706 141.558 27.4353 141.399 27.062L140.643 25.284L141.623 25.998H135.855L136.849 25.284L136.093 27.062C135.925 27.4353 135.753 27.706 135.575 27.874C135.398 28.042 135.127 28.126 134.763 28.126ZM138.725 20.818L137.101 24.696L136.709 24.024H140.783L140.391 24.696L138.753 20.818H138.725ZM147.947 28.126C147.537 28.126 147.219 28.014 146.995 27.79C146.771 27.5567 146.659 27.23 146.659 26.81V19.32C146.659 18.8907 146.771 18.564 146.995 18.34C147.219 18.116 147.537 18.004 147.947 18.004C148.367 18.004 148.685 18.116 148.899 18.34C149.123 18.564 149.235 18.8907 149.235 19.32V21.938H153.309V19.32C153.309 18.8907 153.417 18.564 153.631 18.34C153.855 18.116 154.177 18.004 154.597 18.004C155.008 18.004 155.321 18.116 155.535 18.34C155.759 18.564 155.871 18.8907 155.871 19.32V26.81C155.871 27.23 155.759 27.5567 155.535 27.79C155.321 28.014 155.008 28.126 154.597 28.126C154.177 28.126 153.855 28.014 153.631 27.79C153.417 27.5567 153.309 27.23 153.309 26.81V24.052H149.235V26.81C149.235 27.23 149.128 27.5567 148.913 27.79C148.699 28.014 148.377 28.126 147.947 28.126ZM160.633 28.126C160.222 28.126 159.905 28.014 159.681 27.79C159.457 27.5567 159.345 27.2347 159.345 26.824V19.306C159.345 18.8767 159.457 18.5547 159.681 18.34C159.905 18.116 160.222 18.004 160.633 18.004C161.053 18.004 161.37 18.116 161.585 18.34C161.809 18.5547 161.921 18.8767 161.921 19.306V22.078H163.111L162.747 22.33L164.931 18.662C165.108 18.3727 165.318 18.1813 165.561 18.088C165.804 17.9853 166.042 17.962 166.275 18.018C166.518 18.074 166.723 18.1907 166.891 18.368C167.068 18.536 167.171 18.7507 167.199 19.012C167.227 19.264 167.148 19.5393 166.961 19.838L165.043 22.862L164.007 22.176C164.66 22.2973 165.202 22.5307 165.631 22.876C166.07 23.2213 166.452 23.7253 166.779 24.388L167.717 26.306C167.885 26.6513 167.936 26.9547 167.871 27.216C167.815 27.4773 167.684 27.6873 167.479 27.846C167.274 28.0047 167.04 28.098 166.779 28.126C166.518 28.154 166.266 28.1027 166.023 27.972C165.78 27.8413 165.589 27.6267 165.449 27.328L164.497 25.228C164.32 24.8453 164.1 24.5747 163.839 24.416C163.578 24.2573 163.242 24.178 162.831 24.178H161.921V26.824C161.921 27.2347 161.814 27.5567 161.599 27.79C161.384 28.014 161.062 28.126 160.633 28.126ZM172.391 28C171.952 28 171.616 27.888 171.383 27.664C171.159 27.4307 171.047 27.0993 171.047 26.67V19.46C171.047 19.0307 171.159 18.704 171.383 18.48C171.616 18.2467 171.952 18.13 172.391 18.13H177.137C177.473 18.13 177.725 18.214 177.893 18.382C178.061 18.55 178.145 18.7927 178.145 19.11C178.145 19.4367 178.061 19.6887 177.893 19.866C177.725 20.034 177.473 20.118 177.137 20.118H173.511V21.994H176.829C177.155 21.994 177.403 22.078 177.571 22.246C177.748 22.414 177.837 22.6613 177.837 22.988C177.837 23.3147 177.748 23.562 177.571 23.73C177.403 23.898 177.155 23.982 176.829 23.982H173.511V26.012H177.137C177.473 26.012 177.725 26.1007 177.893 26.278C178.061 26.446 178.145 26.6887 178.145 27.006C178.145 27.3327 178.061 27.58 177.893 27.748C177.725 27.916 177.473 28 177.137 28H172.391ZM185.007 28.126C184.596 28.126 184.279 28.014 184.055 27.79C183.831 27.5567 183.719 27.2347 183.719 26.824V20.23H181.521C181.175 20.23 180.909 20.1413 180.723 19.964C180.545 19.7773 180.457 19.516 180.457 19.18C180.457 18.8347 180.545 18.5733 180.723 18.396C180.909 18.2187 181.175 18.13 181.521 18.13H188.493C188.838 18.13 189.099 18.2187 189.277 18.396C189.463 18.5733 189.557 18.8347 189.557 19.18C189.557 19.516 189.463 19.7773 189.277 19.964C189.099 20.1413 188.838 20.23 188.493 20.23H186.295V26.824C186.295 27.2347 186.187 27.5567 185.973 27.79C185.758 28.014 185.436 28.126 185.007 28.126ZM195.192 28.126C194.894 28.126 194.642 28.0513 194.436 27.902C194.231 27.7527 194.105 27.552 194.058 27.3C194.012 27.0387 194.068 26.7447 194.226 26.418L195.136 24.598V25.312L191.706 19.656C191.538 19.376 191.473 19.11 191.51 18.858C191.548 18.5967 191.669 18.3913 191.874 18.242C192.089 18.0833 192.36 18.004 192.686 18.004C193.022 18.004 193.274 18.088 193.442 18.256C193.62 18.4147 193.792 18.6433 193.96 18.942L196.382 23.03H195.962L198.006 18.956C198.128 18.7133 198.277 18.494 198.454 18.298C198.641 18.102 198.921 18.004 199.294 18.004C199.593 18.004 199.845 18.0787 200.05 18.228C200.265 18.368 200.396 18.5687 200.442 18.83C200.498 19.082 200.438 19.376 200.26 19.712L196.494 27.174C196.382 27.4073 196.228 27.6267 196.032 27.832C195.846 28.028 195.566 28.126 195.192 28.126Z" fill="white"/>
<rect x="1.5" y="1.5" width="212" height="44" rx="22" stroke="white" stroke-width="3"/>
</svg>
