<svg width="449" height="47" viewBox="0 0 449 47" fill="none" xmlns="http://www.w3.org/2000/svg">
<rect width="202" height="47" rx="23.5" fill="#4169E1"/>
<path d="M32.116 28.154C31.5093 28.154 30.9447 28.098 30.422 27.986C29.9087 27.874 29.4373 27.7107 29.008 27.496C28.7467 27.3747 28.56 27.2113 28.448 27.006C28.3453 26.8007 28.3033 26.5953 28.322 26.39C28.3407 26.1847 28.4153 26.0027 28.546 25.844C28.6767 25.6853 28.8493 25.578 29.064 25.522C29.2787 25.466 29.5213 25.4987 29.792 25.62C29.9973 25.7133 30.212 25.7927 30.436 25.858C30.66 25.9233 30.8933 25.97 31.136 25.998C31.388 26.026 31.6353 26.04 31.878 26.04C32.3073 26.04 32.6573 26.0027 32.928 25.928C33.1987 25.844 33.3993 25.718 33.53 25.55C33.6607 25.382 33.726 25.172 33.726 24.92C33.726 24.6027 33.614 24.3693 33.39 24.22C33.1753 24.0613 32.83 23.982 32.354 23.982H30.884C30.548 23.982 30.2913 23.898 30.114 23.73C29.9367 23.562 29.848 23.3147 29.848 22.988C29.848 22.6707 29.9367 22.428 30.114 22.26C30.2913 22.092 30.548 22.008 30.884 22.008H32.088C32.564 22.008 32.9093 21.9333 33.124 21.784C33.3387 21.6347 33.446 21.4013 33.446 21.084C33.446 20.888 33.3947 20.7153 33.292 20.566C33.1893 20.4073 33.026 20.2907 32.802 20.216C32.578 20.132 32.284 20.09 31.92 20.09C31.612 20.09 31.2947 20.1227 30.968 20.188C30.6413 20.244 30.338 20.3327 30.058 20.454C29.778 20.5753 29.5307 20.6127 29.316 20.566C29.1013 20.51 28.9287 20.4027 28.798 20.244C28.6673 20.076 28.588 19.8893 28.56 19.684C28.532 19.4693 28.5693 19.264 28.672 19.068C28.784 18.872 28.966 18.718 29.218 18.606C29.6567 18.3913 30.128 18.2327 30.632 18.13C31.1453 18.0273 31.682 17.976 32.242 17.976C33.0727 17.976 33.7633 18.0927 34.314 18.326C34.874 18.5593 35.2893 18.8813 35.56 19.292C35.8307 19.7027 35.966 20.1647 35.966 20.678C35.966 21.2567 35.798 21.7513 35.462 22.162C35.1353 22.5727 34.6873 22.8527 34.118 23.002V22.778C34.79 22.8993 35.308 23.17 35.672 23.59C36.036 24.01 36.218 24.5467 36.218 25.2C36.218 25.7693 36.0687 26.278 35.77 26.726C35.4807 27.174 35.0327 27.524 34.426 27.776C33.8193 28.028 33.0493 28.154 32.116 28.154ZM40.655 28.126C40.2443 28.126 39.927 28.014 39.703 27.79C39.479 27.5567 39.367 27.2347 39.367 26.824V19.432C39.367 19.012 39.479 18.69 39.703 18.466C39.9363 18.242 40.2583 18.13 40.669 18.13H44.113C45.233 18.13 46.0963 18.4193 46.703 18.998C47.319 19.5673 47.627 20.356 47.627 21.364C47.627 22.372 47.319 23.1653 46.703 23.744C46.0963 24.3133 45.233 24.598 44.113 24.598H41.943V26.824C41.943 27.2347 41.8357 27.5567 41.621 27.79C41.4063 28.014 41.0843 28.126 40.655 28.126ZM41.943 22.624H43.665C44.1503 22.624 44.5237 22.5213 44.785 22.316C45.0463 22.1013 45.177 21.784 45.177 21.364C45.177 20.9347 45.0463 20.6173 44.785 20.412C44.5237 20.2067 44.1503 20.104 43.665 20.104H41.943V22.624ZM55.1312 28.154C54.1326 28.154 53.2552 27.944 52.4992 27.524C51.7432 27.0947 51.1552 26.4973 50.7352 25.732C50.3246 24.9667 50.1192 24.0753 50.1192 23.058C50.1192 22.2927 50.2359 21.5973 50.4692 20.972C50.7119 20.3467 51.0526 19.81 51.4912 19.362C51.9392 18.914 52.4712 18.5733 53.0872 18.34C53.7032 18.0973 54.3846 17.976 55.1312 17.976C56.1299 17.976 57.0026 18.186 57.7492 18.606C58.5052 19.026 59.0932 19.6187 59.5132 20.384C59.9332 21.14 60.1432 22.0313 60.1432 23.058C60.1432 23.8233 60.0219 24.5187 59.7792 25.144C59.5459 25.7693 59.2052 26.3107 58.7572 26.768C58.3186 27.216 57.7912 27.5613 57.1752 27.804C56.5592 28.0373 55.8779 28.154 55.1312 28.154ZM55.1312 25.998C55.6259 25.998 56.0459 25.8813 56.3912 25.648C56.7366 25.4147 57.0026 25.0787 57.1892 24.64C57.3759 24.2013 57.4692 23.674 57.4692 23.058C57.4692 22.134 57.2639 21.4153 56.8532 20.902C56.4426 20.3887 55.8686 20.132 55.1312 20.132C54.6459 20.132 54.2259 20.2487 53.8712 20.482C53.5259 20.706 53.2599 21.0373 53.0732 21.476C52.8866 21.9053 52.7932 22.4327 52.7932 23.058C52.7932 23.982 52.9986 24.7053 53.4092 25.228C53.8199 25.7413 54.3939 25.998 55.1312 25.998ZM64.6882 28C64.2495 28 63.9135 27.888 63.6802 27.664C63.4562 27.4307 63.3442 27.0993 63.3442 26.67V19.46C63.3442 19.0307 63.4562 18.704 63.6802 18.48C63.9135 18.2467 64.2495 18.13 64.6882 18.13H69.8262C70.1529 18.13 70.4002 18.214 70.5682 18.382C70.7455 18.55 70.8342 18.7927 70.8342 19.11C70.8342 19.4367 70.7455 19.6887 70.5682 19.866C70.4002 20.034 70.1529 20.118 69.8262 20.118H65.8082V21.966H68.2442C69.3175 21.966 70.1622 22.2273 70.7782 22.75C71.4035 23.2633 71.7162 24.0053 71.7162 24.976C71.7162 25.9467 71.4035 26.6933 70.7782 27.216C70.1622 27.7387 69.3175 28 68.2442 28H64.6882ZM65.8082 26.054H67.8942C68.3702 26.054 68.7155 25.9653 68.9302 25.788C69.1542 25.6107 69.2662 25.34 69.2662 24.976C69.2662 24.612 69.1542 24.346 68.9302 24.178C68.7155 24.0007 68.3702 23.912 67.8942 23.912H65.8082V26.054ZM75.7829 28.126C75.6149 28.126 75.4609 28.098 75.3209 28.042C75.1809 27.986 75.0595 27.9067 74.9569 27.804C74.8635 27.692 74.7889 27.5567 74.7329 27.398C74.6862 27.2393 74.6629 27.0573 74.6629 26.852V19.208C74.6629 18.816 74.7655 18.5173 74.9709 18.312C75.1762 18.1067 75.4749 18.004 75.8669 18.004C76.2589 18.004 76.5529 18.1067 76.7489 18.312C76.9542 18.5173 77.0569 18.816 77.0569 19.208V24.276H76.6649L81.1029 18.732C81.3082 18.4707 81.4995 18.284 81.6769 18.172C81.8635 18.06 82.1155 18.004 82.4329 18.004C82.6475 18.004 82.8295 18.0507 82.9789 18.144C83.1375 18.2373 83.2589 18.3727 83.3429 18.55C83.4269 18.718 83.4689 18.9187 83.4689 19.152V26.908C83.4689 27.3093 83.3662 27.6127 83.1609 27.818C82.9649 28.0233 82.6709 28.126 82.2789 28.126C81.8869 28.126 81.5882 28.0233 81.3829 27.818C81.1869 27.6127 81.0889 27.3093 81.0889 26.908V21.84H81.4669L77.0429 27.398C76.8375 27.65 76.6462 27.8367 76.4689 27.958C76.3009 28.07 76.0722 28.126 75.7829 28.126ZM90.5643 28.126C90.1536 28.126 89.8363 28.014 89.6123 27.79C89.3883 27.5567 89.2763 27.2347 89.2763 26.824V20.23H87.0783C86.7329 20.23 86.4669 20.1413 86.2803 19.964C86.1029 19.7773 86.0143 19.516 86.0143 19.18C86.0143 18.8347 86.1029 18.5733 86.2803 18.396C86.4669 18.2187 86.7329 18.13 87.0783 18.13H94.0503C94.3956 18.13 94.6569 18.2187 94.8343 18.396C95.0209 18.5733 95.1143 18.8347 95.1143 19.18C95.1143 19.516 95.0209 19.7773 94.8343 19.964C94.6569 20.1413 94.3956 20.23 94.0503 20.23H91.8523V26.824C91.8523 27.2347 91.7449 27.5567 91.5303 27.79C91.3156 28.014 90.9936 28.126 90.5643 28.126ZM98.762 28.126C98.594 28.126 98.44 28.098 98.3 28.042C98.16 27.986 98.0387 27.9067 97.936 27.804C97.8427 27.692 97.768 27.5567 97.712 27.398C97.6654 27.2393 97.642 27.0573 97.642 26.852V19.208C97.642 18.816 97.7447 18.5173 97.95 18.312C98.1554 18.1067 98.454 18.004 98.846 18.004C99.238 18.004 99.532 18.1067 99.728 18.312C99.9334 18.5173 100.036 18.816 100.036 19.208V24.276H99.644L104.082 18.732C104.287 18.4707 104.479 18.284 104.656 18.172C104.843 18.06 105.095 18.004 105.412 18.004C105.627 18.004 105.809 18.0507 105.958 18.144C106.117 18.2373 106.238 18.3727 106.322 18.55C106.406 18.718 106.448 18.9187 106.448 19.152V26.908C106.448 27.3093 106.345 27.6127 106.14 27.818C105.944 28.0233 105.65 28.126 105.258 28.126C104.866 28.126 104.567 28.0233 104.362 27.818C104.166 27.6127 104.068 27.3093 104.068 26.908V21.84H104.446L100.022 27.398C99.8167 27.65 99.6254 27.8367 99.448 27.958C99.28 28.07 99.0514 28.126 98.762 28.126ZM115.995 30.576C115.631 30.576 115.351 30.478 115.155 30.282C114.969 30.086 114.875 29.806 114.875 29.442V27.146C114.875 26.39 115.258 26.012 116.023 26.012H116.849L115.505 26.376C116.028 25.9373 116.415 25.2513 116.667 24.318C116.919 23.3753 117.045 22.1853 117.045 20.748V19.46C117.045 19.0307 117.157 18.704 117.381 18.48C117.615 18.2467 117.946 18.13 118.375 18.13H123.205C123.644 18.13 123.975 18.2467 124.199 18.48C124.433 18.704 124.549 19.0307 124.549 19.46V26.936L123.611 26.012H124.801C125.175 26.012 125.459 26.11 125.655 26.306C125.851 26.4927 125.949 26.7727 125.949 27.146V29.442C125.949 30.198 125.581 30.576 124.843 30.576C124.479 30.576 124.199 30.478 124.003 30.282C123.817 30.086 123.723 29.806 123.723 29.442V28H117.101V29.442C117.101 30.198 116.733 30.576 115.995 30.576ZM118.417 26.012H121.973V20.118H119.411V21.028C119.411 22.176 119.327 23.1607 119.159 23.982C118.991 24.794 118.744 25.4707 118.417 26.012ZM133.596 28.154C132.598 28.154 131.72 27.944 130.964 27.524C130.208 27.0947 129.62 26.4973 129.2 25.732C128.79 24.9667 128.584 24.0753 128.584 23.058C128.584 22.2927 128.701 21.5973 128.934 20.972C129.177 20.3467 129.518 19.81 129.956 19.362C130.404 18.914 130.936 18.5733 131.552 18.34C132.168 18.0973 132.85 17.976 133.596 17.976C134.595 17.976 135.468 18.186 136.214 18.606C136.97 19.026 137.558 19.6187 137.978 20.384C138.398 21.14 138.608 22.0313 138.608 23.058C138.608 23.8233 138.487 24.5187 138.244 25.144C138.011 25.7693 137.67 26.3107 137.222 26.768C136.784 27.216 136.256 27.5613 135.64 27.804C135.024 28.0373 134.343 28.154 133.596 28.154ZM133.596 25.998C134.091 25.998 134.511 25.8813 134.856 25.648C135.202 25.4147 135.468 25.0787 135.654 24.64C135.841 24.2013 135.934 23.674 135.934 23.058C135.934 22.134 135.729 21.4153 135.318 20.902C134.908 20.3887 134.334 20.132 133.596 20.132C133.111 20.132 132.691 20.2487 132.336 20.482C131.991 20.706 131.725 21.0373 131.538 21.476C131.352 21.9053 131.258 22.4327 131.258 23.058C131.258 23.982 131.464 24.7053 131.874 25.228C132.285 25.7413 132.859 25.998 133.596 25.998ZM143.097 28.126C142.687 28.126 142.369 28.014 142.145 27.79C141.921 27.5567 141.809 27.23 141.809 26.81V19.32C141.809 18.8907 141.921 18.564 142.145 18.34C142.369 18.116 142.687 18.004 143.097 18.004C143.517 18.004 143.835 18.116 144.049 18.34C144.273 18.564 144.385 18.8907 144.385 19.32V21.938H148.459V19.32C148.459 18.8907 148.567 18.564 148.781 18.34C149.005 18.116 149.327 18.004 149.747 18.004C150.158 18.004 150.471 18.116 150.685 18.34C150.909 18.564 151.021 18.8907 151.021 19.32V26.81C151.021 27.23 150.909 27.5567 150.685 27.79C150.471 28.014 150.158 28.126 149.747 28.126C149.327 28.126 149.005 28.014 148.781 27.79C148.567 27.5567 148.459 27.23 148.459 26.81V24.052H144.385V26.81C144.385 27.23 144.278 27.5567 144.063 27.79C143.849 28.014 143.527 28.126 143.097 28.126ZM154.957 28.126C154.668 28.126 154.425 28.0607 154.229 27.93C154.033 27.79 153.912 27.6033 153.865 27.37C153.818 27.1273 153.86 26.8567 153.991 26.558L157.477 19.054C157.645 18.69 157.85 18.424 158.093 18.256C158.345 18.088 158.63 18.004 158.947 18.004C159.264 18.004 159.54 18.088 159.773 18.256C160.016 18.424 160.226 18.69 160.403 19.054L163.889 26.558C164.038 26.8567 164.09 27.1273 164.043 27.37C164.006 27.6127 163.889 27.7993 163.693 27.93C163.506 28.0607 163.273 28.126 162.993 28.126C162.62 28.126 162.33 28.042 162.125 27.874C161.929 27.706 161.752 27.4353 161.593 27.062L160.837 25.284L161.817 25.998H156.049L157.043 25.284L156.287 27.062C156.119 27.4353 155.946 27.706 155.769 27.874C155.592 28.042 155.321 28.126 154.957 28.126ZM158.919 20.818L157.295 24.696L156.903 24.024H160.977L160.585 24.696L158.947 20.818H158.919ZM169.234 28.126C168.824 28.126 168.506 28.014 168.282 27.79C168.058 27.5567 167.946 27.2347 167.946 26.824V20.23H165.748C165.403 20.23 165.137 20.1413 164.95 19.964C164.773 19.7773 164.684 19.516 164.684 19.18C164.684 18.8347 164.773 18.5733 164.95 18.396C165.137 18.2187 165.403 18.13 165.748 18.13H172.72C173.066 18.13 173.327 18.2187 173.504 18.396C173.691 18.5733 173.784 18.8347 173.784 19.18C173.784 19.516 173.691 19.7773 173.504 19.964C173.327 20.1413 173.066 20.23 172.72 20.23H170.522V26.824C170.522 27.2347 170.415 27.5567 170.2 27.79C169.986 28.014 169.664 28.126 169.234 28.126Z" fill="white"/>
<path d="M258.116 28.154C257.509 28.154 256.945 28.098 256.422 27.986C255.909 27.874 255.437 27.7107 255.008 27.496C254.747 27.3747 254.56 27.2113 254.448 27.006C254.345 26.8007 254.303 26.5953 254.322 26.39C254.341 26.1847 254.415 26.0027 254.546 25.844C254.677 25.6853 254.849 25.578 255.064 25.522C255.279 25.466 255.521 25.4987 255.792 25.62C255.997 25.7133 256.212 25.7927 256.436 25.858C256.66 25.9233 256.893 25.97 257.136 25.998C257.388 26.026 257.635 26.04 257.878 26.04C258.307 26.04 258.657 26.0027 258.928 25.928C259.199 25.844 259.399 25.718 259.53 25.55C259.661 25.382 259.726 25.172 259.726 24.92C259.726 24.6027 259.614 24.3693 259.39 24.22C259.175 24.0613 258.83 23.982 258.354 23.982H256.884C256.548 23.982 256.291 23.898 256.114 23.73C255.937 23.562 255.848 23.3147 255.848 22.988C255.848 22.6707 255.937 22.428 256.114 22.26C256.291 22.092 256.548 22.008 256.884 22.008H258.088C258.564 22.008 258.909 21.9333 259.124 21.784C259.339 21.6347 259.446 21.4013 259.446 21.084C259.446 20.888 259.395 20.7153 259.292 20.566C259.189 20.4073 259.026 20.2907 258.802 20.216C258.578 20.132 258.284 20.09 257.92 20.09C257.612 20.09 257.295 20.1227 256.968 20.188C256.641 20.244 256.338 20.3327 256.058 20.454C255.778 20.5753 255.531 20.6127 255.316 20.566C255.101 20.51 254.929 20.4027 254.798 20.244C254.667 20.076 254.588 19.8893 254.56 19.684C254.532 19.4693 254.569 19.264 254.672 19.068C254.784 18.872 254.966 18.718 255.218 18.606C255.657 18.3913 256.128 18.2327 256.632 18.13C257.145 18.0273 257.682 17.976 258.242 17.976C259.073 17.976 259.763 18.0927 260.314 18.326C260.874 18.5593 261.289 18.8813 261.56 19.292C261.831 19.7027 261.966 20.1647 261.966 20.678C261.966 21.2567 261.798 21.7513 261.462 22.162C261.135 22.5727 260.687 22.8527 260.118 23.002V22.778C260.79 22.8993 261.308 23.17 261.672 23.59C262.036 24.01 262.218 24.5467 262.218 25.2C262.218 25.7693 262.069 26.278 261.77 26.726C261.481 27.174 261.033 27.524 260.426 27.776C259.819 28.028 259.049 28.154 258.116 28.154ZM265.692 28.126C265.403 28.126 265.16 28.0607 264.964 27.93C264.768 27.79 264.647 27.6033 264.6 27.37C264.554 27.1273 264.596 26.8567 264.726 26.558L268.212 19.054C268.38 18.69 268.586 18.424 268.828 18.256C269.08 18.088 269.365 18.004 269.682 18.004C270 18.004 270.275 18.088 270.508 18.256C270.751 18.424 270.961 18.69 271.138 19.054L274.624 26.558C274.774 26.8567 274.825 27.1273 274.778 27.37C274.741 27.6127 274.624 27.7993 274.428 27.93C274.242 28.0607 274.008 28.126 273.728 28.126C273.355 28.126 273.066 28.042 272.86 27.874C272.664 27.706 272.487 27.4353 272.328 27.062L271.572 25.284L272.552 25.998H266.784L267.778 25.284L267.022 27.062C266.854 27.4353 266.682 27.706 266.504 27.874C266.327 28.042 266.056 28.126 265.692 28.126ZM269.654 20.818L268.03 24.696L267.638 24.024H271.712L271.32 24.696L269.682 20.818H269.654ZM278.876 28.126C278.465 28.126 278.148 28.014 277.924 27.79C277.7 27.5567 277.588 27.23 277.588 26.81V19.46C277.588 19.0307 277.7 18.704 277.924 18.48C278.157 18.2467 278.493 18.13 278.932 18.13H285.358C285.797 18.13 286.128 18.2467 286.352 18.48C286.585 18.704 286.702 19.0307 286.702 19.46V26.81C286.702 27.23 286.59 27.5567 286.366 27.79C286.151 28.014 285.834 28.126 285.414 28.126C285.003 28.126 284.686 28.014 284.462 27.79C284.238 27.5567 284.126 27.23 284.126 26.81V20.23H280.164V26.81C280.164 27.23 280.057 27.5567 279.842 27.79C279.627 28.014 279.305 28.126 278.876 28.126ZM294.938 28.154C293.94 28.154 293.062 27.944 292.306 27.524C291.55 27.0947 290.962 26.4973 290.542 25.732C290.132 24.9667 289.926 24.0753 289.926 23.058C289.926 22.2927 290.043 21.5973 290.276 20.972C290.519 20.3467 290.86 19.81 291.298 19.362C291.746 18.914 292.278 18.5733 292.894 18.34C293.51 18.0973 294.192 17.976 294.938 17.976C295.937 17.976 296.81 18.186 297.556 18.606C298.312 19.026 298.9 19.6187 299.32 20.384C299.74 21.14 299.95 22.0313 299.95 23.058C299.95 23.8233 299.829 24.5187 299.586 25.144C299.353 25.7693 299.012 26.3107 298.564 26.768C298.126 27.216 297.598 27.5613 296.982 27.804C296.366 28.0373 295.685 28.154 294.938 28.154ZM294.938 25.998C295.433 25.998 295.853 25.8813 296.198 25.648C296.544 25.4147 296.81 25.0787 296.996 24.64C297.183 24.2013 297.276 23.674 297.276 23.058C297.276 22.134 297.071 21.4153 296.66 20.902C296.25 20.3887 295.676 20.132 294.938 20.132C294.453 20.132 294.033 20.2487 293.678 20.482C293.333 20.706 293.067 21.0373 292.88 21.476C292.694 21.9053 292.6 22.4327 292.6 23.058C292.6 23.982 292.806 24.7053 293.216 25.228C293.627 25.7413 294.201 25.998 294.938 25.998ZM304.495 28C304.056 28 303.72 27.888 303.487 27.664C303.263 27.4307 303.151 27.0993 303.151 26.67V19.46C303.151 19.0307 303.263 18.704 303.487 18.48C303.72 18.2467 304.056 18.13 304.495 18.13H307.911C308.62 18.13 309.222 18.2373 309.717 18.452C310.221 18.6573 310.604 18.9513 310.865 19.334C311.126 19.7167 311.257 20.1647 311.257 20.678C311.257 21.2567 311.089 21.7513 310.753 22.162C310.426 22.5727 309.978 22.8527 309.409 23.002V22.778C310.081 22.8993 310.599 23.17 310.963 23.59C311.336 24.01 311.523 24.5467 311.523 25.2C311.523 26.068 311.21 26.754 310.585 27.258C309.969 27.7527 309.124 28 308.051 28H304.495ZM305.615 26.11H307.701C308.177 26.11 308.522 26.0213 308.737 25.844C308.961 25.6573 309.073 25.382 309.073 25.018C309.073 24.654 308.961 24.3833 308.737 24.206C308.522 24.0287 308.177 23.94 307.701 23.94H305.615V26.11ZM305.615 22.05H307.449C307.916 22.05 308.256 21.966 308.471 21.798C308.695 21.63 308.807 21.3733 308.807 21.028C308.807 20.6827 308.695 20.4307 308.471 20.272C308.256 20.104 307.916 20.02 307.449 20.02H305.615V22.05ZM315.949 28.126C315.539 28.126 315.221 28.014 314.997 27.79C314.773 27.5567 314.661 27.23 314.661 26.81V19.32C314.661 18.8907 314.773 18.564 314.997 18.34C315.221 18.116 315.539 18.004 315.949 18.004C316.369 18.004 316.687 18.116 316.901 18.34C317.125 18.564 317.237 18.8907 317.237 19.32V21.938H321.311V19.32C321.311 18.8907 321.419 18.564 321.633 18.34C321.857 18.116 322.179 18.004 322.599 18.004C323.01 18.004 323.323 18.116 323.537 18.34C323.761 18.564 323.873 18.8907 323.873 19.32V26.81C323.873 27.23 323.761 27.5567 323.537 27.79C323.323 28.014 323.01 28.126 322.599 28.126C322.179 28.126 321.857 28.014 321.633 27.79C321.419 27.5567 321.311 27.23 321.311 26.81V24.052H317.237V26.81C317.237 27.23 317.13 27.5567 316.915 27.79C316.701 28.014 316.379 28.126 315.949 28.126ZM328.467 28.126C328.299 28.126 328.145 28.098 328.005 28.042C327.865 27.986 327.744 27.9067 327.641 27.804C327.548 27.692 327.473 27.5567 327.417 27.398C327.37 27.2393 327.347 27.0573 327.347 26.852V19.208C327.347 18.816 327.45 18.5173 327.655 18.312C327.86 18.1067 328.159 18.004 328.551 18.004C328.943 18.004 329.237 18.1067 329.433 18.312C329.638 18.5173 329.741 18.816 329.741 19.208V24.276H329.349L333.787 18.732C333.992 18.4707 334.184 18.284 334.361 18.172C334.548 18.06 334.8 18.004 335.117 18.004C335.332 18.004 335.514 18.0507 335.663 18.144C335.822 18.2373 335.943 18.3727 336.027 18.55C336.111 18.718 336.153 18.9187 336.153 19.152V26.908C336.153 27.3093 336.05 27.6127 335.845 27.818C335.649 28.0233 335.355 28.126 334.963 28.126C334.571 28.126 334.272 28.0233 334.067 27.818C333.871 27.6127 333.773 27.3093 333.773 26.908V21.84H334.151L329.727 27.398C329.522 27.65 329.33 27.8367 329.153 27.958C328.985 28.07 328.756 28.126 328.467 28.126ZM343.248 28.126C342.838 28.126 342.52 28.014 342.296 27.79C342.072 27.5567 341.96 27.2347 341.96 26.824V20.23H339.762C339.417 20.23 339.151 20.1413 338.964 19.964C338.787 19.7773 338.698 19.516 338.698 19.18C338.698 18.8347 338.787 18.5733 338.964 18.396C339.151 18.2187 339.417 18.13 339.762 18.13H346.734C347.08 18.13 347.341 18.2187 347.518 18.396C347.705 18.5733 347.798 18.8347 347.798 19.18C347.798 19.516 347.705 19.7773 347.518 19.964C347.341 20.1413 347.08 20.23 346.734 20.23H344.536V26.824C344.536 27.2347 344.429 27.5567 344.214 27.79C344 28.014 343.678 28.126 343.248 28.126ZM351.446 28.126C351.278 28.126 351.124 28.098 350.984 28.042C350.844 27.986 350.723 27.9067 350.62 27.804C350.527 27.692 350.452 27.5567 350.396 27.398C350.35 27.2393 350.326 27.0573 350.326 26.852V19.208C350.326 18.816 350.429 18.5173 350.634 18.312C350.84 18.1067 351.138 18.004 351.53 18.004C351.922 18.004 352.216 18.1067 352.412 18.312C352.618 18.5173 352.72 18.816 352.72 19.208V24.276H352.328L356.766 18.732C356.972 18.4707 357.163 18.284 357.34 18.172C357.527 18.06 357.779 18.004 358.096 18.004C358.311 18.004 358.493 18.0507 358.642 18.144C358.801 18.2373 358.922 18.3727 359.006 18.55C359.09 18.718 359.132 18.9187 359.132 19.152V26.908C359.132 27.3093 359.03 27.6127 358.824 27.818C358.628 28.0233 358.334 28.126 357.942 28.126C357.55 28.126 357.252 28.0233 357.046 27.818C356.85 27.6127 356.752 27.3093 356.752 26.908V21.84H357.13L352.706 27.398C352.501 27.65 352.31 27.8367 352.132 27.958C351.964 28.07 351.736 28.126 351.446 28.126ZM368.763 28.126C368.474 28.126 368.231 28.0607 368.035 27.93C367.839 27.79 367.718 27.6033 367.671 27.37C367.625 27.1273 367.667 26.8567 367.797 26.558L371.283 19.054C371.451 18.69 371.657 18.424 371.899 18.256C372.151 18.088 372.436 18.004 372.753 18.004C373.071 18.004 373.346 18.088 373.579 18.256C373.822 18.424 374.032 18.69 374.209 19.054L377.695 26.558C377.845 26.8567 377.896 27.1273 377.849 27.37C377.812 27.6127 377.695 27.7993 377.499 27.93C377.313 28.0607 377.079 28.126 376.799 28.126C376.426 28.126 376.137 28.042 375.931 27.874C375.735 27.706 375.558 27.4353 375.399 27.062L374.643 25.284L375.623 25.998H369.855L370.849 25.284L370.093 27.062C369.925 27.4353 369.753 27.706 369.575 27.874C369.398 28.042 369.127 28.126 368.763 28.126ZM372.725 20.818L371.101 24.696L370.709 24.024H374.783L374.391 24.696L372.753 20.818H372.725ZM381.947 28.126C381.537 28.126 381.219 28.014 380.995 27.79C380.771 27.5567 380.659 27.23 380.659 26.81V19.32C380.659 18.8907 380.771 18.564 380.995 18.34C381.219 18.116 381.537 18.004 381.947 18.004C382.367 18.004 382.685 18.116 382.899 18.34C383.123 18.564 383.235 18.8907 383.235 19.32V21.938H387.309V19.32C387.309 18.8907 387.417 18.564 387.631 18.34C387.855 18.116 388.177 18.004 388.597 18.004C389.008 18.004 389.321 18.116 389.535 18.34C389.759 18.564 389.871 18.8907 389.871 19.32V26.81C389.871 27.23 389.759 27.5567 389.535 27.79C389.321 28.014 389.008 28.126 388.597 28.126C388.177 28.126 387.855 28.014 387.631 27.79C387.417 27.5567 387.309 27.23 387.309 26.81V24.052H383.235V26.81C383.235 27.23 383.128 27.5567 382.913 27.79C382.699 28.014 382.377 28.126 381.947 28.126ZM394.633 28.126C394.222 28.126 393.905 28.014 393.681 27.79C393.457 27.5567 393.345 27.2347 393.345 26.824V19.306C393.345 18.8767 393.457 18.5547 393.681 18.34C393.905 18.116 394.222 18.004 394.633 18.004C395.053 18.004 395.37 18.116 395.585 18.34C395.809 18.5547 395.921 18.8767 395.921 19.306V22.078H397.111L396.747 22.33L398.931 18.662C399.108 18.3727 399.318 18.1813 399.561 18.088C399.804 17.9853 400.042 17.962 400.275 18.018C400.518 18.074 400.723 18.1907 400.891 18.368C401.068 18.536 401.171 18.7507 401.199 19.012C401.227 19.264 401.148 19.5393 400.961 19.838L399.043 22.862L398.007 22.176C398.66 22.2973 399.202 22.5307 399.631 22.876C400.07 23.2213 400.452 23.7253 400.779 24.388L401.717 26.306C401.885 26.6513 401.936 26.9547 401.871 27.216C401.815 27.4773 401.684 27.6873 401.479 27.846C401.274 28.0047 401.04 28.098 400.779 28.126C400.518 28.154 400.266 28.1027 400.023 27.972C399.78 27.8413 399.589 27.6267 399.449 27.328L398.497 25.228C398.32 24.8453 398.1 24.5747 397.839 24.416C397.578 24.2573 397.242 24.178 396.831 24.178H395.921V26.824C395.921 27.2347 395.814 27.5567 395.599 27.79C395.384 28.014 395.062 28.126 394.633 28.126ZM406.391 28C405.952 28 405.616 27.888 405.383 27.664C405.159 27.4307 405.047 27.0993 405.047 26.67V19.46C405.047 19.0307 405.159 18.704 405.383 18.48C405.616 18.2467 405.952 18.13 406.391 18.13H411.137C411.473 18.13 411.725 18.214 411.893 18.382C412.061 18.55 412.145 18.7927 412.145 19.11C412.145 19.4367 412.061 19.6887 411.893 19.866C411.725 20.034 411.473 20.118 411.137 20.118H407.511V21.994H410.829C411.155 21.994 411.403 22.078 411.571 22.246C411.748 22.414 411.837 22.6613 411.837 22.988C411.837 23.3147 411.748 23.562 411.571 23.73C411.403 23.898 411.155 23.982 410.829 23.982H407.511V26.012H411.137C411.473 26.012 411.725 26.1007 411.893 26.278C412.061 26.446 412.145 26.6887 412.145 27.006C412.145 27.3327 412.061 27.58 411.893 27.748C411.725 27.916 411.473 28 411.137 28H406.391ZM419.007 28.126C418.596 28.126 418.279 28.014 418.055 27.79C417.831 27.5567 417.719 27.2347 417.719 26.824V20.23H415.521C415.175 20.23 414.909 20.1413 414.723 19.964C414.545 19.7773 414.457 19.516 414.457 19.18C414.457 18.8347 414.545 18.5733 414.723 18.396C414.909 18.2187 415.175 18.13 415.521 18.13H422.493C422.838 18.13 423.099 18.2187 423.277 18.396C423.463 18.5733 423.557 18.8347 423.557 19.18C423.557 19.516 423.463 19.7773 423.277 19.964C423.099 20.1413 422.838 20.23 422.493 20.23H420.295V26.824C420.295 27.2347 420.187 27.5567 419.973 27.79C419.758 28.014 419.436 28.126 419.007 28.126ZM429.192 28.126C428.894 28.126 428.642 28.0513 428.436 27.902C428.231 27.7527 428.105 27.552 428.058 27.3C428.012 27.0387 428.068 26.7447 428.226 26.418L429.136 24.598V25.312L425.706 19.656C425.538 19.376 425.473 19.11 425.51 18.858C425.548 18.5967 425.669 18.3913 425.874 18.242C426.089 18.0833 426.36 18.004 426.686 18.004C427.022 18.004 427.274 18.088 427.442 18.256C427.62 18.4147 427.792 18.6433 427.96 18.942L430.382 23.03H429.962L432.006 18.956C432.128 18.7133 432.277 18.494 432.454 18.298C432.641 18.102 432.921 18.004 433.294 18.004C433.593 18.004 433.845 18.0787 434.05 18.228C434.265 18.368 434.396 18.5687 434.442 18.83C434.498 19.082 434.438 19.376 434.26 19.712L430.494 27.174C430.382 27.4073 430.228 27.6267 430.032 27.832C429.846 28.028 429.566 28.126 429.192 28.126Z" fill="white"/>
<rect x="235.5" y="1.5" width="212" height="44" rx="22" stroke="white" stroke-width="3"/>
</svg>
