<svg width="192" height="109" viewBox="0 0 192 109" fill="none" xmlns="http://www.w3.org/2000/svg">
<g filter="url(#filter0_d_43_720)">
<rect x="36" y="26" width="120" height="37" rx="18.5" fill="#4169E1"/>
<path d="M65.1719 49.6094V48.2812C66.3438 48.6979 67.6094 48.9062 68.9688 48.9062C70.8906 48.9062 71.8516 48.2031 71.8516 46.7969C71.8516 45.599 71.1432 45 69.7266 45H68.2891C65.9505 45 64.7812 43.9844 64.7812 41.9531C64.7812 39.8177 66.2786 38.75 69.2734 38.75C70.5755 38.75 71.7865 38.9062 72.9062 39.2188V40.5469C71.7865 40.1302 70.5755 39.9219 69.2734 39.9219C67.2422 39.9219 66.2266 40.599 66.2266 41.9531C66.2266 43.151 66.9141 43.75 68.2891 43.75H69.7266C72.1068 43.75 73.2969 44.7656 73.2969 46.7969C73.2969 48.9844 71.8542 50.0781 68.9688 50.0781C67.6094 50.0781 66.3438 49.9219 65.1719 49.6094ZM77.8116 41.7969V50H76.3663V41.7969H77.8116ZM77.8116 38.8281V40.1953H76.3663V38.8281H77.8116ZM86.7638 43.1875C86.269 43.0625 85.657 43 84.9278 43C83.183 43 82.3106 43.9453 82.3106 45.8359C82.3106 47.7786 83.1361 48.75 84.7872 48.75C85.5372 48.75 86.196 48.6094 86.7638 48.3281V43.1875ZM88.2091 50C88.2091 51.9792 86.9513 52.9688 84.4356 52.9688C83.4252 52.9688 82.5294 52.8385 81.7481 52.5781V51.4062C82.545 51.6667 83.446 51.7969 84.4513 51.7969C85.9929 51.7969 86.7638 51.1979 86.7638 50V49.6094C86.1492 49.8698 85.4877 50 84.7794 50C82.1856 50 80.8888 48.6172 80.8888 45.8516C80.8888 43.1484 82.2559 41.7969 84.9903 41.7969C86.0997 41.7969 87.1726 41.9089 88.2091 42.1328V50ZM91.5206 50V41.7969H92.4972L92.755 42.8438C93.5935 42.1458 94.5154 41.7969 95.5206 41.7969C97.5675 41.7969 98.5909 42.8151 98.5909 44.8516V50H97.1456V44.8281C97.1456 43.6094 96.5389 43 95.3253 43C94.4972 43 93.7107 43.3464 92.9659 44.0391V50H91.5206ZM106.847 45.6875V38.8281H108.292V45.6875C108.292 47.8333 109.36 48.9062 111.495 48.9062C113.631 48.9062 114.698 47.8333 114.698 45.6875V38.8281H116.144V45.6875C116.144 48.6146 114.594 50.0781 111.495 50.0781C108.396 50.0781 106.847 48.6146 106.847 45.6875ZM120.971 48.3281C121.539 48.6094 122.171 48.75 122.869 48.75C124.572 48.75 125.424 47.7266 125.424 45.6797C125.424 43.8932 124.578 43 122.885 43C122.156 43 121.518 43.0625 120.971 43.1875V48.3281ZM119.526 42.1328C120.614 41.9089 121.739 41.7969 122.901 41.7969C125.531 41.7969 126.846 43.0964 126.846 45.6953C126.846 48.5651 125.523 50 122.877 50C122.221 50 121.586 49.8698 120.971 49.6094V52.9688H119.526V42.1328Z" fill="white"/>
</g>
<defs>
<filter id="filter0_d_43_720" x="0" y="0" width="192" height="109" filterUnits="userSpaceOnUse" color-interpolation-filters="sRGB">
<feFlood flood-opacity="0" result="BackgroundImageFix"/>
<feColorMatrix in="SourceAlpha" type="matrix" values="0 0 0 0 0 0 0 0 0 0 0 0 0 0 0 0 0 0 127 0" result="hardAlpha"/>
<feOffset dy="10"/>
<feGaussianBlur stdDeviation="18"/>
<feComposite in2="hardAlpha" operator="out"/>
<feColorMatrix type="matrix" values="0 0 0 0 0 0 0 0 0 0 0 0 0 0 0 0 0 0 0.25 0"/>
<feBlend mode="normal" in2="BackgroundImageFix" result="effect1_dropShadow_43_720"/>
<feBlend mode="normal" in="SourceGraphic" in2="effect1_dropShadow_43_720" result="shape"/>
</filter>
</defs>
</svg>
