<svg width="408" height="286" viewBox="0 0 408 286" fill="none" xmlns="http://www.w3.org/2000/svg">
<path d="M8.512 152.28C7.14933 152.28 5.88 152.131 4.704 151.832C3.54667 151.515 2.52933 151.067 1.652 150.488C1.29733 150.264 1.05467 150.003 0.924 149.704C0.812 149.387 0.784 149.088 0.84 148.808C0.914667 148.509 1.05467 148.257 1.26 148.052C1.46533 147.847 1.72667 147.725 2.044 147.688C2.36133 147.651 2.70667 147.744 3.08 147.968C3.56533 148.248 4.07867 148.481 4.62 148.668C5.16133 148.855 5.73067 148.995 6.328 149.088C6.944 149.181 7.57867 149.228 8.232 149.228C9.27733 149.228 10.1267 149.116 10.78 148.892C11.452 148.668 11.9467 148.332 12.264 147.884C12.6 147.436 12.768 146.867 12.768 146.176C12.768 145.243 12.4693 144.552 11.872 144.104C11.2747 143.637 10.3413 143.404 9.072 143.404H5.572C5.08667 143.404 4.71333 143.283 4.452 143.04C4.19067 142.797 4.06 142.443 4.06 141.976C4.06 141.528 4.19067 141.183 4.452 140.94C4.71333 140.697 5.08667 140.576 5.572 140.576H8.596C9.828 140.576 10.7427 140.352 11.34 139.904C11.956 139.456 12.264 138.775 12.264 137.86C12.264 137.281 12.1147 136.777 11.816 136.348C11.536 135.919 11.0973 135.592 10.5 135.368C9.92133 135.125 9.17467 135.004 8.26 135.004C7.45733 135.004 6.64533 135.107 5.824 135.312C5.02133 135.499 4.284 135.779 3.612 136.152C3.22 136.376 2.86533 136.469 2.548 136.432C2.24933 136.376 1.99733 136.245 1.792 136.04C1.60533 135.816 1.484 135.555 1.428 135.256C1.372 134.957 1.40933 134.659 1.54 134.36C1.67067 134.061 1.904 133.809 2.24 133.604C3.136 133.063 4.13467 132.661 5.236 132.4C6.356 132.12 7.49467 131.98 8.652 131.98C10.2573 131.98 11.5827 132.213 12.628 132.68C13.692 133.128 14.4853 133.763 15.008 134.584C15.5493 135.387 15.82 136.32 15.82 137.384C15.82 138.579 15.4653 139.587 14.756 140.408C14.0653 141.229 13.132 141.78 11.956 142.06V141.64C13.3187 141.845 14.3827 142.368 15.148 143.208C15.9133 144.048 16.296 145.14 16.296 146.484C16.296 147.641 16.016 148.659 15.456 149.536C14.896 150.413 14.0373 151.095 12.88 151.58C11.7413 152.047 10.2853 152.28 8.512 152.28ZM24.2974 152.28C23.3081 152.28 22.4214 152.093 21.6374 151.72C20.8721 151.328 20.2654 150.805 19.8174 150.152C19.3881 149.499 19.1734 148.761 19.1734 147.94C19.1734 146.932 19.4348 146.139 19.9574 145.56C20.4801 144.963 21.3294 144.533 22.5054 144.272C23.6814 144.011 25.2588 143.88 27.2374 143.88H28.6374V145.896H27.2654C26.1081 145.896 25.1841 145.952 24.4934 146.064C23.8028 146.176 23.3081 146.372 23.0094 146.652C22.7294 146.913 22.5894 147.287 22.5894 147.772C22.5894 148.388 22.8041 148.892 23.2334 149.284C23.6628 149.676 24.2601 149.872 25.0254 149.872C25.6414 149.872 26.1828 149.732 26.6494 149.452C27.1348 149.153 27.5174 148.752 27.7974 148.248C28.0774 147.744 28.2174 147.165 28.2174 146.512V143.292C28.2174 142.359 28.0121 141.687 27.6014 141.276C27.1908 140.865 26.5001 140.66 25.5294 140.66C24.9881 140.66 24.4001 140.725 23.7654 140.856C23.1494 140.987 22.4961 141.211 21.8054 141.528C21.4508 141.696 21.1334 141.743 20.8534 141.668C20.5921 141.593 20.3868 141.444 20.2374 141.22C20.0881 140.977 20.0134 140.716 20.0134 140.436C20.0134 140.156 20.0881 139.885 20.2374 139.624C20.3868 139.344 20.6388 139.139 20.9934 139.008C21.8521 138.653 22.6734 138.401 23.4574 138.252C24.2601 138.103 24.9881 138.028 25.6414 138.028C26.9854 138.028 28.0868 138.233 28.9454 138.644C29.8228 139.055 30.4761 139.68 30.9054 140.52C31.3348 141.341 31.5494 142.405 31.5494 143.712V150.432C31.5494 151.011 31.4094 151.459 31.1294 151.776C30.8494 152.075 30.4481 152.224 29.9254 152.224C29.4028 152.224 28.9921 152.075 28.6934 151.776C28.4134 151.459 28.2734 151.011 28.2734 150.432V149.088H28.4974C28.3668 149.741 28.1054 150.311 27.7134 150.796C27.3401 151.263 26.8641 151.627 26.2854 151.888C25.7068 152.149 25.0441 152.28 24.2974 152.28ZM37.2208 152.224C36.6608 152.224 36.2221 152.075 35.9048 151.776C35.6061 151.459 35.4568 151.011 35.4568 150.432V140.268C35.4568 139.633 35.6248 139.148 35.9608 138.812C36.2968 138.476 36.7821 138.308 37.4168 138.308H46.4608C47.0954 138.308 47.5808 138.476 47.9168 138.812C48.2528 139.148 48.4208 139.633 48.4208 140.268V150.432C48.4208 151.011 48.2621 151.459 47.9448 151.776C47.6461 152.075 47.2168 152.224 46.6568 152.224C46.0968 152.224 45.6674 152.075 45.3688 151.776C45.0701 151.459 44.9208 151.011 44.9208 150.432V141.052H38.9568V150.432C38.9568 151.011 38.8074 151.459 38.5088 151.776C38.2288 152.075 37.7994 152.224 37.2208 152.224ZM58.6819 152.28C57.2632 152.28 56.0312 151.991 54.9859 151.412C53.9405 150.833 53.1285 150.012 52.5499 148.948C51.9712 147.865 51.6819 146.596 51.6819 145.14C51.6819 144.039 51.8405 143.059 52.1579 142.2C52.4939 141.323 52.9699 140.576 53.5859 139.96C54.2019 139.325 54.9392 138.849 55.7979 138.532C56.6565 138.196 57.6179 138.028 58.6819 138.028C60.1005 138.028 61.3325 138.317 62.3779 138.896C63.4232 139.475 64.2352 140.296 64.8139 141.36C65.3925 142.424 65.6819 143.684 65.6819 145.14C65.6819 146.241 65.5139 147.231 65.1779 148.108C64.8605 148.985 64.3939 149.741 63.7779 150.376C63.1619 150.992 62.4245 151.468 61.5659 151.804C60.7072 152.121 59.7459 152.28 58.6819 152.28ZM58.6819 149.62C59.3725 149.62 59.9792 149.452 60.5019 149.116C61.0245 148.78 61.4259 148.285 61.7059 147.632C62.0045 146.96 62.1539 146.129 62.1539 145.14C62.1539 143.647 61.8365 142.536 61.2019 141.808C60.5672 141.061 59.7272 140.688 58.6819 140.688C57.9912 140.688 57.3845 140.856 56.8619 141.192C56.3392 141.509 55.9285 142.004 55.6299 142.676C55.3499 143.329 55.2099 144.151 55.2099 145.14C55.2099 146.615 55.5272 147.735 56.1619 148.5C56.7965 149.247 57.6365 149.62 58.6819 149.62ZM70.6615 152C70.1015 152 69.6722 151.851 69.3735 151.552C69.0748 151.253 68.9255 150.824 68.9255 150.264V140.044C68.9255 139.484 69.0748 139.055 69.3735 138.756C69.6722 138.457 70.1015 138.308 70.6615 138.308H76.3175C77.4935 138.308 78.4455 138.448 79.1735 138.728C79.9202 139.008 80.4615 139.419 80.7975 139.96C81.1335 140.483 81.3015 141.127 81.3015 141.892C81.3015 142.751 81.0028 143.479 80.4055 144.076C79.8268 144.655 79.0522 145.009 78.0815 145.14V144.748C79.2948 144.823 80.2095 145.168 80.8255 145.784C81.4602 146.4 81.7775 147.193 81.7775 148.164C81.7775 149.34 81.3295 150.273 80.4335 150.964C79.5375 151.655 78.2402 152 76.5415 152H70.6615ZM72.1735 149.844H76.2335C76.9988 149.844 77.5775 149.685 77.9695 149.368C78.3802 149.051 78.5855 148.584 78.5855 147.968C78.5855 147.352 78.3802 146.885 77.9695 146.568C77.5775 146.251 76.9988 146.092 76.2335 146.092H72.1735V149.844ZM72.1735 143.936H75.9815C76.6535 143.936 77.1762 143.787 77.5495 143.488C77.9228 143.171 78.1095 142.732 78.1095 142.172C78.1095 141.612 77.9228 141.192 77.5495 140.912C77.1762 140.613 76.6535 140.464 75.9815 140.464H72.1735V143.936ZM86.6036 152.224C86.0436 152.224 85.6049 152.075 85.2876 151.776C84.9889 151.459 84.8396 151.011 84.8396 150.432V139.848C84.8396 139.251 84.9889 138.812 85.2876 138.532C85.6049 138.233 86.0436 138.084 86.6036 138.084C87.1636 138.084 87.5929 138.233 87.8916 138.532C88.1902 138.812 88.3396 139.251 88.3396 139.848V143.6H94.3876V139.848C94.3876 139.251 94.5369 138.812 94.8356 138.532C95.1342 138.233 95.5636 138.084 96.1236 138.084C96.6836 138.084 97.1129 138.233 97.4116 138.532C97.7289 138.812 97.8876 139.251 97.8876 139.848V150.432C97.8876 151.011 97.7289 151.459 97.4116 151.776C97.1129 152.075 96.6836 152.224 96.1236 152.224C95.5636 152.224 95.1342 152.075 94.8356 151.776C94.5369 151.459 94.3876 151.011 94.3876 150.432V146.344H88.3396V150.432C88.3396 151.011 88.1902 151.459 87.8916 151.776C87.6116 152.075 87.1822 152.224 86.6036 152.224ZM103.499 152.224C103.144 152.224 102.845 152.159 102.603 152.028C102.36 151.897 102.173 151.692 102.043 151.412C101.931 151.132 101.875 150.777 101.875 150.348V139.764C101.875 139.223 102.015 138.812 102.295 138.532C102.575 138.233 102.967 138.084 103.471 138.084C103.975 138.084 104.357 138.233 104.619 138.532C104.899 138.812 105.039 139.223 105.039 139.764V148.416H104.311L111.227 139.204C111.432 138.943 111.684 138.691 111.983 138.448C112.281 138.205 112.692 138.084 113.215 138.084C113.569 138.084 113.859 138.149 114.083 138.28C114.325 138.411 114.503 138.616 114.615 138.896C114.745 139.157 114.811 139.503 114.811 139.932V150.544C114.811 151.067 114.671 151.477 114.391 151.776C114.129 152.075 113.747 152.224 113.243 152.224C112.72 152.224 112.319 152.075 112.039 151.776C111.777 151.477 111.647 151.067 111.647 150.544V141.864H112.403L105.459 151.104C105.272 151.365 105.029 151.617 104.731 151.86C104.451 152.103 104.04 152.224 103.499 152.224ZM130.911 152.28C129.921 152.28 129.035 152.093 128.251 151.72C127.485 151.328 126.879 150.805 126.431 150.152C126.001 149.499 125.787 148.761 125.787 147.94C125.787 146.932 126.048 146.139 126.571 145.56C127.093 144.963 127.943 144.533 129.119 144.272C130.295 144.011 131.872 143.88 133.851 143.88H135.251V145.896H133.879C132.721 145.896 131.797 145.952 131.107 146.064C130.416 146.176 129.921 146.372 129.623 146.652C129.343 146.913 129.203 147.287 129.203 147.772C129.203 148.388 129.417 148.892 129.847 149.284C130.276 149.676 130.873 149.872 131.639 149.872C132.255 149.872 132.796 149.732 133.263 149.452C133.748 149.153 134.131 148.752 134.411 148.248C134.691 147.744 134.831 147.165 134.831 146.512V143.292C134.831 142.359 134.625 141.687 134.215 141.276C133.804 140.865 133.113 140.66 132.143 140.66C131.601 140.66 131.013 140.725 130.379 140.856C129.763 140.987 129.109 141.211 128.419 141.528C128.064 141.696 127.747 141.743 127.467 141.668C127.205 141.593 127 141.444 126.851 141.22C126.701 140.977 126.627 140.716 126.627 140.436C126.627 140.156 126.701 139.885 126.851 139.624C127 139.344 127.252 139.139 127.607 139.008C128.465 138.653 129.287 138.401 130.071 138.252C130.873 138.103 131.601 138.028 132.255 138.028C133.599 138.028 134.7 138.233 135.559 138.644C136.436 139.055 137.089 139.68 137.519 140.52C137.948 141.341 138.163 142.405 138.163 143.712V150.432C138.163 151.011 138.023 151.459 137.743 151.776C137.463 152.075 137.061 152.224 136.539 152.224C136.016 152.224 135.605 152.075 135.307 151.776C135.027 151.459 134.887 151.011 134.887 150.432V149.088H135.111C134.98 149.741 134.719 150.311 134.327 150.796C133.953 151.263 133.477 151.627 132.899 151.888C132.32 152.149 131.657 152.28 130.911 152.28ZM143.834 152.224C143.274 152.224 142.835 152.075 142.518 151.776C142.219 151.459 142.07 151.011 142.07 150.432V139.848C142.07 139.251 142.219 138.812 142.518 138.532C142.835 138.233 143.274 138.084 143.834 138.084C144.394 138.084 144.823 138.233 145.122 138.532C145.421 138.812 145.57 139.251 145.57 139.848V143.6H151.618V139.848C151.618 139.251 151.767 138.812 152.066 138.532C152.365 138.233 152.794 138.084 153.354 138.084C153.914 138.084 154.343 138.233 154.642 138.532C154.959 138.812 155.118 139.251 155.118 139.848V150.432C155.118 151.011 154.959 151.459 154.642 151.776C154.343 152.075 153.914 152.224 153.354 152.224C152.794 152.224 152.365 152.075 152.066 151.776C151.767 151.459 151.618 151.011 151.618 150.432V146.344H145.57V150.432C145.57 151.011 145.421 151.459 145.122 151.776C144.842 152.075 144.413 152.224 143.834 152.224ZM160.869 152.224C160.309 152.224 159.871 152.075 159.553 151.776C159.255 151.459 159.105 151.011 159.105 150.432V139.904C159.105 139.325 159.255 138.887 159.553 138.588C159.871 138.271 160.309 138.112 160.869 138.112C161.429 138.112 161.859 138.271 162.157 138.588C162.456 138.887 162.605 139.325 162.605 139.904V143.628H164.593L168.093 138.924C168.355 138.569 168.653 138.345 168.989 138.252C169.325 138.14 169.643 138.131 169.941 138.224C170.259 138.317 170.511 138.485 170.697 138.728C170.903 138.971 171.005 139.26 171.005 139.596C171.024 139.913 170.903 140.249 170.641 140.604L167.309 145.168L166.553 144.048C167.057 144.104 167.505 144.244 167.897 144.468C168.308 144.692 168.681 145.009 169.017 145.42C169.372 145.812 169.717 146.307 170.053 146.904L171.705 149.844C171.929 150.236 172.004 150.6 171.929 150.936C171.873 151.253 171.715 151.524 171.453 151.748C171.211 151.972 170.921 152.112 170.585 152.168C170.249 152.224 169.913 152.177 169.577 152.028C169.26 151.897 168.989 151.636 168.765 151.244L166.889 147.968C166.647 147.539 166.404 147.212 166.161 146.988C165.937 146.745 165.676 146.577 165.377 146.484C165.097 146.391 164.752 146.344 164.341 146.344H162.605V150.432C162.605 151.011 162.456 151.459 162.157 151.776C161.859 152.075 161.429 152.224 160.869 152.224ZM181.522 152.28C179.972 152.28 178.638 151.991 177.518 151.412C176.398 150.833 175.53 150.012 174.914 148.948C174.316 147.884 174.018 146.624 174.018 145.168C174.018 143.749 174.307 142.508 174.886 141.444C175.483 140.38 176.295 139.549 177.322 138.952C178.367 138.336 179.552 138.028 180.878 138.028C181.848 138.028 182.716 138.187 183.482 138.504C184.266 138.821 184.928 139.279 185.47 139.876C186.03 140.473 186.45 141.201 186.73 142.06C187.028 142.9 187.178 143.852 187.178 144.916C187.178 145.252 187.056 145.513 186.814 145.7C186.59 145.868 186.263 145.952 185.834 145.952H176.846V143.936H184.714L184.266 144.356C184.266 143.497 184.135 142.779 183.874 142.2C183.631 141.621 183.267 141.183 182.782 140.884C182.315 140.567 181.727 140.408 181.018 140.408C180.234 140.408 179.562 140.595 179.002 140.968C178.46 141.323 178.04 141.836 177.742 142.508C177.462 143.161 177.322 143.945 177.322 144.86V145.056C177.322 146.587 177.676 147.735 178.386 148.5C179.114 149.247 180.178 149.62 181.578 149.62C182.063 149.62 182.604 149.564 183.202 149.452C183.818 149.321 184.396 149.107 184.938 148.808C185.33 148.584 185.675 148.491 185.974 148.528C186.272 148.547 186.506 148.649 186.674 148.836C186.86 149.023 186.972 149.256 187.01 149.536C187.047 149.797 186.991 150.068 186.842 150.348C186.711 150.628 186.478 150.871 186.142 151.076C185.488 151.487 184.732 151.795 183.874 152C183.034 152.187 182.25 152.28 181.522 152.28ZM194.952 152.224C194.392 152.224 193.954 152.075 193.636 151.776C193.338 151.459 193.188 151.011 193.188 150.432V141.052H189.772C188.764 141.052 188.26 140.595 188.26 139.68C188.26 139.251 188.391 138.915 188.652 138.672C188.932 138.429 189.306 138.308 189.772 138.308H200.104C201.112 138.308 201.616 138.765 201.616 139.68C201.616 140.128 201.486 140.473 201.224 140.716C200.963 140.94 200.59 141.052 200.104 141.052H196.688V150.432C196.688 151.011 196.539 151.459 196.24 151.776C195.96 152.075 195.531 152.224 194.952 152.224ZM207.176 157.264C206.765 157.264 206.429 157.152 206.168 156.928C205.906 156.723 205.748 156.443 205.692 156.088C205.654 155.733 205.72 155.36 205.888 154.968L207.792 150.74V152.196L202.696 140.408C202.528 139.997 202.472 139.615 202.528 139.26C202.584 138.905 202.752 138.625 203.032 138.42C203.33 138.196 203.732 138.084 204.236 138.084C204.665 138.084 205.01 138.187 205.272 138.392C205.533 138.579 205.766 138.943 205.972 139.484L209.752 148.92H208.912L212.776 139.456C212.981 138.933 213.224 138.579 213.504 138.392C213.784 138.187 214.157 138.084 214.624 138.084C215.034 138.084 215.361 138.196 215.604 138.42C215.846 138.625 215.996 138.905 216.052 139.26C216.108 139.596 216.042 139.969 215.856 140.38L209.052 155.92C208.809 156.443 208.548 156.797 208.268 156.984C207.988 157.171 207.624 157.264 207.176 157.264Z" fill="#393939"/>
<path d="M7.488 211.216C6.224 211.216 5.064 211.056 4.008 210.736C2.968 210.416 2.096 209.968 1.392 209.392C1.2 209.248 1.072 209.088 1.008 208.912C0.96 208.736 0.952 208.56 0.984 208.384C1.032 208.208 1.12 208.064 1.248 207.952C1.376 207.84 1.528 207.776 1.704 207.76C1.896 207.744 2.096 207.808 2.304 207.952C2.768 208.288 3.256 208.568 3.768 208.792C4.296 209.016 4.856 209.184 5.448 209.296C6.056 209.408 6.696 209.464 7.368 209.464C8.408 209.464 9.256 209.344 9.912 209.104C10.584 208.864 11.08 208.512 11.4 208.048C11.72 207.568 11.88 206.976 11.88 206.272C11.88 205.232 11.56 204.472 10.92 203.992C10.296 203.496 9.336 203.248 8.04 203.248H4.632C4.36 203.248 4.144 203.176 3.984 203.032C3.824 202.888 3.744 202.688 3.744 202.432C3.744 202.16 3.824 201.96 3.984 201.832C4.144 201.688 4.36 201.616 4.632 201.616H7.656C8.92 201.616 9.872 201.368 10.512 200.872C11.152 200.376 11.472 199.648 11.472 198.688C11.472 198.048 11.32 197.496 11.016 197.032C10.712 196.568 10.256 196.216 9.648 195.976C9.056 195.736 8.304 195.616 7.392 195.616C6.544 195.616 5.72 195.728 4.92 195.952C4.136 196.176 3.408 196.536 2.736 197.032C2.528 197.16 2.328 197.224 2.136 197.224C1.96 197.208 1.808 197.144 1.68 197.032C1.552 196.904 1.464 196.752 1.416 196.576C1.384 196.4 1.4 196.224 1.464 196.048C1.528 195.872 1.656 195.72 1.848 195.592C2.616 195 3.496 194.568 4.488 194.296C5.496 194.008 6.512 193.864 7.536 193.864C8.864 193.864 9.96 194.056 10.824 194.44C11.704 194.824 12.36 195.36 12.792 196.048C13.24 196.736 13.464 197.552 13.464 198.496C13.464 199.552 13.152 200.432 12.528 201.136C11.92 201.84 11.088 202.304 10.032 202.528V202.192C11.216 202.336 12.152 202.768 12.84 203.488C13.528 204.208 13.872 205.16 13.872 206.344C13.872 207.352 13.64 208.224 13.176 208.96C12.712 209.68 12.008 210.24 11.064 210.64C10.136 211.024 8.944 211.216 7.488 211.216ZM22.4076 211.216C21.6076 211.216 20.8876 211.064 20.2476 210.76C19.6236 210.44 19.1276 210.008 18.7596 209.464C18.3916 208.92 18.2076 208.312 18.2076 207.64C18.2076 206.776 18.4236 206.096 18.8556 205.6C19.3036 205.104 20.0316 204.752 21.0396 204.544C22.0636 204.336 23.4556 204.232 25.2156 204.232H26.2956V205.504H25.2396C23.9436 205.504 22.9196 205.568 22.1676 205.696C21.4316 205.808 20.9116 206.008 20.6076 206.296C20.3196 206.584 20.1756 206.992 20.1756 207.52C20.1756 208.176 20.3996 208.712 20.8476 209.128C21.3116 209.544 21.9356 209.752 22.7196 209.752C23.3596 209.752 23.9196 209.6 24.3996 209.296C24.8956 208.992 25.2796 208.576 25.5516 208.048C25.8396 207.52 25.9836 206.912 25.9836 206.224V203.488C25.9836 202.496 25.7836 201.784 25.3836 201.352C24.9836 200.904 24.3276 200.68 23.4156 200.68C22.8556 200.68 22.2956 200.752 21.7356 200.896C21.1756 201.04 20.5836 201.272 19.9596 201.592C19.7356 201.704 19.5436 201.744 19.3836 201.712C19.2236 201.664 19.0956 201.576 18.9996 201.448C18.9036 201.32 18.8476 201.176 18.8316 201.016C18.8156 200.84 18.8476 200.672 18.9276 200.512C19.0236 200.352 19.1676 200.224 19.3596 200.128C20.0636 199.776 20.7596 199.52 21.4476 199.36C22.1356 199.2 22.7916 199.12 23.4156 199.12C24.4236 199.12 25.2556 199.288 25.9116 199.624C26.5676 199.944 27.0556 200.44 27.3756 201.112C27.6956 201.768 27.8556 202.616 27.8556 203.656V210.16C27.8556 210.48 27.7756 210.728 27.6156 210.904C27.4716 211.08 27.2556 211.168 26.9676 211.168C26.6636 211.168 26.4316 211.08 26.2716 210.904C26.1116 210.728 26.0316 210.48 26.0316 210.16V208.288H26.2476C26.1196 208.896 25.8716 209.416 25.5036 209.848C25.1516 210.28 24.7116 210.616 24.1836 210.856C23.6556 211.096 23.0636 211.216 22.4076 211.216ZM42.0411 211.168C41.7371 211.168 41.4971 211.08 41.3211 210.904C41.1611 210.728 41.0811 210.48 41.0811 210.16V200.896H36.3771V202.384C36.3771 203.632 36.3131 204.736 36.1851 205.696C36.0731 206.64 35.8891 207.456 35.6331 208.144C35.3771 208.832 35.0331 209.408 34.6011 209.872C34.1851 210.336 33.6651 210.728 33.0411 211.048C32.8331 211.144 32.6331 211.168 32.4411 211.12C32.2491 211.088 32.0891 211.016 31.9611 210.904C31.8491 210.776 31.7691 210.624 31.7211 210.448C31.6891 210.272 31.7131 210.096 31.7931 209.92C31.8731 209.744 32.0171 209.6 32.2251 209.488C32.6891 209.232 33.0651 208.912 33.3531 208.528C33.6571 208.144 33.8971 207.664 34.0731 207.088C34.2491 206.512 34.3691 205.84 34.4331 205.072C34.5131 204.288 34.5531 203.368 34.5531 202.312V200.44C34.5531 200.072 34.6491 199.8 34.8411 199.624C35.0331 199.432 35.3051 199.336 35.6571 199.336H41.9211C42.2731 199.336 42.5451 199.432 42.7371 199.624C42.9291 199.8 43.0251 200.072 43.0251 200.44V210.16C43.0251 210.48 42.9371 210.728 42.7611 210.904C42.6011 211.08 42.3611 211.168 42.0411 211.168ZM49.1983 211.168C49.0223 211.168 48.8623 211.128 48.7183 211.048C48.5903 210.984 48.4863 210.872 48.4063 210.712C48.3423 210.552 48.3103 210.352 48.3103 210.112V200.128C48.3103 199.808 48.3903 199.568 48.5503 199.408C48.7103 199.248 48.9263 199.168 49.1983 199.168C49.4863 199.168 49.7023 199.248 49.8463 199.408C50.0063 199.568 50.0863 199.808 50.0863 200.128V209.152H49.4863L56.4703 199.792C56.5983 199.616 56.7503 199.472 56.9263 199.36C57.1023 199.232 57.3263 199.168 57.5983 199.168C57.7903 199.168 57.9503 199.2 58.0783 199.264C58.2063 199.328 58.3023 199.44 58.3663 199.6C58.4463 199.744 58.4863 199.944 58.4863 200.2V210.208C58.4863 210.512 58.4063 210.752 58.2463 210.928C58.1023 211.088 57.8863 211.168 57.5983 211.168C57.3103 211.168 57.0863 211.088 56.9263 210.928C56.7823 210.752 56.7103 210.512 56.7103 210.208V201.16H57.3103L50.3023 210.544C50.1903 210.704 50.0463 210.848 49.8703 210.976C49.7103 211.104 49.4863 211.168 49.1983 211.168ZM64.7739 211C64.4539 211 64.2059 210.912 64.0299 210.736C63.8539 210.56 63.7659 210.312 63.7659 209.992V200.152C63.7659 199.816 63.8459 199.568 64.0059 199.408C64.1659 199.248 64.3979 199.168 64.7019 199.168C65.0059 199.168 65.2379 199.248 65.3979 199.408C65.5579 199.568 65.6379 199.816 65.6379 200.152V209.44H70.5099V200.152C70.5099 199.816 70.5899 199.568 70.7499 199.408C70.9099 199.248 71.1419 199.168 71.4459 199.168C71.7339 199.168 71.9579 199.248 72.1179 199.408C72.2779 199.568 72.3579 199.816 72.3579 200.152V209.44H77.2299V200.152C77.2299 199.816 77.3099 199.568 77.4699 199.408C77.6459 199.248 77.8779 199.168 78.1659 199.168C78.4699 199.168 78.7019 199.248 78.8619 199.408C79.0219 199.568 79.1019 199.816 79.1019 200.152V209.992C79.1019 210.312 79.0139 210.56 78.8379 210.736C78.6619 210.912 78.4139 211 78.0939 211H64.7739ZM92.9893 211.168C92.6693 211.168 92.4213 211.08 92.2453 210.904C92.0853 210.728 92.0053 210.48 92.0053 210.16V200.152C92.0053 199.816 92.0853 199.568 92.2453 199.408C92.4213 199.248 92.6693 199.168 92.9893 199.168C93.2933 199.168 93.5253 199.248 93.6853 199.408C93.8613 199.568 93.9493 199.816 93.9493 200.152V204.184H100.309V200.152C100.309 199.816 100.389 199.568 100.549 199.408C100.725 199.248 100.965 199.168 101.269 199.168C101.573 199.168 101.813 199.248 101.989 199.408C102.165 199.568 102.253 199.816 102.253 200.152V210.16C102.253 210.48 102.165 210.728 101.989 210.904C101.813 211.08 101.573 211.168 101.269 211.168C100.965 211.168 100.725 211.08 100.549 210.904C100.389 210.728 100.309 210.48 100.309 210.16V205.768H93.9493V210.16C93.9493 210.48 93.8693 210.728 93.7093 210.904C93.5493 211.08 93.3093 211.168 92.9893 211.168ZM111.227 211.216C110.427 211.216 109.707 211.064 109.067 210.76C108.443 210.44 107.947 210.008 107.579 209.464C107.211 208.92 107.027 208.312 107.027 207.64C107.027 206.776 107.243 206.096 107.675 205.6C108.123 205.104 108.851 204.752 109.859 204.544C110.883 204.336 112.275 204.232 114.035 204.232H115.115V205.504H114.059C112.763 205.504 111.739 205.568 110.987 205.696C110.251 205.808 109.731 206.008 109.427 206.296C109.139 206.584 108.995 206.992 108.995 207.52C108.995 208.176 109.219 208.712 109.667 209.128C110.131 209.544 110.755 209.752 111.539 209.752C112.179 209.752 112.739 209.6 113.219 209.296C113.715 208.992 114.099 208.576 114.371 208.048C114.659 207.52 114.803 206.912 114.803 206.224V203.488C114.803 202.496 114.603 201.784 114.203 201.352C113.803 200.904 113.147 200.68 112.235 200.68C111.675 200.68 111.115 200.752 110.555 200.896C109.995 201.04 109.403 201.272 108.779 201.592C108.555 201.704 108.363 201.744 108.203 201.712C108.043 201.664 107.915 201.576 107.819 201.448C107.723 201.32 107.667 201.176 107.651 201.016C107.635 200.84 107.667 200.672 107.747 200.512C107.843 200.352 107.987 200.224 108.179 200.128C108.883 199.776 109.579 199.52 110.267 199.36C110.955 199.2 111.611 199.12 112.235 199.12C113.243 199.12 114.075 199.288 114.731 199.624C115.387 199.944 115.875 200.44 116.195 201.112C116.515 201.768 116.675 202.616 116.675 203.656V210.16C116.675 210.48 116.595 210.728 116.435 210.904C116.291 211.08 116.075 211.168 115.787 211.168C115.483 211.168 115.251 211.08 115.091 210.904C114.931 210.728 114.851 210.48 114.851 210.16V208.288H115.067C114.939 208.896 114.691 209.416 114.323 209.848C113.971 210.28 113.531 210.616 113.003 210.856C112.475 211.096 111.883 211.216 111.227 211.216ZM122.773 211.168C122.501 211.168 122.285 211.088 122.125 210.928C121.981 210.752 121.909 210.52 121.909 210.232V200.2C121.909 199.976 121.941 199.792 122.005 199.648C122.069 199.488 122.165 199.368 122.293 199.288C122.421 199.208 122.581 199.168 122.773 199.168C122.965 199.168 123.125 199.2 123.253 199.264C123.381 199.312 123.493 199.392 123.589 199.504C123.685 199.6 123.765 199.72 123.829 199.864L127.909 207.136L131.989 199.864C132.053 199.72 132.133 199.6 132.229 199.504C132.325 199.392 132.437 199.312 132.565 199.264C132.693 199.2 132.845 199.168 133.021 199.168C133.309 199.168 133.525 199.256 133.669 199.432C133.813 199.592 133.885 199.848 133.885 200.2V210.232C133.885 210.52 133.813 210.752 133.669 210.928C133.525 211.088 133.309 211.168 133.021 211.168C132.749 211.168 132.533 211.088 132.373 210.928C132.229 210.752 132.157 210.52 132.157 210.232V201.568H132.709L128.605 208.768C128.541 208.896 128.453 209.008 128.341 209.104C128.229 209.184 128.085 209.224 127.909 209.224C127.717 209.224 127.565 209.176 127.453 209.08C127.357 208.984 127.269 208.88 127.189 208.768L123.085 201.568H123.637V210.232C123.637 210.52 123.557 210.752 123.397 210.928C123.253 211.088 123.045 211.168 122.773 211.168ZM151.765 211.216C150.597 211.216 149.589 210.96 148.741 210.448C147.893 209.936 147.237 209.224 146.773 208.312C146.325 207.384 146.101 206.312 146.101 205.096C146.101 204.168 146.229 203.336 146.485 202.6C146.741 201.864 147.117 201.24 147.613 200.728C148.109 200.2 148.701 199.8 149.389 199.528C150.093 199.256 150.885 199.12 151.765 199.12C152.341 199.12 152.941 199.208 153.565 199.384C154.189 199.56 154.757 199.864 155.269 200.296C155.429 200.408 155.533 200.544 155.581 200.704C155.629 200.864 155.629 201.024 155.581 201.184C155.533 201.328 155.453 201.456 155.341 201.568C155.229 201.664 155.085 201.72 154.909 201.736C154.749 201.752 154.581 201.696 154.405 201.568C153.989 201.248 153.565 201.024 153.133 200.896C152.701 200.768 152.285 200.704 151.885 200.704C151.261 200.704 150.717 200.808 150.253 201.016C149.789 201.208 149.397 201.488 149.077 201.856C148.757 202.224 148.509 202.68 148.333 203.224C148.173 203.768 148.093 204.4 148.093 205.12C148.093 206.512 148.421 207.616 149.077 208.432C149.733 209.232 150.669 209.632 151.885 209.632C152.285 209.632 152.693 209.568 153.109 209.44C153.541 209.312 153.973 209.088 154.405 208.768C154.581 208.64 154.749 208.584 154.909 208.6C155.069 208.616 155.205 208.68 155.317 208.792C155.429 208.888 155.501 209.016 155.533 209.176C155.581 209.336 155.581 209.496 155.533 209.656C155.485 209.8 155.381 209.928 155.221 210.04C154.709 210.456 154.149 210.76 153.541 210.952C152.933 211.128 152.341 211.216 151.765 211.216ZM160.588 211C160.268 211 160.02 210.912 159.844 210.736C159.668 210.56 159.58 210.312 159.58 209.992V200.344C159.58 200.024 159.668 199.776 159.844 199.6C160.02 199.424 160.268 199.336 160.588 199.336H165.268C166.196 199.336 166.956 199.456 167.548 199.696C168.14 199.92 168.58 200.264 168.868 200.728C169.156 201.176 169.3 201.736 169.3 202.408C169.3 203.144 169.036 203.768 168.508 204.28C167.996 204.792 167.324 205.096 166.492 205.192V204.88C167.484 204.912 168.26 205.192 168.82 205.72C169.396 206.248 169.684 206.936 169.684 207.784C169.684 208.776 169.316 209.56 168.58 210.136C167.844 210.712 166.804 211 165.46 211H160.588ZM161.428 209.68H165.388C166.172 209.68 166.772 209.512 167.188 209.176C167.62 208.824 167.836 208.328 167.836 207.688C167.836 207.048 167.62 206.56 167.188 206.224C166.772 205.888 166.172 205.72 165.388 205.72H161.428V209.68ZM161.428 204.4H165.172C165.892 204.4 166.452 204.232 166.852 203.896C167.268 203.56 167.476 203.096 167.476 202.504C167.476 201.912 167.268 201.456 166.852 201.136C166.452 200.816 165.892 200.656 165.172 200.656H161.428V204.4ZM179.017 211.216C177.881 211.216 176.897 210.968 176.065 210.472C175.233 209.976 174.585 209.28 174.121 208.384C173.673 207.472 173.449 206.4 173.449 205.168C173.449 204.24 173.577 203.408 173.833 202.672C174.089 201.92 174.465 201.28 174.961 200.752C175.457 200.224 176.041 199.824 176.713 199.552C177.401 199.264 178.169 199.12 179.017 199.12C180.153 199.12 181.137 199.368 181.969 199.864C182.801 200.36 183.441 201.064 183.889 201.976C184.353 202.872 184.585 203.936 184.585 205.168C184.585 206.096 184.457 206.928 184.201 207.664C183.945 208.4 183.569 209.04 183.073 209.584C182.577 210.112 181.985 210.52 181.297 210.808C180.625 211.08 179.865 211.216 179.017 211.216ZM179.017 209.656C179.737 209.656 180.369 209.48 180.913 209.128C181.457 208.776 181.873 208.264 182.161 207.592C182.465 206.92 182.617 206.112 182.617 205.168C182.617 203.712 182.289 202.6 181.633 201.832C180.993 201.064 180.121 200.68 179.017 200.68C178.281 200.68 177.641 200.856 177.097 201.208C176.569 201.544 176.153 202.048 175.849 202.72C175.561 203.376 175.417 204.192 175.417 205.168C175.417 206.608 175.745 207.72 176.401 208.504C177.057 209.272 177.929 209.656 179.017 209.656ZM190.163 211.12C189.843 211.12 189.603 211.032 189.443 210.856C189.283 210.664 189.203 210.4 189.203 210.064V200.248C189.203 199.912 189.283 199.656 189.443 199.48C189.603 199.304 189.843 199.216 190.163 199.216C190.467 199.216 190.707 199.304 190.883 199.48C191.059 199.656 191.147 199.912 191.147 200.248V210.064C191.147 210.4 191.059 210.664 190.883 210.856C190.723 211.032 190.483 211.12 190.163 211.12ZM192.275 196.456C191.907 196.456 191.619 196.36 191.411 196.168C191.219 195.976 191.123 195.704 191.123 195.352C191.123 195 191.219 194.728 191.411 194.536C191.619 194.328 191.907 194.224 192.275 194.224C192.627 194.224 192.899 194.328 193.091 194.536C193.283 194.728 193.379 195 193.379 195.352C193.379 195.704 193.283 195.976 193.091 196.168C192.899 196.36 192.627 196.456 192.275 196.456ZM188.075 196.456C187.723 196.456 187.451 196.36 187.259 196.168C187.051 195.976 186.947 195.704 186.947 195.352C186.947 195 187.051 194.728 187.259 194.536C187.451 194.328 187.723 194.224 188.075 194.224C188.443 194.224 188.723 194.328 188.915 194.536C189.107 194.728 189.203 195 189.203 195.352C189.203 195.704 189.107 195.976 188.915 196.168C188.723 196.36 188.443 196.456 188.075 196.456ZM203.627 214.288C203.355 214.288 203.147 214.208 203.003 214.048C202.859 213.888 202.787 213.664 202.787 213.376V210.4C202.787 209.76 203.107 209.44 203.747 209.44H204.899L203.747 209.848C204.179 209.272 204.523 208.648 204.779 207.976C205.051 207.288 205.251 206.52 205.379 205.672C205.507 204.824 205.571 203.856 205.571 202.768V200.44C205.571 200.072 205.667 199.8 205.859 199.624C206.051 199.432 206.323 199.336 206.675 199.336H212.723C213.091 199.336 213.363 199.432 213.539 199.624C213.731 199.8 213.827 200.072 213.827 200.44V210.328L212.939 209.44H214.715C215.019 209.44 215.251 209.52 215.411 209.68C215.587 209.84 215.675 210.08 215.675 210.4V213.376C215.675 213.984 215.395 214.288 214.835 214.288C214.563 214.288 214.355 214.208 214.211 214.048C214.067 213.888 213.995 213.664 213.995 213.376V211H204.443V213.376C204.443 213.984 204.171 214.288 203.627 214.288ZM205.883 209.44H211.979V200.872H207.299V203.104C207.299 204.304 207.179 205.464 206.939 206.584C206.699 207.688 206.347 208.64 205.883 209.44ZM223.398 211.216C222.598 211.216 221.878 211.064 221.238 210.76C220.614 210.44 220.118 210.008 219.75 209.464C219.382 208.92 219.198 208.312 219.198 207.64C219.198 206.776 219.414 206.096 219.846 205.6C220.294 205.104 221.022 204.752 222.03 204.544C223.054 204.336 224.446 204.232 226.206 204.232H227.286V205.504H226.23C224.934 205.504 223.91 205.568 223.158 205.696C222.422 205.808 221.902 206.008 221.598 206.296C221.31 206.584 221.166 206.992 221.166 207.52C221.166 208.176 221.39 208.712 221.838 209.128C222.302 209.544 222.926 209.752 223.71 209.752C224.35 209.752 224.91 209.6 225.39 209.296C225.886 208.992 226.27 208.576 226.542 208.048C226.83 207.52 226.974 206.912 226.974 206.224V203.488C226.974 202.496 226.774 201.784 226.374 201.352C225.974 200.904 225.318 200.68 224.406 200.68C223.846 200.68 223.286 200.752 222.726 200.896C222.166 201.04 221.574 201.272 220.95 201.592C220.726 201.704 220.534 201.744 220.374 201.712C220.214 201.664 220.086 201.576 219.99 201.448C219.894 201.32 219.838 201.176 219.822 201.016C219.806 200.84 219.838 200.672 219.918 200.512C220.014 200.352 220.158 200.224 220.35 200.128C221.054 199.776 221.75 199.52 222.438 199.36C223.126 199.2 223.782 199.12 224.406 199.12C225.414 199.12 226.246 199.288 226.902 199.624C227.558 199.944 228.046 200.44 228.366 201.112C228.686 201.768 228.846 202.616 228.846 203.656V210.16C228.846 210.48 228.766 210.728 228.606 210.904C228.462 211.08 228.246 211.168 227.958 211.168C227.654 211.168 227.422 211.08 227.262 210.904C227.102 210.728 227.022 210.48 227.022 210.16V208.288H227.238C227.11 208.896 226.862 209.416 226.494 209.848C226.142 210.28 225.702 210.616 225.174 210.856C224.646 211.096 224.054 211.216 223.398 211.216ZM235.064 211.168C234.744 211.168 234.496 211.08 234.32 210.904C234.16 210.728 234.08 210.48 234.08 210.16V200.152C234.08 199.816 234.16 199.568 234.32 199.408C234.496 199.248 234.744 199.168 235.064 199.168C235.368 199.168 235.6 199.248 235.76 199.408C235.936 199.568 236.024 199.816 236.024 200.152V204.184H242.384V200.152C242.384 199.816 242.464 199.568 242.624 199.408C242.8 199.248 243.04 199.168 243.344 199.168C243.648 199.168 243.888 199.248 244.064 199.408C244.24 199.568 244.328 199.816 244.328 200.152V210.16C244.328 210.48 244.24 210.728 244.064 210.904C243.888 211.08 243.648 211.168 243.344 211.168C243.04 211.168 242.8 211.08 242.624 210.904C242.464 210.728 242.384 210.48 242.384 210.16V205.768H236.024V210.16C236.024 210.48 235.944 210.728 235.784 210.904C235.624 211.08 235.384 211.168 235.064 211.168ZM250.59 211.12C250.27 211.12 250.03 211.032 249.87 210.856C249.71 210.664 249.63 210.4 249.63 210.064V200.248C249.63 199.912 249.71 199.656 249.87 199.48C250.03 199.304 250.27 199.216 250.59 199.216C250.894 199.216 251.134 199.304 251.31 199.48C251.486 199.656 251.574 199.912 251.574 200.248V210.064C251.574 210.4 251.486 210.664 251.31 210.856C251.15 211.032 250.91 211.12 250.59 211.12ZM250.59 196.528C250.19 196.528 249.878 196.424 249.654 196.216C249.43 195.992 249.318 195.696 249.318 195.328C249.318 194.944 249.43 194.656 249.654 194.464C249.878 194.256 250.19 194.152 250.59 194.152C251.006 194.152 251.318 194.256 251.526 194.464C251.75 194.656 251.862 194.944 251.862 195.328C251.862 195.696 251.75 195.992 251.526 196.216C251.318 196.424 251.006 196.528 250.59 196.528ZM267.894 211.168C267.59 211.168 267.35 211.08 267.174 210.904C266.998 210.728 266.91 210.48 266.91 210.16V200.896H263.406C262.798 200.896 262.494 200.632 262.494 200.104C262.494 199.864 262.574 199.68 262.734 199.552C262.894 199.408 263.118 199.336 263.406 199.336H272.382C272.974 199.336 273.27 199.592 273.27 200.104C273.27 200.36 273.19 200.56 273.03 200.704C272.886 200.832 272.67 200.896 272.382 200.896H268.854V210.16C268.854 210.48 268.774 210.728 268.614 210.904C268.47 211.08 268.23 211.168 267.894 211.168ZM280.286 211.216C279.486 211.216 278.766 211.064 278.126 210.76C277.502 210.44 277.006 210.008 276.638 209.464C276.27 208.92 276.086 208.312 276.086 207.64C276.086 206.776 276.302 206.096 276.734 205.6C277.182 205.104 277.91 204.752 278.918 204.544C279.942 204.336 281.334 204.232 283.094 204.232H284.174V205.504H283.118C281.822 205.504 280.798 205.568 280.046 205.696C279.31 205.808 278.79 206.008 278.486 206.296C278.198 206.584 278.054 206.992 278.054 207.52C278.054 208.176 278.278 208.712 278.726 209.128C279.19 209.544 279.814 209.752 280.598 209.752C281.238 209.752 281.798 209.6 282.278 209.296C282.774 208.992 283.158 208.576 283.43 208.048C283.718 207.52 283.862 206.912 283.862 206.224V203.488C283.862 202.496 283.662 201.784 283.262 201.352C282.862 200.904 282.206 200.68 281.294 200.68C280.734 200.68 280.174 200.752 279.614 200.896C279.054 201.04 278.462 201.272 277.838 201.592C277.614 201.704 277.422 201.744 277.262 201.712C277.102 201.664 276.974 201.576 276.878 201.448C276.782 201.32 276.726 201.176 276.71 201.016C276.694 200.84 276.726 200.672 276.806 200.512C276.902 200.352 277.046 200.224 277.238 200.128C277.942 199.776 278.638 199.52 279.326 199.36C280.014 199.2 280.67 199.12 281.294 199.12C282.302 199.12 283.134 199.288 283.79 199.624C284.446 199.944 284.934 200.44 285.254 201.112C285.574 201.768 285.734 202.616 285.734 203.656V210.16C285.734 210.48 285.654 210.728 285.494 210.904C285.35 211.08 285.134 211.168 284.846 211.168C284.542 211.168 284.31 211.08 284.15 210.904C283.99 210.728 283.91 210.48 283.91 210.16V208.288H284.126C283.998 208.896 283.75 209.416 283.382 209.848C283.03 210.28 282.59 210.616 282.062 210.856C281.534 211.096 280.942 211.216 280.286 211.216ZM303.467 211.216C302.331 211.216 301.347 210.968 300.515 210.472C299.683 209.976 299.035 209.28 298.571 208.384C298.123 207.472 297.899 206.4 297.899 205.168C297.899 204.24 298.027 203.408 298.283 202.672C298.539 201.92 298.915 201.28 299.411 200.752C299.907 200.224 300.491 199.824 301.163 199.552C301.851 199.264 302.619 199.12 303.467 199.12C304.603 199.12 305.587 199.368 306.419 199.864C307.251 200.36 307.891 201.064 308.339 201.976C308.803 202.872 309.035 203.936 309.035 205.168C309.035 206.096 308.907 206.928 308.651 207.664C308.395 208.4 308.019 209.04 307.523 209.584C307.027 210.112 306.435 210.52 305.747 210.808C305.075 211.08 304.315 211.216 303.467 211.216ZM303.467 209.656C304.187 209.656 304.819 209.48 305.363 209.128C305.907 208.776 306.323 208.264 306.611 207.592C306.915 206.92 307.067 206.112 307.067 205.168C307.067 203.712 306.739 202.6 306.083 201.832C305.443 201.064 304.571 200.68 303.467 200.68C302.731 200.68 302.091 200.856 301.547 201.208C301.019 201.544 300.603 202.048 300.299 202.72C300.011 203.376 299.867 204.192 299.867 205.168C299.867 206.608 300.195 207.72 300.851 208.504C301.507 209.272 302.379 209.656 303.467 209.656ZM318.548 211.216C317.396 211.216 316.396 210.968 315.548 210.472C314.716 209.96 314.068 209.208 313.604 208.216C313.156 207.224 312.932 206.008 312.932 204.568V202.768C312.932 201.216 313.132 199.92 313.532 198.88C313.948 197.84 314.572 197 315.404 196.36C316.252 195.72 317.3 195.232 318.548 194.896L322.052 193.912C322.34 193.832 322.58 193.84 322.772 193.936C322.98 194.032 323.108 194.208 323.156 194.464C323.22 194.736 323.18 194.968 323.036 195.16C322.908 195.352 322.7 195.488 322.412 195.568L318.692 196.576C317.828 196.816 317.108 197.176 316.532 197.656C315.956 198.136 315.524 198.728 315.236 199.432C314.948 200.12 314.804 200.904 314.804 201.784V202.72H314.468C314.66 202.016 314.964 201.408 315.38 200.896C315.796 200.384 316.308 199.992 316.916 199.72C317.54 199.432 318.228 199.288 318.98 199.288C319.988 199.288 320.876 199.528 321.644 200.008C322.412 200.488 323.004 201.168 323.42 202.048C323.852 202.928 324.068 203.976 324.068 205.192C324.068 206.408 323.836 207.472 323.372 208.384C322.924 209.28 322.284 209.976 321.452 210.472C320.636 210.968 319.668 211.216 318.548 211.216ZM318.476 209.656C319.244 209.656 319.892 209.488 320.42 209.152C320.964 208.8 321.38 208.296 321.668 207.64C321.956 206.984 322.1 206.184 322.1 205.24C322.1 203.848 321.78 202.768 321.14 202C320.5 201.232 319.62 200.848 318.5 200.848C317.748 200.848 317.1 201.016 316.556 201.352C316.028 201.688 315.62 202.176 315.332 202.816C315.044 203.44 314.9 204.192 314.9 205.072C314.9 206.576 315.212 207.72 315.836 208.504C316.476 209.272 317.356 209.656 318.476 209.656ZM333.942 211.216C332.71 211.216 331.646 210.976 330.75 210.496C329.87 210 329.182 209.304 328.686 208.408C328.206 207.512 327.966 206.44 327.966 205.192C327.966 203.976 328.206 202.92 328.686 202.024C329.166 201.112 329.822 200.4 330.654 199.888C331.502 199.376 332.478 199.12 333.582 199.12C334.366 199.12 335.07 199.256 335.694 199.528C336.318 199.784 336.846 200.16 337.278 200.656C337.726 201.152 338.062 201.752 338.286 202.456C338.526 203.16 338.646 203.952 338.646 204.832C338.646 205.088 338.574 205.28 338.43 205.408C338.286 205.52 338.078 205.576 337.806 205.576H329.454V204.304H337.35L336.966 204.616C336.966 203.752 336.838 203.024 336.582 202.432C336.326 201.824 335.95 201.36 335.454 201.04C334.974 200.72 334.366 200.56 333.63 200.56C332.814 200.56 332.118 200.752 331.542 201.136C330.982 201.504 330.558 202.024 330.27 202.696C329.982 203.352 329.838 204.12 329.838 205V205.144C329.838 206.616 330.19 207.736 330.894 208.504C331.614 209.272 332.63 209.656 333.942 209.656C334.486 209.656 335.022 209.584 335.55 209.44C336.094 209.296 336.622 209.056 337.134 208.72C337.358 208.576 337.558 208.512 337.734 208.528C337.926 208.528 338.078 208.584 338.19 208.696C338.302 208.792 338.374 208.92 338.406 209.08C338.454 209.224 338.438 209.384 338.358 209.56C338.294 209.736 338.158 209.888 337.95 210.016C337.422 210.4 336.798 210.696 336.078 210.904C335.358 211.112 334.646 211.216 333.942 211.216ZM344.094 215.488C343.774 215.488 343.534 215.4 343.374 215.224C343.214 215.064 343.134 214.824 343.134 214.504V200.152C343.134 199.832 343.214 199.592 343.374 199.432C343.534 199.256 343.766 199.168 344.07 199.168C344.39 199.168 344.63 199.256 344.79 199.432C344.966 199.592 345.054 199.832 345.054 200.152V202.432L344.79 202.096C345.046 201.184 345.55 200.464 346.302 199.936C347.07 199.392 347.982 199.12 349.038 199.12C350.078 199.12 350.982 199.368 351.75 199.864C352.534 200.344 353.134 201.04 353.55 201.952C353.982 202.848 354.198 203.92 354.198 205.168C354.198 206.4 353.982 207.472 353.55 208.384C353.134 209.28 352.542 209.976 351.774 210.472C351.006 210.968 350.094 211.216 349.038 211.216C347.982 211.216 347.078 210.952 346.326 210.424C345.574 209.88 345.062 209.16 344.79 208.264H345.078V214.504C345.078 214.824 344.99 215.064 344.814 215.224C344.638 215.4 344.398 215.488 344.094 215.488ZM348.63 209.656C349.366 209.656 349.998 209.48 350.526 209.128C351.07 208.776 351.486 208.264 351.774 207.592C352.078 206.92 352.23 206.112 352.23 205.168C352.23 203.712 351.902 202.6 351.246 201.832C350.606 201.064 349.734 200.68 348.63 200.68C347.91 200.68 347.278 200.856 346.734 201.208C346.19 201.544 345.766 202.048 345.462 202.72C345.174 203.376 345.03 204.192 345.03 205.168C345.03 206.608 345.358 207.72 346.014 208.504C346.67 209.272 347.542 209.656 348.63 209.656ZM359.665 211.168C359.489 211.168 359.329 211.128 359.185 211.048C359.057 210.984 358.953 210.872 358.873 210.712C358.809 210.552 358.777 210.352 358.777 210.112V200.128C358.777 199.808 358.857 199.568 359.017 199.408C359.177 199.248 359.393 199.168 359.665 199.168C359.953 199.168 360.169 199.248 360.313 199.408C360.473 199.568 360.553 199.808 360.553 200.128V209.152H359.953L366.937 199.792C367.065 199.616 367.217 199.472 367.393 199.36C367.569 199.232 367.793 199.168 368.065 199.168C368.257 199.168 368.417 199.2 368.545 199.264C368.673 199.328 368.769 199.44 368.833 199.6C368.913 199.744 368.953 199.944 368.953 200.2V210.208C368.953 210.512 368.873 210.752 368.713 210.928C368.569 211.088 368.353 211.168 368.065 211.168C367.777 211.168 367.553 211.088 367.393 210.928C367.249 210.752 367.177 210.512 367.177 210.208V201.16H367.777L360.769 210.544C360.657 210.704 360.513 210.848 360.337 210.976C360.177 211.104 359.953 211.168 359.665 211.168ZM2.928 244C2.608 244 2.36 243.912 2.184 243.736C2.008 243.56 1.92 243.312 1.92 242.992V233.344C1.92 233.024 2.008 232.776 2.184 232.6C2.36 232.424 2.608 232.336 2.928 232.336H7.608C8.536 232.336 9.296 232.456 9.888 232.696C10.48 232.92 10.92 233.264 11.208 233.728C11.496 234.176 11.64 234.736 11.64 235.408C11.64 236.144 11.376 236.768 10.848 237.28C10.336 237.792 9.664 238.096 8.832 238.192V237.88C9.824 237.912 10.6 238.192 11.16 238.72C11.736 239.248 12.024 239.936 12.024 240.784C12.024 241.776 11.656 242.56 10.92 243.136C10.184 243.712 9.144 244 7.8 244H2.928ZM3.768 242.68H7.728C8.512 242.68 9.112 242.512 9.528 242.176C9.96 241.824 10.176 241.328 10.176 240.688C10.176 240.048 9.96 239.56 9.528 239.224C9.112 238.888 8.512 238.72 7.728 238.72H3.768V242.68ZM3.768 237.4H7.512C8.232 237.4 8.792 237.232 9.192 236.896C9.608 236.56 9.816 236.096 9.816 235.504C9.816 234.912 9.608 234.456 9.192 234.136C8.792 233.816 8.232 233.656 7.512 233.656H3.768V237.4ZM17.373 244.168C17.197 244.168 17.037 244.128 16.893 244.048C16.765 243.984 16.661 243.872 16.581 243.712C16.517 243.552 16.485 243.352 16.485 243.112V233.128C16.485 232.808 16.565 232.568 16.725 232.408C16.885 232.248 17.101 232.168 17.373 232.168C17.661 232.168 17.877 232.248 18.021 232.408C18.181 232.568 18.261 232.808 18.261 233.128V242.152H17.661L24.645 232.792C24.773 232.616 24.925 232.472 25.101 232.36C25.277 232.232 25.501 232.168 25.773 232.168C25.965 232.168 26.125 232.2 26.253 232.264C26.381 232.328 26.477 232.44 26.541 232.6C26.621 232.744 26.661 232.944 26.661 233.2V243.208C26.661 243.512 26.581 243.752 26.421 243.928C26.277 244.088 26.061 244.168 25.773 244.168C25.485 244.168 25.261 244.088 25.101 243.928C24.957 243.752 24.885 243.512 24.885 243.208V234.16H25.485L18.477 243.544C18.365 243.704 18.221 243.848 18.045 243.976C17.885 244.104 17.661 244.168 17.373 244.168ZM31.5086 247.288C31.2366 247.288 31.0286 247.208 30.8846 247.048C30.7406 246.888 30.6686 246.664 30.6686 246.376V243.4C30.6686 242.76 30.9886 242.44 31.6286 242.44H32.7806L31.6286 242.848C32.0606 242.272 32.4046 241.648 32.6606 240.976C32.9326 240.288 33.1326 239.52 33.2606 238.672C33.3886 237.824 33.4526 236.856 33.4526 235.768V233.44C33.4526 233.072 33.5486 232.8 33.7406 232.624C33.9326 232.432 34.2046 232.336 34.5566 232.336H40.6046C40.9726 232.336 41.2446 232.432 41.4206 232.624C41.6126 232.8 41.7086 233.072 41.7086 233.44V243.328L40.8206 242.44H42.5966C42.9006 242.44 43.1326 242.52 43.2926 242.68C43.4686 242.84 43.5566 243.08 43.5566 243.4V246.376C43.5566 246.984 43.2766 247.288 42.7166 247.288C42.4446 247.288 42.2366 247.208 42.0926 247.048C41.9486 246.888 41.8766 246.664 41.8766 246.376V244H32.3246V246.376C32.3246 246.984 32.0526 247.288 31.5086 247.288ZM33.7646 242.44H39.8606V233.872H35.1806V236.104C35.1806 237.304 35.0606 238.464 34.8206 239.584C34.5806 240.688 34.2286 241.64 33.7646 242.44ZM54.7793 247.288C54.5073 247.288 54.2993 247.208 54.1553 247.048C54.0113 246.888 53.9393 246.664 53.9393 246.376V243.4C53.9393 242.76 54.2593 242.44 54.8993 242.44H56.0513L54.8993 242.848C55.3313 242.272 55.6753 241.648 55.9313 240.976C56.2033 240.288 56.4033 239.52 56.5313 238.672C56.6593 237.824 56.7233 236.856 56.7233 235.768V233.44C56.7233 233.072 56.8193 232.8 57.0113 232.624C57.2033 232.432 57.4753 232.336 57.8273 232.336H63.8753C64.2433 232.336 64.5153 232.432 64.6913 232.624C64.8833 232.8 64.9793 233.072 64.9793 233.44V243.328L64.0913 242.44H65.8673C66.1713 242.44 66.4033 242.52 66.5633 242.68C66.7393 242.84 66.8273 243.08 66.8273 243.4V246.376C66.8273 246.984 66.5473 247.288 65.9873 247.288C65.7153 247.288 65.5073 247.208 65.3633 247.048C65.2193 246.888 65.1473 246.664 65.1473 246.376V244H55.5953V246.376C55.5953 246.984 55.3233 247.288 54.7793 247.288ZM57.0353 242.44H63.1313V233.872H58.4513V236.104C58.4513 237.304 58.3313 238.464 58.0913 239.584C57.8513 240.688 57.4993 241.64 57.0353 242.44ZM75.7264 244.216C74.5904 244.216 73.6064 243.968 72.7744 243.472C71.9424 242.976 71.2944 242.28 70.8304 241.384C70.3824 240.472 70.1584 239.4 70.1584 238.168C70.1584 237.24 70.2864 236.408 70.5424 235.672C70.7984 234.92 71.1744 234.28 71.6704 233.752C72.1664 233.224 72.7504 232.824 73.4224 232.552C74.1104 232.264 74.8784 232.12 75.7264 232.12C76.8624 232.12 77.8464 232.368 78.6784 232.864C79.5104 233.36 80.1504 234.064 80.5984 234.976C81.0624 235.872 81.2944 236.936 81.2944 238.168C81.2944 239.096 81.1664 239.928 80.9104 240.664C80.6544 241.4 80.2784 242.04 79.7824 242.584C79.2864 243.112 78.6944 243.52 78.0064 243.808C77.3344 244.08 76.5744 244.216 75.7264 244.216ZM75.7264 242.656C76.4464 242.656 77.0784 242.48 77.6224 242.128C78.1664 241.776 78.5824 241.264 78.8704 240.592C79.1744 239.92 79.3264 239.112 79.3264 238.168C79.3264 236.712 78.9984 235.6 78.3424 234.832C77.7024 234.064 76.8304 233.68 75.7264 233.68C74.9904 233.68 74.3504 233.856 73.8064 234.208C73.2784 234.544 72.8624 235.048 72.5584 235.72C72.2704 236.376 72.1264 237.192 72.1264 238.168C72.1264 239.608 72.4544 240.72 73.1104 241.504C73.7664 242.272 74.6384 242.656 75.7264 242.656ZM86.8721 244.168C86.5521 244.168 86.3041 244.08 86.1281 243.904C85.9681 243.728 85.8881 243.48 85.8881 243.16V233.44C85.8881 233.072 85.9841 232.8 86.1761 232.624C86.3681 232.432 86.6401 232.336 86.9921 232.336H94.9601C95.3121 232.336 95.5841 232.432 95.7761 232.624C95.9681 232.8 96.0641 233.072 96.0641 233.44V243.16C96.0641 243.48 95.9761 243.728 95.8001 243.904C95.6241 244.08 95.3841 244.168 95.0801 244.168C94.7761 244.168 94.5361 244.08 94.3601 243.904C94.2001 243.728 94.1201 243.48 94.1201 243.16V233.896H87.8321V243.16C87.8321 243.48 87.7521 243.728 87.5921 243.904C87.4321 244.08 87.1921 244.168 86.8721 244.168ZM106.216 244.216C105.08 244.216 104.096 243.968 103.264 243.472C102.432 242.976 101.784 242.28 101.32 241.384C100.872 240.472 100.648 239.4 100.648 238.168C100.648 237.24 100.776 236.408 101.032 235.672C101.288 234.92 101.664 234.28 102.16 233.752C102.656 233.224 103.24 232.824 103.912 232.552C104.6 232.264 105.368 232.12 106.216 232.12C107.352 232.12 108.336 232.368 109.168 232.864C110 233.36 110.64 234.064 111.088 234.976C111.552 235.872 111.784 236.936 111.784 238.168C111.784 239.096 111.656 239.928 111.4 240.664C111.144 241.4 110.768 242.04 110.272 242.584C109.776 243.112 109.184 243.52 108.496 243.808C107.824 244.08 107.064 244.216 106.216 244.216ZM106.216 242.656C106.936 242.656 107.568 242.48 108.112 242.128C108.656 241.776 109.072 241.264 109.36 240.592C109.664 239.92 109.816 239.112 109.816 238.168C109.816 236.712 109.488 235.6 108.832 234.832C108.192 234.064 107.32 233.68 106.216 233.68C105.48 233.68 104.84 233.856 104.296 234.208C103.768 234.544 103.352 235.048 103.048 235.72C102.76 236.376 102.616 237.192 102.616 238.168C102.616 239.608 102.944 240.72 103.6 241.504C104.256 242.272 105.128 242.656 106.216 242.656ZM117.242 244.168C116.97 244.168 116.754 244.088 116.594 243.928C116.45 243.752 116.378 243.52 116.378 243.232V233.2C116.378 232.976 116.41 232.792 116.474 232.648C116.538 232.488 116.634 232.368 116.762 232.288C116.89 232.208 117.05 232.168 117.242 232.168C117.434 232.168 117.594 232.2 117.722 232.264C117.85 232.312 117.962 232.392 118.058 232.504C118.154 232.6 118.234 232.72 118.298 232.864L122.378 240.136L126.458 232.864C126.522 232.72 126.602 232.6 126.698 232.504C126.794 232.392 126.906 232.312 127.034 232.264C127.162 232.2 127.314 232.168 127.49 232.168C127.778 232.168 127.994 232.256 128.138 232.432C128.282 232.592 128.354 232.848 128.354 233.2V243.232C128.354 243.52 128.282 243.752 128.138 243.928C127.994 244.088 127.778 244.168 127.49 244.168C127.218 244.168 127.002 244.088 126.842 243.928C126.698 243.752 126.626 243.52 126.626 243.232V234.568H127.178L123.074 241.768C123.01 241.896 122.922 242.008 122.81 242.104C122.698 242.184 122.554 242.224 122.378 242.224C122.186 242.224 122.034 242.176 121.922 242.08C121.826 241.984 121.738 241.88 121.658 241.768L117.554 234.568H118.106V243.232C118.106 243.52 118.026 243.752 117.866 243.928C117.722 244.088 117.514 244.168 117.242 244.168ZM138.51 244.216C137.374 244.216 136.39 243.968 135.558 243.472C134.726 242.976 134.078 242.28 133.614 241.384C133.166 240.472 132.942 239.4 132.942 238.168C132.942 237.24 133.07 236.408 133.326 235.672C133.582 234.92 133.958 234.28 134.454 233.752C134.95 233.224 135.534 232.824 136.206 232.552C136.894 232.264 137.662 232.12 138.51 232.12C139.646 232.12 140.63 232.368 141.462 232.864C142.294 233.36 142.934 234.064 143.382 234.976C143.846 235.872 144.078 236.936 144.078 238.168C144.078 239.096 143.95 239.928 143.694 240.664C143.438 241.4 143.062 242.04 142.566 242.584C142.07 243.112 141.478 243.52 140.79 243.808C140.118 244.08 139.358 244.216 138.51 244.216ZM138.51 242.656C139.23 242.656 139.862 242.48 140.406 242.128C140.95 241.776 141.366 241.264 141.654 240.592C141.958 239.92 142.11 239.112 142.11 238.168C142.11 236.712 141.782 235.6 141.126 234.832C140.486 234.064 139.614 233.68 138.51 233.68C137.774 233.68 137.134 233.856 136.59 234.208C136.062 234.544 135.646 235.048 135.342 235.72C135.054 236.376 134.91 237.192 134.91 238.168C134.91 239.608 135.238 240.72 135.894 241.504C136.55 242.272 137.422 242.656 138.51 242.656ZM149.656 244.168C149.336 244.168 149.088 244.08 148.912 243.904C148.752 243.712 148.672 243.448 148.672 243.112V233.44C148.672 233.072 148.768 232.8 148.96 232.624C149.152 232.432 149.424 232.336 149.776 232.336H156.136C156.44 232.336 156.664 232.4 156.808 232.528C156.952 232.656 157.024 232.848 157.024 233.104C157.024 233.36 156.952 233.56 156.808 233.704C156.664 233.832 156.44 233.896 156.136 233.896H150.616V243.112C150.616 243.816 150.296 244.168 149.656 244.168ZM161.429 244.168C161.253 244.168 161.093 244.128 160.949 244.048C160.821 243.984 160.717 243.872 160.637 243.712C160.573 243.552 160.541 243.352 160.541 243.112V233.128C160.541 232.808 160.621 232.568 160.781 232.408C160.941 232.248 161.157 232.168 161.429 232.168C161.717 232.168 161.933 232.248 162.077 232.408C162.237 232.568 162.317 232.808 162.317 233.128V242.152H161.717L168.701 232.792C168.829 232.616 168.981 232.472 169.157 232.36C169.333 232.232 169.557 232.168 169.829 232.168C170.021 232.168 170.181 232.2 170.309 232.264C170.437 232.328 170.533 232.44 170.597 232.6C170.677 232.744 170.717 232.944 170.717 233.2V243.208C170.717 243.512 170.637 243.752 170.477 243.928C170.333 244.088 170.117 244.168 169.829 244.168C169.541 244.168 169.317 244.088 169.157 243.928C169.013 243.752 168.941 243.512 168.941 243.208V234.16H169.541L162.533 243.544C162.421 243.704 162.277 243.848 162.101 243.976C161.941 244.104 161.717 244.168 161.429 244.168ZM177.053 246.28C176.893 246.488 176.725 246.608 176.549 246.64C176.373 246.672 176.221 246.64 176.093 246.544C175.965 246.448 175.893 246.312 175.877 246.136C175.877 245.96 175.957 245.768 176.117 245.56C176.373 245.224 176.549 244.88 176.645 244.528C176.741 244.192 176.789 243.88 176.789 243.592L176.885 244.096C176.469 244.096 176.133 243.976 175.877 243.736C175.637 243.48 175.517 243.16 175.517 242.776C175.517 242.392 175.629 242.08 175.853 241.84C176.093 241.584 176.405 241.456 176.789 241.456C177.205 241.456 177.533 241.6 177.773 241.888C178.013 242.16 178.133 242.56 178.133 243.088C178.133 243.424 178.101 243.768 178.037 244.12C177.973 244.488 177.861 244.856 177.701 245.224C177.541 245.592 177.325 245.944 177.053 246.28ZM198.709 244.168C198.405 244.168 198.173 244.088 198.013 243.928C197.853 243.752 197.773 243.52 197.773 243.232V239.56H196.069C195.445 239.56 194.909 239.72 194.461 240.04C194.013 240.36 193.653 240.752 193.381 241.216L192.013 243.616C191.869 243.856 191.701 244.016 191.509 244.096C191.317 244.176 191.125 244.192 190.933 244.144C190.741 244.096 190.573 244 190.429 243.856C190.285 243.712 190.197 243.544 190.165 243.352C190.133 243.144 190.181 242.928 190.309 242.704L191.461 240.76C191.733 240.28 192.093 239.88 192.541 239.56C192.989 239.24 193.445 239.08 193.909 239.08H194.221V239.296C192.909 239.296 191.893 238.992 191.173 238.384C190.453 237.776 190.093 236.928 190.093 235.84C190.093 235.12 190.245 234.504 190.549 233.992C190.869 233.464 191.349 233.056 191.989 232.768C192.629 232.48 193.421 232.336 194.365 232.336H198.589C198.925 232.336 199.181 232.424 199.357 232.6C199.533 232.776 199.621 233.024 199.621 233.344V243.232C199.621 243.52 199.533 243.752 199.357 243.928C199.197 244.088 198.981 244.168 198.709 244.168ZM194.725 238.144H197.773V233.704H194.725C193.781 233.704 193.085 233.904 192.637 234.304C192.189 234.688 191.965 235.224 191.965 235.912C191.965 236.616 192.189 237.168 192.637 237.568C193.085 237.952 193.781 238.144 194.725 238.144ZM205.887 244.168C205.567 244.168 205.319 244.08 205.143 243.904C204.983 243.728 204.903 243.48 204.903 243.16V233.224C204.903 232.888 204.983 232.64 205.143 232.48C205.319 232.304 205.567 232.216 205.887 232.216C206.191 232.216 206.423 232.304 206.583 232.48C206.759 232.64 206.847 232.888 206.847 233.224V237.208H209.031L212.583 232.648C212.743 232.456 212.919 232.336 213.111 232.288C213.303 232.224 213.479 232.224 213.639 232.288C213.815 232.336 213.951 232.432 214.047 232.576C214.159 232.704 214.215 232.864 214.215 233.056C214.215 233.248 214.143 233.448 213.999 233.656L210.615 238L210.063 237.376C210.511 237.424 210.903 237.536 211.239 237.712C211.575 237.888 211.895 238.152 212.199 238.504C212.503 238.856 212.831 239.344 213.183 239.968L214.911 242.824C215.023 243.048 215.063 243.248 215.031 243.424C215.015 243.6 214.935 243.76 214.791 243.904C214.647 244.032 214.479 244.112 214.287 244.144C214.111 244.176 213.935 244.152 213.759 244.072C213.583 243.992 213.423 243.848 213.279 243.64L211.383 240.472C211.111 240.024 210.855 239.68 210.615 239.44C210.375 239.184 210.103 239.008 209.799 238.912C209.495 238.816 209.119 238.768 208.671 238.768H206.847V243.16C206.847 243.48 206.759 243.728 206.583 243.904C206.423 244.08 206.191 244.168 205.887 244.168ZM221.592 248.488C221.352 248.488 221.16 248.424 221.016 248.296C220.872 248.168 220.784 247.992 220.752 247.768C220.736 247.56 220.776 247.344 220.872 247.12L222.528 243.4V244.24L217.92 233.536C217.824 233.296 217.792 233.072 217.824 232.864C217.856 232.656 217.952 232.488 218.112 232.36C218.272 232.232 218.496 232.168 218.784 232.168C219.04 232.168 219.24 232.224 219.384 232.336C219.528 232.448 219.656 232.648 219.768 232.936L223.704 242.584H223.056L227.04 232.936C227.168 232.648 227.304 232.448 227.448 232.336C227.592 232.224 227.8 232.168 228.072 232.168C228.328 232.168 228.52 232.232 228.648 232.36C228.792 232.488 228.872 232.656 228.888 232.864C228.92 233.056 228.888 233.272 228.792 233.512L222.648 247.72C222.52 248.008 222.376 248.208 222.216 248.32C222.072 248.432 221.864 248.488 221.592 248.488ZM244.037 244.168C243.733 244.168 243.493 244.08 243.317 243.904C243.141 243.728 243.053 243.48 243.053 243.16V233.896H239.549C238.941 233.896 238.637 233.632 238.637 233.104C238.637 232.864 238.717 232.68 238.877 232.552C239.037 232.408 239.261 232.336 239.549 232.336H248.525C249.117 232.336 249.413 232.592 249.413 233.104C249.413 233.36 249.333 233.56 249.173 233.704C249.029 233.832 248.813 233.896 248.525 233.896H244.997V243.16C244.997 243.48 244.917 243.728 244.757 243.904C244.613 244.08 244.373 244.168 244.037 244.168ZM253.621 244.168C253.445 244.168 253.285 244.128 253.141 244.048C253.013 243.984 252.909 243.872 252.829 243.712C252.765 243.552 252.733 243.352 252.733 243.112V233.128C252.733 232.808 252.813 232.568 252.973 232.408C253.133 232.248 253.349 232.168 253.621 232.168C253.909 232.168 254.125 232.248 254.269 232.408C254.429 232.568 254.509 232.808 254.509 233.128V242.152H253.909L260.893 232.792C261.021 232.616 261.173 232.472 261.349 232.36C261.525 232.232 261.749 232.168 262.021 232.168C262.213 232.168 262.373 232.2 262.501 232.264C262.629 232.328 262.725 232.44 262.789 232.6C262.869 232.744 262.909 232.944 262.909 233.2V243.208C262.909 243.512 262.829 243.752 262.669 243.928C262.525 244.088 262.309 244.168 262.021 244.168C261.733 244.168 261.509 244.088 261.349 243.928C261.205 243.752 261.133 243.512 261.133 243.208V234.16H261.733L254.725 243.544C254.613 243.704 254.469 243.848 254.293 243.976C254.133 244.104 253.909 244.168 253.621 244.168ZM276.68 244.168C276.408 244.168 276.192 244.088 276.032 243.928C275.888 243.752 275.816 243.52 275.816 243.232V233.2C275.816 232.976 275.848 232.792 275.912 232.648C275.976 232.488 276.072 232.368 276.2 232.288C276.328 232.208 276.488 232.168 276.68 232.168C276.872 232.168 277.032 232.2 277.16 232.264C277.288 232.312 277.4 232.392 277.496 232.504C277.592 232.6 277.672 232.72 277.736 232.864L281.816 240.136L285.896 232.864C285.96 232.72 286.04 232.6 286.136 232.504C286.232 232.392 286.344 232.312 286.472 232.264C286.6 232.2 286.752 232.168 286.928 232.168C287.216 232.168 287.432 232.256 287.576 232.432C287.72 232.592 287.792 232.848 287.792 233.2V243.232C287.792 243.52 287.72 243.752 287.576 243.928C287.432 244.088 287.216 244.168 286.928 244.168C286.656 244.168 286.44 244.088 286.28 243.928C286.136 243.752 286.064 243.52 286.064 243.232V234.568H286.616L282.512 241.768C282.448 241.896 282.36 242.008 282.248 242.104C282.136 242.184 281.992 242.224 281.816 242.224C281.624 242.224 281.472 242.176 281.36 242.08C281.264 241.984 281.176 241.88 281.096 241.768L276.992 234.568H277.544V243.232C277.544 243.52 277.464 243.752 277.304 243.928C277.16 244.088 276.952 244.168 276.68 244.168ZM297.949 244.216C296.813 244.216 295.829 243.968 294.997 243.472C294.165 242.976 293.517 242.28 293.053 241.384C292.605 240.472 292.381 239.4 292.381 238.168C292.381 237.24 292.509 236.408 292.765 235.672C293.021 234.92 293.397 234.28 293.893 233.752C294.389 233.224 294.973 232.824 295.645 232.552C296.333 232.264 297.101 232.12 297.949 232.12C299.085 232.12 300.069 232.368 300.901 232.864C301.733 233.36 302.373 234.064 302.821 234.976C303.285 235.872 303.517 236.936 303.517 238.168C303.517 239.096 303.389 239.928 303.133 240.664C302.877 241.4 302.501 242.04 302.005 242.584C301.509 243.112 300.917 243.52 300.229 243.808C299.557 244.08 298.797 244.216 297.949 244.216ZM297.949 242.656C298.669 242.656 299.301 242.48 299.845 242.128C300.389 241.776 300.805 241.264 301.093 240.592C301.397 239.92 301.549 239.112 301.549 238.168C301.549 236.712 301.221 235.6 300.565 234.832C299.925 234.064 299.053 233.68 297.949 233.68C297.213 233.68 296.573 233.856 296.029 234.208C295.501 234.544 295.085 235.048 294.781 235.72C294.493 236.376 294.349 237.192 294.349 238.168C294.349 239.608 294.677 240.72 295.333 241.504C295.989 242.272 296.861 242.656 297.949 242.656ZM315.598 244.168C315.294 244.168 315.054 244.08 314.878 243.904C314.718 243.728 314.638 243.48 314.638 243.16V238.768H313.126C312.694 238.768 312.326 238.816 312.022 238.912C311.718 239.008 311.438 239.184 311.182 239.44C310.942 239.68 310.686 240.024 310.414 240.472L308.518 243.64C308.39 243.848 308.23 243.992 308.038 244.072C307.846 244.152 307.662 244.168 307.486 244.12C307.31 244.088 307.15 244.008 307.006 243.88C306.862 243.752 306.774 243.6 306.742 243.424C306.71 243.248 306.758 243.048 306.886 242.824L308.614 239.968C308.966 239.36 309.294 238.88 309.598 238.528C309.918 238.16 310.238 237.888 310.558 237.712C310.894 237.536 311.286 237.424 311.734 237.376L311.23 238L307.822 233.656C307.678 233.448 307.598 233.256 307.582 233.08C307.582 232.888 307.638 232.72 307.75 232.576C307.862 232.432 307.998 232.336 308.158 232.288C308.334 232.224 308.51 232.224 308.686 232.288C308.878 232.336 309.046 232.456 309.19 232.648L312.79 237.208H314.638V233.224C314.638 232.888 314.718 232.64 314.878 232.48C315.054 232.304 315.294 232.216 315.598 232.216C315.918 232.216 316.158 232.304 316.318 232.48C316.494 232.64 316.582 232.888 316.582 233.224V237.208H318.454L322.006 232.648C322.166 232.456 322.342 232.336 322.534 232.288C322.726 232.224 322.902 232.224 323.062 232.288C323.222 232.336 323.358 232.432 323.47 232.576C323.582 232.704 323.63 232.864 323.614 233.056C323.614 233.248 323.542 233.448 323.398 233.656L319.99 238L319.486 237.376C319.934 237.424 320.318 237.536 320.638 237.712C320.974 237.888 321.294 238.152 321.598 238.504C321.918 238.856 322.254 239.344 322.606 239.968L324.334 242.824C324.446 243.048 324.486 243.248 324.454 243.424C324.438 243.6 324.358 243.752 324.214 243.88C324.07 244.008 323.902 244.088 323.71 244.12C323.534 244.168 323.358 244.152 323.182 244.072C323.006 243.992 322.846 243.848 322.702 243.64L320.806 240.472C320.534 240.024 320.278 239.68 320.038 239.44C319.798 239.184 319.526 239.008 319.222 238.912C318.918 238.816 318.542 238.768 318.094 238.768H316.582V243.16C316.582 243.48 316.494 243.728 316.318 243.904C316.158 244.08 315.918 244.168 315.598 244.168ZM333.674 244.216C332.442 244.216 331.378 243.976 330.482 243.496C329.602 243 328.914 242.304 328.418 241.408C327.938 240.512 327.698 239.44 327.698 238.192C327.698 236.976 327.938 235.92 328.418 235.024C328.898 234.112 329.554 233.4 330.386 232.888C331.234 232.376 332.21 232.12 333.314 232.12C334.098 232.12 334.802 232.256 335.426 232.528C336.05 232.784 336.578 233.16 337.01 233.656C337.458 234.152 337.794 234.752 338.018 235.456C338.258 236.16 338.378 236.952 338.378 237.832C338.378 238.088 338.306 238.28 338.162 238.408C338.018 238.52 337.81 238.576 337.538 238.576H329.186V237.304H337.082L336.698 237.616C336.698 236.752 336.57 236.024 336.314 235.432C336.058 234.824 335.682 234.36 335.186 234.04C334.706 233.72 334.098 233.56 333.362 233.56C332.546 233.56 331.85 233.752 331.274 234.136C330.714 234.504 330.29 235.024 330.002 235.696C329.714 236.352 329.57 237.12 329.57 238V238.144C329.57 239.616 329.922 240.736 330.626 241.504C331.346 242.272 332.362 242.656 333.674 242.656C334.218 242.656 334.754 242.584 335.282 242.44C335.826 242.296 336.354 242.056 336.866 241.72C337.09 241.576 337.29 241.512 337.466 241.528C337.658 241.528 337.81 241.584 337.922 241.696C338.034 241.792 338.106 241.92 338.138 242.08C338.186 242.224 338.17 242.384 338.09 242.56C338.026 242.736 337.89 242.888 337.682 243.016C337.154 243.4 336.53 243.696 335.81 243.904C335.09 244.112 334.378 244.216 333.674 244.216ZM343.85 244C343.53 244 343.282 243.912 343.106 243.736C342.93 243.56 342.842 243.312 342.842 242.992V233.152C342.842 232.816 342.922 232.568 343.082 232.408C343.242 232.248 343.474 232.168 343.778 232.168C344.082 232.168 344.314 232.248 344.474 232.408C344.634 232.568 344.714 232.816 344.714 233.152V242.44H349.586V233.152C349.586 232.816 349.666 232.568 349.826 232.408C349.986 232.248 350.218 232.168 350.522 232.168C350.81 232.168 351.034 232.248 351.194 232.408C351.354 232.568 351.434 232.816 351.434 233.152V242.44H356.306V233.152C356.306 232.816 356.386 232.568 356.546 232.408C356.722 232.248 356.954 232.168 357.242 232.168C357.546 232.168 357.778 232.248 357.938 232.408C358.098 232.568 358.178 232.816 358.178 233.152V242.992C358.178 243.312 358.09 243.56 357.914 243.736C357.738 243.912 357.49 244 357.17 244H343.85ZM2.904 277.168C2.584 277.168 2.336 277.08 2.16 276.904C2 276.728 1.92 276.48 1.92 276.16V266.152C1.92 265.816 2 265.568 2.16 265.408C2.336 265.248 2.584 265.168 2.904 265.168C3.208 265.168 3.44 265.248 3.6 265.408C3.776 265.568 3.864 265.816 3.864 266.152V270.184H10.224V266.152C10.224 265.816 10.304 265.568 10.464 265.408C10.64 265.248 10.88 265.168 11.184 265.168C11.488 265.168 11.728 265.248 11.904 265.408C12.08 265.568 12.168 265.816 12.168 266.152V276.16C12.168 276.48 12.08 276.728 11.904 276.904C11.728 277.08 11.488 277.168 11.184 277.168C10.88 277.168 10.64 277.08 10.464 276.904C10.304 276.728 10.224 276.48 10.224 276.16V271.768H3.864V276.16C3.864 276.48 3.784 276.728 3.624 276.904C3.464 277.08 3.224 277.168 2.904 277.168ZM21.1419 277.216C20.3419 277.216 19.6219 277.064 18.9819 276.76C18.3579 276.44 17.8619 276.008 17.4939 275.464C17.1259 274.92 16.9419 274.312 16.9419 273.64C16.9419 272.776 17.1579 272.096 17.5899 271.6C18.0379 271.104 18.7659 270.752 19.7739 270.544C20.7979 270.336 22.1899 270.232 23.9499 270.232H25.0299V271.504H23.9739C22.6779 271.504 21.6539 271.568 20.9019 271.696C20.1659 271.808 19.6459 272.008 19.3419 272.296C19.0539 272.584 18.9099 272.992 18.9099 273.52C18.9099 274.176 19.1339 274.712 19.5819 275.128C20.0459 275.544 20.6699 275.752 21.4539 275.752C22.0939 275.752 22.6539 275.6 23.1339 275.296C23.6299 274.992 24.0139 274.576 24.2859 274.048C24.5739 273.52 24.7179 272.912 24.7179 272.224V269.488C24.7179 268.496 24.5179 267.784 24.1179 267.352C23.7179 266.904 23.0619 266.68 22.1499 266.68C21.5899 266.68 21.0299 266.752 20.4699 266.896C19.9099 267.04 19.3179 267.272 18.6939 267.592C18.4699 267.704 18.2779 267.744 18.1179 267.712C17.9579 267.664 17.8299 267.576 17.7339 267.448C17.6379 267.32 17.5819 267.176 17.5659 267.016C17.5499 266.84 17.5819 266.672 17.6619 266.512C17.7579 266.352 17.9019 266.224 18.0939 266.128C18.7979 265.776 19.4939 265.52 20.1819 265.36C20.8699 265.2 21.5259 265.12 22.1499 265.12C23.1579 265.12 23.9899 265.288 24.6459 265.624C25.3019 265.944 25.7899 266.44 26.1099 267.112C26.4299 267.768 26.5899 268.616 26.5899 269.656V276.16C26.5899 276.48 26.5099 276.728 26.3499 276.904C26.2059 277.08 25.9899 277.168 25.7019 277.168C25.3979 277.168 25.1659 277.08 25.0059 276.904C24.8459 276.728 24.7659 276.48 24.7659 276.16V274.288H24.9819C24.8539 274.896 24.6059 275.416 24.2379 275.848C23.8859 276.28 23.4459 276.616 22.9179 276.856C22.3899 277.096 21.7979 277.216 21.1419 277.216ZM31.3914 280.288C31.1194 280.288 30.9114 280.208 30.7674 280.048C30.6234 279.888 30.5514 279.664 30.5514 279.376V276.4C30.5514 275.76 30.8714 275.44 31.5114 275.44H32.6634L31.5114 275.848C31.9434 275.272 32.2874 274.648 32.5434 273.976C32.8154 273.288 33.0154 272.52 33.1434 271.672C33.2714 270.824 33.3354 269.856 33.3354 268.768V266.44C33.3354 266.072 33.4314 265.8 33.6234 265.624C33.8154 265.432 34.0874 265.336 34.4394 265.336H40.4874C40.8554 265.336 41.1274 265.432 41.3034 265.624C41.4954 265.8 41.5914 266.072 41.5914 266.44V276.328L40.7034 275.44H42.4794C42.7834 275.44 43.0154 275.52 43.1754 275.68C43.3514 275.84 43.4394 276.08 43.4394 276.4V279.376C43.4394 279.984 43.1594 280.288 42.5994 280.288C42.3274 280.288 42.1194 280.208 41.9754 280.048C41.8314 279.888 41.7594 279.664 41.7594 279.376V277H32.2074V279.376C32.2074 279.984 31.9354 280.288 31.3914 280.288ZM33.6474 275.44H39.7434V266.872H35.0634V269.104C35.0634 270.304 34.9434 271.464 34.7034 272.584C34.4634 273.688 34.1114 274.64 33.6474 275.44ZM51.1626 277.216C50.3626 277.216 49.6426 277.064 49.0026 276.76C48.3786 276.44 47.8826 276.008 47.5146 275.464C47.1466 274.92 46.9626 274.312 46.9626 273.64C46.9626 272.776 47.1786 272.096 47.6106 271.6C48.0586 271.104 48.7866 270.752 49.7946 270.544C50.8186 270.336 52.2106 270.232 53.9706 270.232H55.0506V271.504H53.9946C52.6986 271.504 51.6746 271.568 50.9226 271.696C50.1866 271.808 49.6666 272.008 49.3626 272.296C49.0746 272.584 48.9306 272.992 48.9306 273.52C48.9306 274.176 49.1546 274.712 49.6026 275.128C50.0666 275.544 50.6906 275.752 51.4746 275.752C52.1146 275.752 52.6746 275.6 53.1546 275.296C53.6506 274.992 54.0346 274.576 54.3066 274.048C54.5946 273.52 54.7386 272.912 54.7386 272.224V269.488C54.7386 268.496 54.5386 267.784 54.1386 267.352C53.7386 266.904 53.0826 266.68 52.1706 266.68C51.6106 266.68 51.0506 266.752 50.4906 266.896C49.9306 267.04 49.3386 267.272 48.7146 267.592C48.4906 267.704 48.2986 267.744 48.1386 267.712C47.9786 267.664 47.8506 267.576 47.7546 267.448C47.6586 267.32 47.6026 267.176 47.5866 267.016C47.5706 266.84 47.6026 266.672 47.6826 266.512C47.7786 266.352 47.9226 266.224 48.1146 266.128C48.8186 265.776 49.5146 265.52 50.2026 265.36C50.8906 265.2 51.5466 265.12 52.1706 265.12C53.1786 265.12 54.0106 265.288 54.6666 265.624C55.3226 265.944 55.8106 266.44 56.1306 267.112C56.4506 267.768 56.6106 268.616 56.6106 269.656V276.16C56.6106 276.48 56.5306 276.728 56.3706 276.904C56.2266 277.08 56.0106 277.168 55.7226 277.168C55.4186 277.168 55.1866 277.08 55.0266 276.904C54.8666 276.728 54.7866 276.48 54.7866 276.16V274.288H55.0026C54.8746 274.896 54.6266 275.416 54.2586 275.848C53.9066 276.28 53.4666 276.616 52.9386 276.856C52.4106 277.096 51.8186 277.216 51.1626 277.216ZM65.2521 277.168C64.9481 277.168 64.7081 277.08 64.5321 276.904C64.3561 276.728 64.2681 276.48 64.2681 276.16V266.896H60.7641C60.1561 266.896 59.8521 266.632 59.8521 266.104C59.8521 265.864 59.9321 265.68 60.0921 265.552C60.2521 265.408 60.4761 265.336 60.7641 265.336H69.7401C70.3321 265.336 70.6281 265.592 70.6281 266.104C70.6281 266.36 70.5481 266.56 70.3881 266.704C70.2441 266.832 70.0281 266.896 69.7401 266.896H66.2121V276.16C66.2121 276.48 66.1321 276.728 65.9721 276.904C65.8281 277.08 65.5881 277.168 65.2521 277.168ZM74.8361 277.168C74.6601 277.168 74.5001 277.128 74.3561 277.048C74.2281 276.984 74.1241 276.872 74.0441 276.712C73.9801 276.552 73.9481 276.352 73.9481 276.112V266.128C73.9481 265.808 74.0281 265.568 74.1881 265.408C74.3481 265.248 74.5641 265.168 74.8361 265.168C75.1241 265.168 75.3401 265.248 75.4841 265.408C75.6441 265.568 75.7241 265.808 75.7241 266.128V275.152H75.1241L82.1081 265.792C82.2361 265.616 82.3881 265.472 82.5641 265.36C82.7401 265.232 82.9641 265.168 83.2361 265.168C83.4281 265.168 83.5881 265.2 83.7161 265.264C83.8441 265.328 83.9401 265.44 84.0041 265.6C84.0841 265.744 84.1241 265.944 84.1241 266.2V276.208C84.1241 276.512 84.0441 276.752 83.8841 276.928C83.7401 277.088 83.5241 277.168 83.2361 277.168C82.9481 277.168 82.7241 277.088 82.5641 276.928C82.4201 276.752 82.3481 276.512 82.3481 276.208V267.16H82.9481L75.9401 276.544C75.8281 276.704 75.6841 276.848 75.5081 276.976C75.3481 277.104 75.1241 277.168 74.8361 277.168ZM98.0153 277.168C97.6953 277.168 97.4473 277.08 97.2713 276.904C97.1113 276.728 97.0313 276.48 97.0313 276.16V266.44C97.0313 266.072 97.1273 265.8 97.3193 265.624C97.5113 265.432 97.7833 265.336 98.1353 265.336H106.103C106.455 265.336 106.727 265.432 106.919 265.624C107.111 265.8 107.207 266.072 107.207 266.44V276.16C107.207 276.48 107.119 276.728 106.943 276.904C106.767 277.08 106.527 277.168 106.223 277.168C105.919 277.168 105.679 277.08 105.503 276.904C105.343 276.728 105.263 276.48 105.263 276.16V266.896H98.9753V276.16C98.9753 276.48 98.8953 276.728 98.7353 276.904C98.5753 277.08 98.3353 277.168 98.0153 277.168ZM117.359 277.216C116.223 277.216 115.239 276.968 114.407 276.472C113.575 275.976 112.927 275.28 112.463 274.384C112.015 273.472 111.791 272.4 111.791 271.168C111.791 270.24 111.919 269.408 112.175 268.672C112.431 267.92 112.807 267.28 113.303 266.752C113.799 266.224 114.383 265.824 115.055 265.552C115.743 265.264 116.511 265.12 117.359 265.12C118.495 265.12 119.479 265.368 120.311 265.864C121.143 266.36 121.783 267.064 122.231 267.976C122.695 268.872 122.927 269.936 122.927 271.168C122.927 272.096 122.799 272.928 122.543 273.664C122.287 274.4 121.911 275.04 121.415 275.584C120.919 276.112 120.327 276.52 119.639 276.808C118.967 277.08 118.207 277.216 117.359 277.216ZM117.359 275.656C118.079 275.656 118.711 275.48 119.255 275.128C119.799 274.776 120.215 274.264 120.503 273.592C120.807 272.92 120.959 272.112 120.959 271.168C120.959 269.712 120.631 268.6 119.975 267.832C119.335 267.064 118.463 266.68 117.359 266.68C116.623 266.68 115.983 266.856 115.439 267.208C114.911 267.544 114.495 268.048 114.191 268.72C113.903 269.376 113.759 270.192 113.759 271.168C113.759 272.608 114.087 273.72 114.743 274.504C115.399 275.272 116.271 275.656 117.359 275.656ZM132.489 277.216C131.321 277.216 130.313 276.96 129.465 276.448C128.617 275.936 127.961 275.224 127.497 274.312C127.049 273.384 126.825 272.312 126.825 271.096C126.825 270.168 126.953 269.336 127.209 268.6C127.465 267.864 127.841 267.24 128.337 266.728C128.833 266.2 129.425 265.8 130.113 265.528C130.817 265.256 131.609 265.12 132.489 265.12C133.065 265.12 133.665 265.208 134.289 265.384C134.913 265.56 135.481 265.864 135.993 266.296C136.153 266.408 136.257 266.544 136.305 266.704C136.353 266.864 136.353 267.024 136.305 267.184C136.257 267.328 136.177 267.456 136.065 267.568C135.953 267.664 135.809 267.72 135.633 267.736C135.473 267.752 135.305 267.696 135.129 267.568C134.713 267.248 134.289 267.024 133.857 266.896C133.425 266.768 133.009 266.704 132.609 266.704C131.985 266.704 131.441 266.808 130.977 267.016C130.513 267.208 130.121 267.488 129.801 267.856C129.481 268.224 129.233 268.68 129.057 269.224C128.897 269.768 128.817 270.4 128.817 271.12C128.817 272.512 129.145 273.616 129.801 274.432C130.457 275.232 131.393 275.632 132.609 275.632C133.009 275.632 133.417 275.568 133.833 275.44C134.265 275.312 134.697 275.088 135.129 274.768C135.305 274.64 135.473 274.584 135.633 274.6C135.793 274.616 135.929 274.68 136.041 274.792C136.153 274.888 136.225 275.016 136.257 275.176C136.305 275.336 136.305 275.496 136.257 275.656C136.209 275.8 136.105 275.928 135.945 276.04C135.433 276.456 134.873 276.76 134.265 276.952C133.657 277.128 133.065 277.216 132.489 277.216ZM143.712 277.168C143.408 277.168 143.168 277.08 142.992 276.904C142.816 276.728 142.728 276.48 142.728 276.16V266.896H139.224C138.616 266.896 138.312 266.632 138.312 266.104C138.312 265.864 138.392 265.68 138.552 265.552C138.712 265.408 138.936 265.336 139.224 265.336H148.2C148.792 265.336 149.088 265.592 149.088 266.104C149.088 266.36 149.008 266.56 148.848 266.704C148.704 266.832 148.488 266.896 148.2 266.896H144.672V276.16C144.672 276.48 144.592 276.728 144.432 276.904C144.288 277.08 144.048 277.168 143.712 277.168ZM153.392 281.488C153.072 281.488 152.832 281.4 152.672 281.224C152.512 281.064 152.432 280.824 152.432 280.504V266.152C152.432 265.832 152.512 265.592 152.672 265.432C152.832 265.256 153.064 265.168 153.368 265.168C153.688 265.168 153.928 265.256 154.088 265.432C154.264 265.592 154.352 265.832 154.352 266.152V268.432L154.088 268.096C154.344 267.184 154.848 266.464 155.6 265.936C156.368 265.392 157.28 265.12 158.336 265.12C159.376 265.12 160.28 265.368 161.048 265.864C161.832 266.344 162.432 267.04 162.848 267.952C163.28 268.848 163.496 269.92 163.496 271.168C163.496 272.4 163.28 273.472 162.848 274.384C162.432 275.28 161.84 275.976 161.072 276.472C160.304 276.968 159.392 277.216 158.336 277.216C157.28 277.216 156.376 276.952 155.624 276.424C154.872 275.88 154.36 275.16 154.088 274.264H154.376V280.504C154.376 280.824 154.288 281.064 154.112 281.224C153.936 281.4 153.696 281.488 153.392 281.488ZM157.928 275.656C158.664 275.656 159.296 275.48 159.824 275.128C160.368 274.776 160.784 274.264 161.072 273.592C161.376 272.92 161.528 272.112 161.528 271.168C161.528 269.712 161.2 268.6 160.544 267.832C159.904 267.064 159.032 266.68 157.928 266.68C157.208 266.68 156.576 266.856 156.032 267.208C155.488 267.544 155.064 268.048 154.76 268.72C154.472 269.376 154.328 270.192 154.328 271.168C154.328 272.608 154.656 273.72 155.312 274.504C155.968 275.272 156.84 275.656 157.928 275.656ZM171.771 277.216C170.971 277.216 170.251 277.064 169.611 276.76C168.987 276.44 168.491 276.008 168.123 275.464C167.755 274.92 167.571 274.312 167.571 273.64C167.571 272.776 167.787 272.096 168.219 271.6C168.667 271.104 169.395 270.752 170.403 270.544C171.427 270.336 172.819 270.232 174.579 270.232H175.659V271.504H174.603C173.307 271.504 172.283 271.568 171.531 271.696C170.795 271.808 170.275 272.008 169.971 272.296C169.683 272.584 169.539 272.992 169.539 273.52C169.539 274.176 169.763 274.712 170.211 275.128C170.675 275.544 171.299 275.752 172.083 275.752C172.723 275.752 173.283 275.6 173.763 275.296C174.259 274.992 174.643 274.576 174.915 274.048C175.203 273.52 175.347 272.912 175.347 272.224V269.488C175.347 268.496 175.147 267.784 174.747 267.352C174.347 266.904 173.691 266.68 172.779 266.68C172.219 266.68 171.659 266.752 171.099 266.896C170.539 267.04 169.947 267.272 169.323 267.592C169.099 267.704 168.907 267.744 168.747 267.712C168.587 267.664 168.459 267.576 168.363 267.448C168.267 267.32 168.211 267.176 168.195 267.016C168.179 266.84 168.211 266.672 168.291 266.512C168.387 266.352 168.531 266.224 168.723 266.128C169.427 265.776 170.123 265.52 170.811 265.36C171.499 265.2 172.155 265.12 172.779 265.12C173.787 265.12 174.619 265.288 175.275 265.624C175.931 265.944 176.419 266.44 176.739 267.112C177.059 267.768 177.219 268.616 177.219 269.656V276.16C177.219 276.48 177.139 276.728 176.979 276.904C176.835 277.08 176.619 277.168 176.331 277.168C176.027 277.168 175.795 277.08 175.635 276.904C175.475 276.728 175.395 276.48 175.395 276.16V274.288H175.611C175.483 274.896 175.235 275.416 174.867 275.848C174.515 276.28 174.075 276.616 173.547 276.856C173.019 277.096 172.427 277.216 171.771 277.216ZM189.941 277.168C189.637 277.168 189.397 277.08 189.221 276.904C189.061 276.728 188.981 276.48 188.981 276.16V271.768H187.469C187.037 271.768 186.669 271.816 186.365 271.912C186.061 272.008 185.781 272.184 185.525 272.44C185.285 272.68 185.029 273.024 184.757 273.472L182.861 276.64C182.733 276.848 182.573 276.992 182.381 277.072C182.189 277.152 182.005 277.168 181.829 277.12C181.653 277.088 181.493 277.008 181.349 276.88C181.205 276.752 181.117 276.6 181.085 276.424C181.053 276.248 181.101 276.048 181.229 275.824L182.957 272.968C183.309 272.36 183.637 271.88 183.941 271.528C184.261 271.16 184.581 270.888 184.901 270.712C185.237 270.536 185.629 270.424 186.077 270.376L185.573 271L182.165 266.656C182.021 266.448 181.941 266.256 181.925 266.08C181.925 265.888 181.981 265.72 182.093 265.576C182.205 265.432 182.341 265.336 182.501 265.288C182.677 265.224 182.853 265.224 183.029 265.288C183.221 265.336 183.389 265.456 183.533 265.648L187.133 270.208H188.981V266.224C188.981 265.888 189.061 265.64 189.221 265.48C189.397 265.304 189.637 265.216 189.941 265.216C190.261 265.216 190.501 265.304 190.661 265.48C190.837 265.64 190.925 265.888 190.925 266.224V270.208H192.797L196.349 265.648C196.509 265.456 196.685 265.336 196.877 265.288C197.069 265.224 197.245 265.224 197.405 265.288C197.565 265.336 197.701 265.432 197.813 265.576C197.925 265.704 197.973 265.864 197.957 266.056C197.957 266.248 197.885 266.448 197.741 266.656L194.333 271L193.829 270.376C194.277 270.424 194.661 270.536 194.981 270.712C195.317 270.888 195.637 271.152 195.941 271.504C196.261 271.856 196.597 272.344 196.949 272.968L198.677 275.824C198.789 276.048 198.829 276.248 198.797 276.424C198.781 276.6 198.701 276.752 198.557 276.88C198.413 277.008 198.245 277.088 198.053 277.12C197.877 277.168 197.701 277.152 197.525 277.072C197.349 276.992 197.189 276.848 197.045 276.64L195.149 273.472C194.877 273.024 194.621 272.68 194.381 272.44C194.141 272.184 193.869 272.008 193.565 271.912C193.261 271.816 192.885 271.768 192.437 271.768H190.925V276.16C190.925 276.48 190.837 276.728 190.661 276.904C190.501 277.08 190.261 277.168 189.941 277.168ZM202.304 280.288C202.032 280.288 201.824 280.208 201.68 280.048C201.536 279.888 201.464 279.664 201.464 279.376V276.4C201.464 275.76 201.784 275.44 202.424 275.44H203.576L202.424 275.848C202.856 275.272 203.2 274.648 203.456 273.976C203.728 273.288 203.928 272.52 204.056 271.672C204.184 270.824 204.248 269.856 204.248 268.768V266.44C204.248 266.072 204.344 265.8 204.536 265.624C204.728 265.432 205 265.336 205.352 265.336H211.4C211.768 265.336 212.04 265.432 212.216 265.624C212.408 265.8 212.504 266.072 212.504 266.44V276.328L211.616 275.44H213.392C213.696 275.44 213.928 275.52 214.088 275.68C214.264 275.84 214.352 276.08 214.352 276.4V279.376C214.352 279.984 214.072 280.288 213.512 280.288C213.24 280.288 213.032 280.208 212.888 280.048C212.744 279.888 212.672 279.664 212.672 279.376V277H203.12V279.376C203.12 279.984 202.848 280.288 202.304 280.288ZM204.56 275.44H210.656V266.872H205.976V269.104C205.976 270.304 205.856 271.464 205.616 272.584C205.376 273.688 205.024 274.64 204.56 275.44ZM222.075 277.216C221.275 277.216 220.555 277.064 219.915 276.76C219.291 276.44 218.795 276.008 218.427 275.464C218.059 274.92 217.875 274.312 217.875 273.64C217.875 272.776 218.091 272.096 218.523 271.6C218.971 271.104 219.699 270.752 220.707 270.544C221.731 270.336 223.123 270.232 224.883 270.232H225.963V271.504H224.907C223.611 271.504 222.587 271.568 221.835 271.696C221.099 271.808 220.579 272.008 220.275 272.296C219.987 272.584 219.843 272.992 219.843 273.52C219.843 274.176 220.067 274.712 220.515 275.128C220.979 275.544 221.603 275.752 222.387 275.752C223.027 275.752 223.587 275.6 224.067 275.296C224.563 274.992 224.947 274.576 225.219 274.048C225.507 273.52 225.651 272.912 225.651 272.224V269.488C225.651 268.496 225.451 267.784 225.051 267.352C224.651 266.904 223.995 266.68 223.083 266.68C222.523 266.68 221.963 266.752 221.403 266.896C220.843 267.04 220.251 267.272 219.627 267.592C219.403 267.704 219.211 267.744 219.051 267.712C218.891 267.664 218.763 267.576 218.667 267.448C218.571 267.32 218.515 267.176 218.499 267.016C218.483 266.84 218.515 266.672 218.595 266.512C218.691 266.352 218.835 266.224 219.027 266.128C219.731 265.776 220.427 265.52 221.115 265.36C221.803 265.2 222.459 265.12 223.083 265.12C224.091 265.12 224.923 265.288 225.579 265.624C226.235 265.944 226.723 266.44 227.043 267.112C227.363 267.768 227.523 268.616 227.523 269.656V276.16C227.523 276.48 227.443 276.728 227.283 276.904C227.139 277.08 226.923 277.168 226.635 277.168C226.331 277.168 226.099 277.08 225.939 276.904C225.779 276.728 225.699 276.48 225.699 276.16V274.288H225.915C225.787 274.896 225.539 275.416 225.171 275.848C224.819 276.28 224.379 276.616 223.851 276.856C223.323 277.096 222.731 277.216 222.075 277.216ZM241.709 277.168C241.405 277.168 241.165 277.08 240.989 276.904C240.829 276.728 240.749 276.48 240.749 276.16V266.896H236.045V268.384C236.045 269.632 235.981 270.736 235.853 271.696C235.741 272.64 235.557 273.456 235.301 274.144C235.045 274.832 234.701 275.408 234.269 275.872C233.853 276.336 233.333 276.728 232.709 277.048C232.501 277.144 232.301 277.168 232.109 277.12C231.917 277.088 231.757 277.016 231.629 276.904C231.517 276.776 231.437 276.624 231.389 276.448C231.357 276.272 231.381 276.096 231.461 275.92C231.541 275.744 231.685 275.6 231.893 275.488C232.357 275.232 232.733 274.912 233.021 274.528C233.325 274.144 233.565 273.664 233.741 273.088C233.917 272.512 234.037 271.84 234.101 271.072C234.181 270.288 234.221 269.368 234.221 268.312V266.44C234.221 266.072 234.317 265.8 234.509 265.624C234.701 265.432 234.973 265.336 235.325 265.336H241.589C241.941 265.336 242.213 265.432 242.405 265.624C242.597 265.8 242.693 266.072 242.693 266.44V276.16C242.693 276.48 242.605 276.728 242.429 276.904C242.269 277.08 242.029 277.168 241.709 277.168ZM248.866 277.168C248.69 277.168 248.53 277.128 248.386 277.048C248.258 276.984 248.154 276.872 248.074 276.712C248.01 276.552 247.978 276.352 247.978 276.112V266.128C247.978 265.808 248.058 265.568 248.218 265.408C248.378 265.248 248.594 265.168 248.866 265.168C249.154 265.168 249.37 265.248 249.514 265.408C249.674 265.568 249.754 265.808 249.754 266.128V275.152H249.154L256.138 265.792C256.266 265.616 256.418 265.472 256.594 265.36C256.77 265.232 256.994 265.168 257.266 265.168C257.458 265.168 257.618 265.2 257.746 265.264C257.874 265.328 257.97 265.44 258.034 265.6C258.114 265.744 258.154 265.944 258.154 266.2V276.208C258.154 276.512 258.074 276.752 257.914 276.928C257.77 277.088 257.554 277.168 257.266 277.168C256.978 277.168 256.754 277.088 256.594 276.928C256.45 276.752 256.378 276.512 256.378 276.208V267.16H256.978L249.97 276.544C249.858 276.704 249.714 276.848 249.538 276.976C249.378 277.104 249.154 277.168 248.866 277.168ZM264.298 277.168C264.026 277.168 263.81 277.088 263.65 276.928C263.506 276.752 263.434 276.52 263.434 276.232V266.2C263.434 265.976 263.466 265.792 263.53 265.648C263.594 265.488 263.69 265.368 263.818 265.288C263.946 265.208 264.106 265.168 264.298 265.168C264.49 265.168 264.65 265.2 264.778 265.264C264.906 265.312 265.018 265.392 265.114 265.504C265.21 265.6 265.29 265.72 265.354 265.864L269.434 273.136L273.514 265.864C273.578 265.72 273.658 265.6 273.754 265.504C273.85 265.392 273.962 265.312 274.09 265.264C274.218 265.2 274.37 265.168 274.546 265.168C274.834 265.168 275.05 265.256 275.194 265.432C275.338 265.592 275.41 265.848 275.41 266.2V276.232C275.41 276.52 275.338 276.752 275.194 276.928C275.05 277.088 274.834 277.168 274.546 277.168C274.274 277.168 274.058 277.088 273.898 276.928C273.754 276.752 273.682 276.52 273.682 276.232V267.568H274.234L270.13 274.768C270.066 274.896 269.978 275.008 269.866 275.104C269.754 275.184 269.61 275.224 269.434 275.224C269.242 275.224 269.09 275.176 268.978 275.08C268.882 274.984 268.794 274.88 268.714 274.768L264.61 267.568H265.162V276.232C265.162 276.52 265.082 276.752 264.922 276.928C264.778 277.088 264.57 277.168 264.298 277.168ZM281.534 277.096C281.134 277.096 280.814 276.976 280.574 276.736C280.334 276.48 280.214 276.16 280.214 275.776C280.214 275.392 280.334 275.08 280.574 274.84C280.814 274.584 281.134 274.456 281.534 274.456C281.934 274.456 282.246 274.584 282.47 274.84C282.71 275.08 282.83 275.392 282.83 275.776C282.83 276.16 282.71 276.48 282.47 276.736C282.246 276.976 281.934 277.096 281.534 277.096Z" fill="#656565"/>
<g clip-path="url(#clip0_43_1110)">
<path d="M40.2936 10.3077C40.2936 12.0161 38.9064 13.4001 37.1954 13.4001C35.4838 13.4001 34.0972 12.0161 34.0972 10.3077C34.0972 8.59999 35.4838 7.21533 37.1954 7.21533C38.9064 7.21533 40.2936 8.59999 40.2936 10.3077" fill="#4169E1"/>
<path d="M49.2361 94.8333H5.38629C4.70163 94.8333 4.14699 94.279 4.14699 93.5963V17.729C4.14699 17.0463 4.70163 16.4921 5.38629 16.4921H18.6057V18.9253C18.6057 19.9131 18.9957 20.8615 19.6921 21.5636C20.3878 22.2662 21.3332 22.6666 22.3235 22.6769H52.0665C53.0562 22.6666 54.0016 22.2662 54.6979 21.5636C55.3936 20.8616 55.7844 19.9131 55.7844 18.9253V16.4921H69.0037H69.0031C69.6877 16.4921 70.2424 17.0463 70.2424 17.729V45.3554C70.2424 46.4936 71.1677 47.4165 72.3081 47.4165C73.4485 47.4165 74.3738 46.4936 74.3738 45.3554V17.729C74.3683 16.3091 73.8005 14.9494 72.7949 13.945C71.7887 12.9414 70.4256 12.3747 69.0031 12.3691H55.619C55.2968 10.7878 54.4392 9.36583 53.1902 8.34076C51.9419 7.3164 50.3775 6.75108 48.7613 6.74073H46.8401C45.8387 4.1267 43.8144 2.03185 41.2335 0.93697C38.6526 -0.157782 35.7362 -0.157782 33.1552 0.93697C30.5743 2.03172 28.5507 4.1267 27.5487 6.74073H25.6274C24.0112 6.75108 22.4476 7.3164 21.1985 8.34076C19.9502 9.3658 19.0926 10.7878 18.7704 12.3691H5.38566C3.9631 12.3747 2.60009 12.9414 1.59449 13.945C0.588251 14.9493 0.0211664 16.3092 0.015625 17.729V93.5963C0.0211576 95.0162 0.588251 96.3759 1.59449 97.3803C2.60003 98.384 3.96313 98.9507 5.38566 98.9562H49.2354C50.3758 98.9562 51.3012 98.0333 51.3012 96.8944C51.3012 95.7561 50.3758 94.8333 49.2354 94.8333H49.2361ZM22.7364 13.875C22.7198 13.093 23.0151 12.3371 23.5573 11.7726C24.0995 11.208 24.845 10.8814 25.6278 10.8656H30.7918L31.1223 9.19584C31.5048 7.31692 32.7378 5.72108 34.4612 4.87554C36.1853 4.02996 38.204 4.02996 39.928 4.87554C41.6514 5.72111 42.8852 7.31692 43.2669 9.19584L43.5975 10.8656H48.7614C49.545 10.8815 50.2898 11.208 50.8319 11.7726C51.3741 12.3372 51.6694 13.0931 51.6528 13.875V18.5549H22.7365L22.7364 13.875Z" fill="#4169E1"/>
<path d="M24.8022 35.0463H57.8507V39.1692H24.8022V35.0463Z" fill="#4169E1"/>
<path d="M15.5077 31.9539C14.1377 31.9539 12.8245 32.4972 11.8562 33.4635C10.888 34.4306 10.3438 35.7415 10.3438 37.1081C10.3438 38.4748 10.888 39.7856 11.8562 40.7527C12.8244 41.7191 14.1378 42.2623 15.5077 42.2623C16.877 42.2623 18.1903 41.7191 19.1585 40.7527C20.1274 39.7856 20.671 38.4748 20.671 37.1081C20.671 35.7415 20.1274 34.4306 19.1585 33.4635C18.1903 32.4972 16.877 31.9539 15.5077 31.9539ZM15.5077 40.2005C14.6854 40.2005 13.8977 39.8747 13.3168 39.2948C12.7359 38.715 12.4095 37.9281 12.4095 37.1081C12.4095 36.2881 12.7359 35.5012 13.3168 34.9214C13.8977 34.3415 14.6854 34.0157 15.5077 34.0157C16.3293 34.0157 17.117 34.3415 17.6986 34.9214C18.2795 35.5012 18.6059 36.2881 18.6059 37.1081C18.6059 37.9281 18.2795 38.715 17.6986 39.2948C17.117 39.8747 16.3293 40.2005 15.5077 40.2005Z" fill="#4169E1"/>
<path d="M24.8022 55.6627H45.4577V59.7856H24.8022V55.6627Z" fill="#4169E1"/>
<path d="M15.5077 52.5703C14.1377 52.5703 12.8245 53.1135 11.8562 54.0799C10.888 55.0463 10.3438 56.3571 10.3438 57.7245C10.3438 59.0912 10.888 60.402 11.8562 61.3684C12.8244 62.3354 14.1378 62.878 15.5077 62.878C16.877 62.878 18.1903 62.3354 19.1585 61.3684C20.1274 60.402 20.671 59.0911 20.671 57.7245C20.671 56.3571 20.1274 55.0463 19.1585 54.0799C18.1903 53.1135 16.877 52.5703 15.5077 52.5703ZM15.5077 60.8169C14.6854 60.8169 13.8977 60.4911 13.3168 59.9112C12.7359 59.3307 12.4095 58.5445 12.4095 57.7245C12.4095 56.9038 12.7359 56.1176 13.3168 55.5378C13.8977 54.9579 14.6854 54.6321 15.5077 54.6321C16.3293 54.6321 17.117 54.9579 17.6986 55.5378C18.2795 56.1176 18.6059 56.9038 18.6059 57.7245C18.6059 58.5445 18.2795 59.3307 17.6986 59.9112C17.117 60.4911 16.3293 60.8169 15.5077 60.8169Z" fill="#4169E1"/>
<path d="M24.8022 76.2791H41.3259V80.402H24.8022V76.2791Z" fill="#4169E1"/>
<path d="M15.5077 73.1867C14.1377 73.1867 12.8245 73.7292 11.8562 74.6963C10.888 75.6627 10.3438 76.9735 10.3438 78.3402C10.3438 79.7076 10.888 81.0184 11.8562 81.9848C12.8244 82.9512 14.1378 83.4944 15.5077 83.4944C16.877 83.4944 18.1903 82.9511 19.1585 81.9848C20.1274 81.0184 20.671 79.7075 20.671 78.3402C20.671 76.9735 20.1274 75.6627 19.1585 74.6963C18.1903 73.7292 16.877 73.1867 15.5077 73.1867ZM15.5077 81.4333V81.4326C14.6854 81.4326 13.8977 81.1068 13.3168 80.5269C12.7359 79.9471 12.4095 79.1609 12.4095 78.3402C12.4095 77.5202 12.7359 76.734 13.3168 76.1535C13.8977 75.5736 14.6854 75.2478 15.5077 75.2478C16.3293 75.2478 17.117 75.5736 17.6986 76.1535C18.2795 76.734 18.6059 77.5202 18.6059 78.3402C18.6059 79.1609 18.2795 79.9471 17.6986 80.5269C17.117 81.1068 16.3293 81.4326 15.5077 81.4326V81.4333Z" fill="#4169E1"/>
<path d="M72.308 53.6005C66.2824 53.6005 60.5029 55.9901 56.2422 60.2429C51.9815 64.4957 49.5879 70.2634 49.5879 76.2784C49.5879 82.2926 51.9815 88.0605 56.2422 92.3131C60.5029 96.5664 66.2824 98.9555 72.308 98.9555C78.3337 98.9555 84.1132 96.5664 88.3739 92.3131C92.6346 88.0605 95.0282 82.2926 95.0282 76.2784C95.0282 70.2634 92.6346 64.4956 88.3739 60.2429C84.1132 55.9903 78.3337 53.6005 72.308 53.6005V53.6005ZM72.308 94.8315V94.8322C67.3778 94.8322 62.6495 92.8775 59.1634 89.3978C55.6773 85.9182 53.7186 81.1989 53.7186 76.278C53.7186 71.3571 55.6771 66.6378 59.1634 63.1582C62.6497 59.6787 67.3778 57.7238 72.308 57.7238C77.2383 57.7238 81.9666 59.6785 85.4527 63.1582C88.9388 66.6379 90.8975 71.3571 90.8975 76.278C90.8975 81.1989 88.939 85.9182 85.4527 89.3978C81.9666 92.8773 77.2383 94.8322 72.308 94.8322V94.8315Z" fill="#4169E1"/>
<path d="M79.0837 68.6718L68.7564 79.4744L65.5138 76.0935C64.7094 75.3715 63.484 75.3908 62.7032 76.1377C61.9224 76.8846 61.8512 78.1057 62.5393 78.9381L67.249 83.8859C67.639 84.2959 68.1798 84.5279 68.7462 84.5279C69.3126 84.5279 69.8534 84.2959 70.2435 83.8859L82.0375 71.5164C82.7256 70.684 82.6544 69.4629 81.8736 68.716C81.0928 67.9691 79.8673 67.9498 79.063 68.6718H79.0837Z" fill="#4169E1"/>
</g>
<defs>
<clipPath id="clip0_43_1110">
<rect width="95" height="99" fill="white"/>
</clipPath>
</defs>
</svg>
