<svg width="107" height="99" viewBox="0 0 107 99" fill="none" xmlns="http://www.w3.org/2000/svg">
<g clip-path="url(#clip0_43_815)">
<path d="M81.5902 1.38972H88.2142C91.872 1.38972 94.8372 4.35475 94.8372 8.01273V60.9954C94.8372 64.6532 91.8722 67.6184 88.2142 67.6184H40.3833L31.5523 89.6965L23.0905 67.6184H8.00289C4.34505 67.6184 1.37988 64.6533 1.37988 60.9954V8.01131C1.37988 4.35348 4.34491 1.38831 8.00289 1.38831H58.741M14.2577 15.5551H49.2129M14.2577 24.0183H81.0382M14.2577 32.849H81.0382M14.2577 43.8873H49.2129M99.2514 13.8979H94.8365V60.9939C94.8365 64.2273 92.5158 66.9102 89.4507 67.4922C89.0182 67.5813 88.5679 67.6298 88.1097 67.6298H40.3781L35.3792 80.1285H63.9313L72.7623 96.686L82.6958 80.1285H99.2533C102.911 80.1285 105.876 77.1635 105.876 73.5055V20.5215C105.875 16.8646 102.909 13.8985 99.2514 13.8985L99.2514 13.8979ZM23.094 67.6297H12.4173V73.5054C12.4173 77.1633 15.3824 80.1284 19.0403 80.1284H27.8842L23.094 67.6297Z" stroke="#4169E1" stroke-width="4" stroke-miterlimit="10" stroke-linecap="round"/>
</g>
<defs>
<clipPath id="clip0_43_815">
<rect width="106.981" height="99" fill="white"/>
</clipPath>
</defs>
</svg>
