<svg version="1.1" xmlns="http://www.w3.org/2000/svg" viewBox="0 0 640 640">
	<title>Задонатити</title>

	<g>
		<path fill="black"
			d="M320 640c-176.731 0-320-143.269-320-320s143.269-320 320-320v0c176.731 0 320 143.269 320 320s-143.269 320-320 320v0zM352 480h32c53.019 0 96-42.981 96-96s-42.981-96-96-96v0h-128.32c-17.673 0-32-14.327-32-32s14.327-32 32-32v0h192.32v-64h-96v-64h-64v64h-32c-53.019 0-96 42.981-96 96s42.981 96 96 96v0h128c17.673 0 32 14.327 32 32s-14.327 32-32 32v0h-192v64h96v64h64v-64z">
		</path>
	</g>
</svg>