<svg width="43" height="43" viewBox="0 0 43 43" fill="none" xmlns="http://www.w3.org/2000/svg">
<path d="M21.5189 -0.0181198C22.1371 0.0147934 22.6237 0.235168 22.9292 0.527111L42.4189 18.991C43.2718 19.8403 43.2374 21.1118 42.499 21.8918C41.7606 22.6724 40.3782 22.7103 39.5983 21.9719L23.5706 6.81006V41.0141C23.5706 42.1467 22.6519 43.0654 21.5192 43.0654C20.3858 43.0654 19.4679 42.1467 19.4679 41.0141V6.81006L3.44019 21.9719C2.65956 22.7103 1.30438 22.6466 0.539451 21.8918C-0.251914 21.1111 -0.161042 19.7294 0.619589 18.991L20.1093 0.527111C20.6073 0.0398331 21.0308 0.01408 21.5195 -0.0181198H21.5189Z" fill="#4169E1"/>
</svg>
