<svg width="79" height="55" viewBox="0 0 79 55" fill="none" xmlns="http://www.w3.org/2000/svg">
<path d="M39.2498 32.921C47.9325 32.921 54.9713 25.8283 54.9713 17.079C54.9713 8.3297 47.9325 1.237 39.2498 1.237C30.5671 1.237 23.5283 8.3297 23.5283 17.079C23.5283 25.8283 30.5671 32.921 39.2498 32.921Z" fill="#FFD700"/>
<path d="M5.1559 31.5167C-1.5155 24.7942 -1.5155 13.8948 5.15588 7.17225C11.8273 0.449705 22.6438 0.449705 29.3152 7.17225L52.5059 30.5408L28.3467 54.8854L5.1559 31.5167Z" fill="white"/>
<path d="M5.76819 32.1217C2.6554 28.9849 2.65539 23.8994 5.76819 20.7627C8.88104 17.626 13.928 17.626 17.0409 20.7627L32.4728 36.3129L21.2001 47.6719L5.76819 32.1217Z" fill="#FFD700"/>
<path d="M64.4608 6.8447C63.1172 5.49086 63.1172 3.29584 64.4608 1.94199C65.8044 0.588145 67.9826 0.588145 69.3262 1.94199L75.9868 8.65368L71.1215 13.5565L64.4608 6.8447Z" fill="#FFD700"/>
<path d="M72.8989 1.98636C74.2425 0.632517 76.4207 0.632517 77.7643 1.98636C79.1079 3.3402 79.1079 5.53523 77.7643 6.88907L71.1036 13.6007L66.2383 8.69808L72.8989 1.98636Z" fill="white"/>
<path d="M15.7295 42.171L44.2739 13.4076C49.5771 8.06378 58.1752 8.06378 63.4783 13.4076C65.1657 15.108 65.1657 17.8647 63.4783 19.5651L28.387 54.9255L15.7295 42.171Z" fill="white"/>
<path d="M53.6719 17.2037C54.6633 17.2037 55.4669 16.3939 55.4669 15.395C55.4669 14.3961 54.6633 13.5863 53.6719 13.5863C52.6806 13.5863 51.877 14.3961 51.877 15.395C51.877 16.3939 52.6806 17.2037 53.6719 17.2037Z" fill="#FFD700"/>
<path d="M68.3694 17.4984C67.6772 17.3917 66.1122 15.8316 63.265 13.2744C61.8762 18.209 59.4885 22.8248 62.2747 20.7588C65.5551 18.3264 67.1085 17.7355 68.3694 17.4984Z" fill="white"/>
</svg>
